<svg width="43" height="43" viewBox="0 0 43 43" fill="none" xmlns="http://www.w3.org/2000/svg">
<rect x="1.00098" y="0.951636" width="40.8502" height="40.8502" rx="8.25696" fill="#4D1C6B"/>
<rect x="1.00098" y="0.951636" width="40.8502" height="40.8502" rx="8.25696" stroke="white" stroke-width="0.869154"/>
<path fill-rule="evenodd" clip-rule="evenodd" d="M27.9985 21.4611L29.3292 23.7669C30.1696 25.2219 29.6707 27.0828 28.2166 27.9224C27.7534 28.1892 27.2293 28.33 26.6956 28.33H24.9026V30.5029L20.5568 27.4609L24.9026 24.4188V26.5917H26.6948C26.9233 26.5917 27.1485 26.5309 27.3466 26.417C27.9707 26.0572 28.1836 25.2593 27.8247 24.6361L26.4931 22.3302L27.9985 21.4611ZM17.3444 18.8858L17.8051 24.1702L15.9242 23.0838L15.0281 24.6361C14.9134 24.8343 14.8534 25.0594 14.8534 25.288C14.8534 26.0076 15.4366 26.5917 16.1571 26.5917H18.8185V28.33H16.1571C14.4771 28.33 13.1151 26.968 13.1151 25.288C13.1151 24.7543 13.2559 24.2293 13.5227 23.7669L14.418 22.2138L12.5371 21.1282L17.3435 18.8858H17.3444ZM22.947 13.5274C23.4094 13.7943 23.7935 14.1784 24.0604 14.6408L24.9556 16.1923L26.8382 15.1058L26.3775 20.3912L21.5694 18.1487L23.4511 17.0623L22.555 15.51C22.4402 15.3118 22.276 15.1475 22.0778 15.0328C21.4546 14.673 20.6567 14.8868 20.2969 15.51L18.9654 17.8158L17.46 16.9467L18.7924 14.6408C19.632 13.1859 21.4929 12.687 22.9478 13.5274H22.947Z" fill="white"/>
</svg>
