<svg width="17" height="16" viewBox="0 0 17 16" fill="none" xmlns="http://www.w3.org/2000/svg">
<path fill-rule="evenodd" clip-rule="evenodd" d="M8.92155 14.6668C5.23955 14.6668 2.25488 11.6822 2.25488 8.00016C2.25488 4.31816 5.23955 1.3335 8.92155 1.3335C12.6035 1.3335 15.5882 4.31816 15.5882 8.00016C15.5882 11.6822 12.6035 14.6668 8.92155 14.6668ZM8.92155 13.3335C11.8671 13.3335 14.2549 10.9457 14.2549 8.00016C14.2549 5.05464 11.8671 2.66683 8.92155 2.66683C5.97603 2.66683 3.58822 5.05464 3.58822 8.00016C3.58822 10.9457 5.97603 13.3335 8.92155 13.3335ZM8.25488 10.0002H9.58822V11.3335H8.25488V10.0002ZM9.58822 8.9035V9.3335H8.25488V8.3335C8.25488 7.96531 8.55336 7.66683 8.92155 7.66683C9.44832 7.6668 9.88474 7.25813 9.91933 6.7325C9.95392 6.20687 9.57483 5.74453 9.05261 5.67546C8.53039 5.60639 8.04413 5.95428 7.94088 6.47083L6.63288 6.20883C6.85721 5.08766 7.86072 4.29407 9.0034 4.33418C10.1461 4.37429 11.0915 5.2363 11.2366 6.37044C11.3818 7.50458 10.684 8.57689 9.58822 8.9035Z" fill="#F5F5FE"/>
</svg>
