<svg width="253" height="644" viewBox="0 0 253 644" fill="none" xmlns="http://www.w3.org/2000/svg">
<path d="M79.1205 642.973C90.2964 643.323 101.53 643.148 112.706 642.915C143.906 642.333 175.163 641.693 206.363 641.111C211.194 640.994 217.481 639.947 217.83 636.163C218.121 632.787 213.231 630.633 209.04 629.644C194.081 626.035 178.365 625.336 162.882 624.754C140.064 623.881 117.188 623.182 94.3709 622.6C80.11 622.251 65.4416 622.018 52.1702 625.744C44.8942 627.781 34.184 636.454 45.7092 640.645C48.9106 641.809 55.3717 641.285 58.806 641.576C65.4999 642.217 72.3101 642.741 79.1205 642.973Z" fill="#400664" fill-opacity="0.71"/>
<path d="M152.406 144.881C157.179 154.66 159.798 165.312 163.174 175.673C167.889 189.992 174.234 204.021 183.838 215.663C193.384 227.305 206.423 236.56 221.207 239.703C223.303 240.169 225.515 240.46 227.377 241.507C230.87 243.486 232.674 247.678 232.558 251.694C197.924 250.006 164.338 232.776 142.743 205.651C133.721 194.3 126.794 181.436 120.566 168.339C116.608 160.015 112.824 151.051 113.93 141.912C114.862 134.112 122.429 123.343 131.334 123.518C140.881 123.693 148.855 137.605 152.406 144.881Z" fill="#735486"/>
<path d="M76.4429 470.906C78.0145 427.249 74.7549 382.72 75.0459 338.772C73.9982 323.521 75.6863 308.037 79.8773 293.718C80.1101 292.845 80.4011 291.914 80.925 291.215C82.5548 289.12 85.2906 290.226 87.4442 291.332C107.992 302.1 132.264 299.539 151.007 284.346C154.733 291.506 155.78 300.296 156.654 308.794C158.109 322.532 159.738 336.211 160.146 350.006V350.064C160.204 353.033 160.262 356.002 160.204 358.97C159.971 376.142 157.352 393.081 155.315 410.02C153.976 421.079 152.812 432.197 152.695 443.373C152.579 452.512 153.626 460.894 151.997 469.858C148.039 491.92 148.039 516.018 146.351 538.603C144.546 562.76 142.8 586.917 141.287 611.131C141.228 612.121 141.17 613.052 141.112 614.042C140.18 614.391 125.512 618.641 125.512 613.809C124.348 566.835 123.184 519.86 121.962 472.885C121.496 453.094 122.602 386.329 118.644 367.469C117.014 367.702 115.384 367.876 113.754 368.109C104.849 430.276 94.2546 539.185 85.2906 601.352C84.4757 606.824 83.5441 612.703 80.6919 616.254C77.8397 619.805 72.5429 618.815 71.728 613.343C74.4638 565.903 74.7548 518.405 76.4429 470.906Z" fill="#4D1C6B"/>
<path d="M118.999 613.633C119.174 613.11 119.29 612.527 119.465 612.004C121.269 604.902 122.2 597.568 122.2 590.292C122.2 586.974 122.026 583.598 122.783 580.338C127.032 580.396 138.906 579.639 143.155 579.698C143.505 579.698 143.912 579.698 144.203 579.93C144.494 580.163 144.611 580.571 144.669 580.978C146.531 591.048 140.245 602.224 142.573 612.178C143.504 616.195 147.23 617.65 150.664 619.687C153.633 621.491 159.512 625.857 163.062 625.857C165.099 626.672 167.253 627.487 168.766 629.117C170.28 630.747 170.862 633.424 169.465 635.112C168.243 636.568 166.031 636.742 164.11 636.8C149.325 636.975 134.54 635.695 119.988 633.075C119.115 632.9 118.184 632.726 117.544 632.085C117.02 631.562 116.787 630.863 116.613 630.223C114.925 623.762 117.369 619.28 118.999 613.633Z" fill="#AC224F"/>
<path d="M65.1482 617.534C65.6139 615.962 66.6618 614.623 67.1857 613.11C67.7678 611.538 67.4767 609.559 67.4767 607.871C67.4767 600.246 67.4766 592.562 67.4184 584.937C67.4184 582.608 67.6513 579.931 69.6304 578.709C70.9692 577.894 72.6571 578.126 74.2287 578.417C78.7107 579.174 83.1927 579.931 87.6748 580.746C88.8389 580.921 90.1779 581.212 90.8182 582.201C91.4585 583.191 91.2838 584.471 91.0509 585.635C89.7122 592.97 89.1882 600.479 89.4792 607.988C89.5374 610.141 89.712 612.295 89.4792 614.391C94.6597 618.815 100.364 622.598 106.476 625.567C108.281 626.44 110.143 627.313 111.424 628.826C112.704 630.34 113.054 632.843 111.657 634.298C110.434 635.579 108.513 635.579 106.767 635.462C93.4958 634.647 80.2824 632.61 67.4184 629.292C66.6617 629.118 65.8469 628.885 65.323 628.244C64.9156 627.779 64.741 627.138 64.6245 626.498C64.0425 623.588 64.2751 620.444 65.1482 617.534Z" fill="#AC224F"/>
<path d="M89.4804 120.894C98.0369 121.535 106.652 119.846 114.975 117.809C117.071 117.285 119.341 116.762 121.436 117.402C124.754 118.45 126.21 121.942 127.141 125.027C142.45 172.817 154.906 221.421 164.627 270.433C179.47 345.406 187.968 421.369 189.889 497.564C146.931 508.391 101.471 506.237 56.9424 504.084C40.3532 503.269 23.5894 502.454 7.52408 498.554C5.60322 498.088 3.5076 497.506 2.28523 496.051C0.83004 494.421 0.830153 492.093 0.946569 489.939C1.99431 470.788 6.01052 451.928 9.91044 433.127C28.6533 342.379 44.3113 251.108 57.9901 159.661C59.6199 148.543 58.4557 130.906 63.7526 120.952C69.2824 110.475 79.9925 120.196 89.4804 120.894Z" fill="#673386"/>
<path d="M76.2678 86.3804C76.5006 90.3968 76.7917 94.4715 78.1305 98.1387C81.0991 106.404 88.5497 111.003 95.5346 114.67C100.89 117.464 107.06 120.2 112.473 117.522C117.13 115.252 119.807 109.722 123.358 105.531C126.035 102.388 129.353 99.9431 131.915 96.6252C137.677 89.2327 139.074 78.5223 139.132 68.5104C139.191 55.879 136.92 42.0253 128.597 33.876C124.231 29.6268 118.643 27.4147 112.997 26.1341C107.758 24.9117 102.229 24.4462 97.0481 26.076C90.6452 28.1134 85.2318 33.3521 81.3901 39.6969C72.3679 54.8894 75.22 69.0923 76.2678 86.3804Z" fill="#FFC3B1"/>
<path d="M236.572 234.987C239.134 233.998 241.753 233.066 244.489 232.95C247.224 232.892 250.135 233.881 251.706 236.151C253.394 238.713 252.987 242.263 251.241 244.766C249.495 247.269 246.701 248.899 243.848 250.005C239.25 251.751 233.895 252.275 229.471 250.063C226.444 248.55 222.079 243.893 224.174 240.284C225.804 237.432 233.72 236.035 236.572 234.987Z" fill="#FFC3B1"/>
<path d="M60.4394 178.522C60.5558 181.898 60.7888 185.274 61.7201 188.476C62.8843 192.609 65.0961 196.334 67.4826 199.885C86.0508 227.127 119.346 243.6 152.291 241.854C153.804 241.795 155.551 241.504 156.307 240.224C156.715 239.525 156.715 238.652 156.715 237.837C156.657 235.16 156.423 232.482 156.016 229.862C147.401 228.524 138.845 226.719 130.347 224.507C115.504 220.607 99.4968 213.971 93.385 199.943C90.5911 193.598 90.2416 186.497 89.9506 179.57C89.485 169.325 89.0776 158.964 91.4641 149.01C92.57 144.412 94.258 139.93 94.6654 135.273C95.7713 120.662 75.6898 112.804 69.6363 127.182C63.0588 142.956 59.9737 161.525 60.4394 178.522Z" fill="#4D1C6B"/>
<path d="M146.412 50.0558C145.48 45.8647 144.666 41.5573 142.803 37.7155C142.279 36.6095 141.464 35.4452 140.591 34.3393C140.707 33.4661 140.824 32.5349 140.765 31.3125C140.474 23.0468 136.051 14.8976 129.008 10.4737C117.308 3.08121 101.999 6.28265 88.5532 2.96474C85.0607 2.09161 81.6265 0.752782 78.0176 0.578155C70.2759 0.170693 63.1163 5.17669 58.6925 11.5215C54.2688 17.8662 52.0567 25.4334 49.7866 32.826C46.4687 43.42 42.5107 54.2467 34.5944 61.9885C28.0751 68.3915 18.8783 72.9319 16.0261 81.6051C12.2426 93.0722 21.7307 105.296 19.5188 117.171C18.1218 124.563 12.5337 130.268 8.10993 136.321C1.06678 145.984 -3.18232 159.663 3.45337 169.559C5.83989 173.168 9.39061 175.787 12.592 178.756C16.5502 182.423 19.9844 186.73 22.7201 191.387C25.5723 196.277 27.7259 201.923 26.5617 207.453C25.3976 212.983 19.8097 217.814 14.3382 216.359C19.7515 219.269 26.6199 219.269 32.0333 216.417C37.4466 213.506 41.2883 207.802 41.8704 201.69C42.1614 198.43 41.754 194.821 43.6748 192.202C46.7598 188.069 54.0359 188.942 56.8299 184.577C59.391 180.618 56.3643 175.612 55.142 171.014C54.1524 167.289 54.5014 163.33 54.9089 159.43C55.6074 152.911 56.539 146.333 57.7031 139.872C58.4598 135.681 59.391 131.315 61.9522 127.881C66.7834 121.362 75.9802 120.023 84.0711 120.721C88.0292 121.071 92.686 121.478 95.189 118.393C95.771 117.636 96.1782 116.763 96.3528 115.832C100.835 122.526 101.883 131.606 101.068 139.872C105.433 132.421 105.55 122.992 102.872 114.842C100.137 106.635 94.8396 99.5334 88.8442 93.3632C85.5845 89.9871 82.0337 86.8438 79.2397 83.002C76.4457 79.2184 74.4669 74.6199 74.758 69.905C74.9326 67.5184 75.6891 65.3065 76.7368 63.1528C77.4935 61.5811 80.5788 58.6125 80.637 56.9826C80.637 56.808 80.637 56.6915 80.5788 56.5751C80.6952 56.5169 80.8116 56.4588 80.928 56.4588C80.5787 59.8931 81.1024 63.502 82.2084 66.82C84.0128 72.1752 87.2724 76.89 90.8813 81.2557C86.05 73.8049 87.971 63.4438 93.559 56.5751C99.1469 49.7065 107.645 45.8647 116.202 43.6527C120.218 42.605 123.827 41.5573 126.679 39.5782C128.076 41.4991 129.939 43.3034 131.22 44.7004C140.708 54.7706 142.163 70.6035 136.342 82.9438C132.384 91.3841 125.224 99.1258 125.923 108.381C128.6 97.2631 141.988 92.2573 147.285 82.1289C152.349 72.4662 148.798 60.7662 146.412 50.0558Z" fill="#AC224F"/>
<path d="M229.826 283.359C231.165 283.184 232.562 282.893 233.551 282.02C234.541 281.147 235.007 279.867 235.356 278.644C237.568 271.193 239.489 260.192 241.351 250.762C243.039 242.206 243.156 234.056 245.542 225.674C249.966 209.958 251.712 203.322 251.829 191.797C251.829 191.156 251.829 190.458 251.538 189.876C251.072 189.003 250.082 188.653 249.151 188.362C244.378 186.791 239.431 185.685 234.483 184.579C223.132 182.017 211.724 179.514 200.373 176.953C195.426 175.847 189.779 174.916 185.763 177.943C182.212 180.621 181.223 185.394 180.524 189.759C178.371 202.449 176.217 215.138 174.122 227.828C173.074 234.173 171.968 240.517 170.92 246.862C170.105 251.752 166.554 261.123 167.719 265.838C168.941 270.67 172.201 272.94 176.974 273.638C182.562 274.453 188.033 276.025 193.504 277.48C203.749 280.274 218.942 284.756 229.826 283.359Z" fill="#A9204D"/>
<path d="M159.164 225.964C163.006 222.763 167.72 220.551 172.668 219.678C175.229 219.212 178.198 219.154 180.235 220.842C182.33 222.588 182.854 225.557 183.029 228.235C183.203 230.563 183.32 232.891 183.262 235.22C183.262 235.918 183.204 236.733 182.738 237.257C182.33 237.664 181.748 237.839 181.224 237.956C173.832 239.702 166.149 240.458 158.524 240.284C157.127 240.226 155.613 240.109 154.682 239.12C154.041 238.421 153.809 237.432 153.576 236.559C152.295 230.621 154.798 229.632 159.164 225.964Z" fill="#FFC3B1"/>
<path d="M217.829 239.412C215.908 233.358 215.442 226.431 215.908 220.145C216.024 218.922 214.453 218.515 213.696 219.213C208.807 223.579 204.557 228.527 200.774 233.824C199.493 233.94 198.795 235.221 198.969 236.385C198.969 236.385 198.969 236.385 198.969 236.443C198.737 236.792 199.028 237.2 199.435 237.258C199.668 237.549 199.959 237.782 200.425 237.898C205.489 239.179 210.611 240.576 215.792 241.565C216.956 241.74 218.236 240.75 217.829 239.412ZM213.347 223.171C213.347 228.003 213.696 232.66 214.278 237.491C210.436 236.268 206.478 235.221 202.578 234.115C206.013 230.331 209.563 226.664 213.347 223.171Z" fill="white"/>
</svg>
