<svg width="25" height="24" viewBox="0 0 25 24" fill="none" xmlns="http://www.w3.org/2000/svg">
<path d="M19.9214 20.9999H5.92139C5.65617 20.9999 5.40182 20.8946 5.21428 20.707C5.02674 20.5195 4.92139 20.2651 4.92139 19.9999V10.9999H1.92139L12.2484 1.61192C12.4325 1.4444 12.6725 1.35156 12.9214 1.35156C13.1703 1.35156 13.4103 1.4444 13.5944 1.61192L23.9214 10.9999H20.9214V19.9999C20.9214 20.2651 20.816 20.5195 20.6285 20.707C20.441 20.8946 20.1866 20.9999 19.9214 20.9999ZM13.9214 18.9999H18.9214V9.15692L12.9214 3.70292L6.92139 9.15692V18.9999H11.9214V12.9999H13.9214V18.9999Z" fill="#4D1C6B"/>
</svg>
