<svg width="504" height="567" viewBox="0 0 504 567" fill="none" xmlns="http://www.w3.org/2000/svg">
<path d="M1.37434 561.53C2.42145 562.106 3.93981 562.42 5.19634 562.577C9.8036 563.048 14.4108 563.362 19.0705 563.676C28.5468 564.252 38.0753 564.619 47.604 564.828C66.6613 565.247 85.7712 565.195 104.828 565.876C107.97 565.98 111.059 566.347 114.148 566.294C154.042 565.142 177.131 565.143 207.131 564.2C245.141 562.996 285.454 555.718 200.848 550.43C182.786 549.278 163.676 549.226 145.561 548.231C129.54 547.341 113.467 546.975 97.394 546.975C83.4151 546.975 69.4362 547.184 55.4573 547.341C40.8502 547.551 23.9394 544.671 10.4841 552.21C9.27994 552.891 8.12816 553.624 6.92399 554.2C5.24862 554.985 3.46853 555.457 2.00258 556.713C-0.876964 559.069 -0.248675 560.64 1.37434 561.53Z" fill="url(#paint0_linear_694_4552)"/>
<path opacity="0.56" d="M1.37434 561.53C2.42145 562.106 3.93981 562.42 5.19634 562.577C9.8036 563.048 14.4108 563.362 19.0705 563.676C28.5468 564.252 38.0753 564.619 47.604 564.828C66.6613 565.247 85.7712 565.195 104.828 565.876C107.97 565.98 111.059 566.347 114.148 566.294C154.042 565.142 177.131 565.143 207.131 564.2C245.141 562.996 285.454 555.718 200.848 550.43C182.786 549.278 163.676 549.226 145.561 548.231C129.54 547.341 113.467 546.975 97.394 546.975C83.4151 546.975 69.4362 547.184 55.4573 547.341C40.8502 547.551 23.9394 544.671 10.4841 552.21C9.27994 552.891 8.12816 553.624 6.92399 554.2C5.24862 554.985 3.46853 555.457 2.00258 556.713C-0.876964 559.069 -0.248675 560.64 1.37434 561.53Z" fill="url(#paint1_linear_694_4552)"/>
<path d="M46.7689 418.545C48.6537 381.215 44.6747 343.152 45.0412 305.56C43.7847 292.523 45.8266 279.277 50.9574 267.026C51.2715 266.24 51.638 265.507 52.2663 264.931C54.2558 263.099 57.6065 264.094 60.2243 265.036C85.4072 274.251 115.093 272.052 138.024 259.067C142.579 265.193 143.836 272.68 144.988 279.958C146.82 291.685 148.757 303.413 149.281 315.193V315.246C149.385 317.759 149.438 320.324 149.385 322.837C149.071 337.55 145.878 352 143.365 366.503C141.742 375.927 140.328 385.456 140.171 395.037C140.066 402.89 141.323 410.011 139.333 417.707C134.464 436.608 134.464 457.184 132.422 476.451C130.223 497.132 128.025 517.76 126.244 538.494C126.192 539.331 126.087 540.117 126.035 540.954C124.883 541.216 106.925 544.881 106.925 540.797C105.512 500.64 104.046 460.483 102.632 420.273C102.004 403.362 103.418 346.241 98.6008 330.167C96.6113 330.324 94.6217 330.534 92.6322 330.691C81.69 383.833 68.7582 476.975 57.816 530.116C56.8736 534.776 55.6693 539.855 52.2139 542.839C48.7584 545.876 42.2663 544.986 41.2192 540.326C44.3082 499.802 44.6747 459.226 46.7689 418.545Z" fill="#4D1C6B"/>
<path d="M70.5383 49.2243C70.5383 33.8839 83.9412 21.4231 100.433 21.4231C116.925 21.4231 130.328 33.8839 130.328 49.2243C130.328 51.7898 129.909 54.2505 129.229 56.6065C129.229 57.2348 129.176 57.8107 129.176 58.4914C129.281 64.0412 129.019 69.591 127.92 75.0884C125.825 85.7168 120.328 95.6121 109.91 101.685C106.454 103.675 102.475 105.246 98.2867 105.193C92.6847 105.141 87.6062 102.261 83.7319 98.7535C70.9572 86.9733 69.8054 69.3292 70.7478 52.6798C70.6431 51.4756 70.5383 50.3762 70.5383 49.2243Z" fill="#2C1204"/>
<path d="M113.994 101.215C112.58 103.1 111.167 104.985 109.072 106.241C106.612 107.759 103.47 108.178 100.434 108.231C96.7687 108.283 92.9468 107.812 89.9625 105.927C87.8683 104.566 82.6853 100.377 81.3764 98.3876C76.9262 91.6336 74.099 86.9739 71.743 79.4869C71.0101 77.1832 70.3818 74.8272 70.4866 72.4712C71.3766 72.1047 72.4236 72.6805 72.8424 73.4659C73.2613 74.2512 73.209 75.1413 73.2614 76.0314C73.4184 80.6387 75.7744 84.9844 78.1304 89.0682C80.2246 92.6808 85.5649 95.8745 88.8109 98.7017C92.0569 101.581 96.5593 103.571 101.114 103.309C101.69 103.257 102.318 103.204 102.842 102.943C103.941 102.367 104.413 101.162 104.727 100.063C105.041 98.9635 105.46 97.7593 106.507 97.131C107.554 96.5028 109.491 97.0787 109.334 98.2306C109.229 98.9636 108.392 99.4871 108.392 100.22C108.392 101.058 109.596 101.581 110.486 101.32C111.376 101.11 112.057 100.377 112.632 99.7489C114.046 98.1782 115.512 96.5551 116.926 94.9844C117.554 94.3038 118.235 93.7803 119.072 94.1468C118.025 96.5552 115.721 98.9635 113.994 101.215Z" fill="#550B23"/>
<path d="M106.345 541.373C114.041 540.797 121.842 541.111 129.434 542.263C135.297 546.137 141.737 549.383 148.543 551.792C150.533 552.525 152.575 553.205 154.041 554.566C155.507 555.928 156.083 558.284 154.721 559.697C153.517 560.954 151.423 561.111 149.59 561.111C135.35 561.268 121.109 560.168 107.078 557.917C106.24 557.76 105.35 557.603 104.722 557.079C104.251 556.661 103.989 556.032 103.832 555.456C102.418 550.692 103.361 545.456 106.345 541.373Z" fill="#550B23"/>
<path d="M40.5329 537.083C47.4438 537.816 54.25 539.229 60.742 541.428C65.1399 545.774 70.2185 549.596 75.7158 552.789C77.3388 553.732 79.014 554.622 80.0088 556.088C81.0036 557.554 81.1083 559.648 79.59 560.748C78.2811 561.69 76.3963 561.481 74.7733 561.219C62.1556 559.125 49.7998 555.983 37.9152 551.795C37.1822 551.533 36.4491 551.271 36.0303 550.695C35.6638 550.224 35.6115 549.7 35.5591 549.124C35.245 544.727 37.0775 540.224 40.5329 537.083Z" fill="#550B23"/>
<path d="M127.075 309.067C127.965 307.078 129.169 305.245 130.53 303.465C132.415 300.952 134.561 298.648 136.184 296.031C137.284 294.25 138.174 292.313 139.954 291.004C140.687 290.428 141.682 290.01 142.676 290.167C143.567 290.324 144.247 290.952 144.666 291.685C145.033 292.418 145.19 293.203 145.242 293.989L145.294 296.031C143.671 302.68 142.101 309.329 140.478 315.926C140.164 317.235 139.745 318.701 138.436 319.434C137.284 320.062 135.818 319.905 134.509 319.696C131.787 319.277 128.855 318.753 127.179 316.764C125.347 314.617 125.923 311.58 127.075 309.067Z" fill="#2C1204"/>
<path d="M116.923 290.537C118.547 295.72 120.588 300.799 123.101 305.459C127.761 313.94 138.442 317.239 148.494 315.878C148.599 316.611 148.337 317.815 148.337 318.286C148.127 320.799 147.656 323.312 146.923 325.773C146.4 327.448 145.719 329.176 144.148 330.171C142.368 331.323 139.96 331.27 137.761 331.061C133.939 330.747 130.065 330.171 126.504 328.967C121.635 327.291 117.342 324.464 113.52 321.323C110.641 318.967 107.971 316.349 106.138 313.26C104.358 310.223 103.52 306.82 102.945 303.417C102.212 299.176 101.95 294.83 102.63 290.589C107.081 290.642 112.002 290.642 116.923 290.537Z" fill="#4D1C6B"/>
<g filter="url(#filter0_d_694_4552)">
<path d="M123.098 305.459C120.532 300.799 118.491 295.773 116.92 290.537C117.025 290.537 117.129 290.537 117.286 290.537C118.595 295.197 120.48 299.699 122.993 303.94C124.564 306.61 126.449 309.228 128.962 311.323C131.894 313.731 135.716 315.249 139.642 315.72C141.632 315.982 143.674 315.93 145.663 315.668C146.292 315.563 147.757 314.987 148.281 315.406C148.386 315.511 148.491 315.72 148.491 315.93C138.491 317.186 127.758 313.94 123.098 305.459Z" fill="#2D0A42"/>
</g>
<g filter="url(#filter1_d_694_4552)">
<path d="M39.0717 265.822C39.1764 243.518 39.2287 221.266 39.3334 198.963C39.3857 180.167 44.1501 160.271 47.1867 141.737C48.8621 131.527 50.8515 127.967 55.9823 118.91C56.7153 117.601 56.82 116.763 63.6262 114.773C65.0921 114.355 68.6 112.522 70.3801 112.836C79.2281 114.197 88.2333 111.161 97.0813 112.522C106.453 113.936 122.159 109.642 129.437 115.454C139.28 123.255 139.96 141.894 141.531 154.041C143.625 170.428 148.651 187.078 149.541 203.622C150.327 218.125 150.746 232.628 151.06 247.131C151.217 254.67 154.253 281.005 146.766 286.031C142.369 288.963 130.641 290.22 118.547 290.534C118.128 290.534 117.657 290.586 117.238 290.586C117.133 290.586 117.029 290.586 116.872 290.586C111.95 290.691 107.029 290.691 102.579 290.586C95.9818 290.482 90.4322 290.168 87.3956 289.906C73.312 288.754 59.3855 286.136 45.5637 283.256C43.103 282.733 40.3806 282.052 39.0717 280.01C38.1293 278.544 39.0717 267.549 39.0717 265.822Z" fill="#AC224F"/>
</g>
<g filter="url(#filter2_d_694_4552)">
<path d="M140.484 286.868C139.751 290.586 139.489 295.507 142.369 296.711C145.353 297.915 148.39 293.884 150.222 290.428C154.253 282.837 158.285 275.245 162.368 267.706C170.222 252.941 178.232 237.81 181.845 221.318C183.311 214.616 183.782 206.815 180.012 202.313C177.656 199.485 174.096 198.543 170.641 197.915C153.52 194.826 154.568 214.355 151.636 229.538C147.919 248.648 144.201 267.758 140.484 286.868Z" fill="#AC224F"/>
<path d="M140.118 124.303C136.506 120.22 132.422 116.293 127.658 114.932C122.893 113.57 117.396 115.507 115.511 120.638C113.836 125.35 115.563 131.005 117.501 135.874C122.474 148.335 128.757 160.063 135.04 171.738C141.689 184.042 148.286 196.346 154.935 208.65C156.924 212.367 159.123 216.294 162.369 218.335C168.076 221.948 181.165 217.393 182.16 209.54C183.05 202.471 173.626 185.089 170.955 178.335C163.154 158.701 153.573 139.539 140.118 124.303Z" fill="#AC224F"/>
</g>
<path d="M100.691 116.084C100.22 115.508 99.7487 114.775 100.011 114.095C100.22 113.571 100.848 113.309 101.372 113.1C103.885 112.053 106.45 111.11 109.068 110.273C109.906 110.011 110.9 109.749 111.686 110.168C112.105 110.377 112.366 110.744 112.628 111.058C114.251 113.205 115.874 115.299 117.497 117.446C117.759 117.76 118.021 118.126 118.021 118.545C118.021 119.016 117.602 119.435 117.235 119.749C115.508 121.425 113.832 123.205 112.314 125.037C111.215 126.346 109.906 129.487 107.759 128.126C106.084 127.079 105.508 123.885 104.67 122.262C103.571 120.168 102.209 118.074 100.691 116.084Z" fill="#4D1C6B"/>
<path d="M91.895 124.199C91.5808 125.561 91.4238 126.922 90.9002 128.231C90.8479 128.388 90.7432 128.597 90.5861 128.702C90.0625 129.068 89.3819 128.493 89.0677 128.021C86.1358 123.938 82.6804 120.115 78.7537 116.712C77.9684 116.032 77.183 115.351 76.7118 114.513C76.2406 113.623 76.2407 112.524 76.9736 111.791C77.4448 111.32 78.1777 111.11 78.8584 110.901C80.3243 110.482 81.8426 110.063 83.3086 109.644C84.1986 109.382 85.141 109.121 86.0834 109.225C86.9211 109.33 87.7065 109.749 88.4395 110.168C90.2196 111.215 95.2456 113.361 95.4027 115.456C95.5074 116.66 93.9368 118.44 93.4656 119.592C92.7326 121.058 92.2615 122.629 91.895 124.199Z" fill="#4D1C6B"/>
<path d="M104.097 123.363C104.149 123.153 104.201 122.996 104.097 122.787C104.044 122.63 103.887 122.525 103.678 122.42C101.531 121.059 98.7565 120.483 96.1911 120.85C95.877 120.902 95.5629 120.955 95.3012 121.112C94.987 121.321 94.8299 121.583 94.7252 121.897C94.1493 123.206 94.254 124.724 94.7252 126.085C95.1964 127.447 96.0341 128.651 96.8717 129.855C96.9765 130.012 97.0813 130.169 97.2907 130.274C97.4477 130.379 97.6571 130.379 97.8665 130.379C101.427 130.169 103.364 125.928 104.097 123.363Z" fill="#4D1C6B"/>
<path d="M105.718 167.604C109.226 187.447 112.734 207.395 114.147 227.447C114.252 228.808 114.304 230.17 113.833 231.426C113.414 232.526 112.629 233.416 111.844 234.306C108.859 237.709 105.875 241.112 102.891 244.515C102.367 237.5 92.5769 233.782 90.2209 227.028C89.4356 224.724 89.5403 222.264 89.6973 219.855C90.7444 202.054 91.7916 184.253 92.8387 166.452C93.4146 156.766 91.7915 140.012 97.7077 131.74C101.739 132.839 101.687 144.462 102.315 147.918C103.414 154.515 104.566 161.059 105.718 167.604Z" fill="#4D1C6B"/>
<path d="M17.4989 204.62C10.9021 224.62 5.9284 245.039 2.63002 265.667C2.31589 267.605 2.05409 269.751 3.1012 271.479C4.46244 273.626 7.39442 274.463 10.0645 275.144C25.9282 279.071 41.7919 282.997 57.7079 286.924C63.4146 288.338 69.226 289.751 75.1421 290.013C76.1892 290.065 77.3411 290.066 78.2835 289.542C79.3306 288.966 79.8542 287.919 80.273 286.924C85.3515 275.877 89.854 264.62 93.676 253.207C95.8225 246.819 97.7597 240.379 99.5921 233.887C101.634 226.505 99.9585 222.84 92.0005 221.322C83.7284 219.699 75.6133 216.976 67.4459 214.934C63.2575 213.887 17.9701 203.206 17.4989 204.62Z" fill="#2D0A42"/>
<path d="M44.929 240.744C44.8242 240.639 44.7195 240.535 44.6147 240.43C44.8243 240.482 44.929 240.587 44.929 240.744Z" fill="#D36488"/>
<path d="M42.4754 249.647C46.245 250.223 49.8575 251.166 53.47 252.422C54.1506 252.684 55.0929 252.003 54.9882 251.27C54.4647 246.035 53.9412 240.851 53.4176 235.616C53.3653 235.145 53.1035 234.83 52.737 234.621C52.2134 233.731 50.7474 233.574 50.538 234.83C50.1715 237.082 47.5015 239.49 46.1926 241.323C44.6743 243.469 43.2084 245.721 41.6901 247.92C41.376 248.443 41.7424 249.543 42.4754 249.647ZM51.3234 238.705C51.6899 242.318 52.0564 245.93 52.4229 249.543C49.9098 248.757 47.3967 248.129 44.8313 247.658C46.1925 245.616 47.6062 243.574 49.0198 241.584C49.7004 240.642 50.5905 239.7 51.3234 238.705Z" fill="#D36488"/>
<path d="M27.5537 278.806C27.8155 276.607 28.7578 274.565 29.4384 272.471C29.7002 271.633 29.962 270.743 30.5903 270.01C31.4803 269.015 33.0511 268.492 34.4647 268.806C35.8783 269.12 37.03 270.167 37.2918 271.424L37.6059 273.518C36.9776 275.141 37.2395 276.921 38.0248 278.492C38.8102 280.063 40.119 281.372 41.585 282.419C42.4226 283.047 43.4174 283.832 43.1033 284.722C42.8939 285.403 42.0562 285.77 41.3232 285.979C39.6479 286.45 37.9201 286.764 36.1923 286.764C33.784 286.817 31.1662 286.345 29.4908 284.827C27.7631 283.361 27.2919 281.005 27.5537 278.806Z" fill="#2C1204"/>
<g filter="url(#filter3_d_694_4552)">
<path d="M46.5565 232.105C54.5669 200.063 63.4148 168.178 72.9435 136.502C74.043 132.785 75.1949 129.015 74.8284 125.193C74.4619 121.371 72.3153 117.497 68.3886 115.821C63.7813 113.884 58.0223 115.717 54.5145 119.015C51.0067 122.314 49.2266 126.712 47.6559 131.057C33.2058 170.482 27.342 212.367 30.4834 253.728C30.7975 257.969 31.2163 262.367 29.8027 266.451C29.0697 268.598 27.918 271.215 29.6981 272.838C31.7923 274.776 36.6612 274.671 38.2843 272.734C40.3785 270.168 39.855 262.21 40.4833 258.964C42.1586 250.011 44.3576 241.058 46.5565 232.105Z" fill="#AC224F"/>
</g>
<path d="M123.831 56.0816C119.015 52.8878 111.371 52.7831 107.078 56.9193C106.973 56.9717 106.921 57.0763 106.921 57.181C104.251 57.1287 101.476 57.181 98.8056 56.8669C97.0779 52.626 92.3136 49.7464 87.8634 50.5841C81.5284 50.27 75.0365 53.202 72.2617 59.3801C68.8586 66.9718 79.382 72.4168 85.6646 72.6786C92.942 72.9928 100.533 66.7624 99.3816 58.9612C99.3816 58.8565 99.3292 58.8041 99.3292 58.6994C101.999 58.5947 104.722 58.8041 107.392 58.9088C107.287 67.4429 121.266 76.2912 126.973 68.2283C129.957 64.0921 127.706 58.6471 123.831 56.0816ZM83.8321 70.3749C77.4448 69.1707 70.5862 63.6209 76.0835 57.2858C78.2824 54.7726 81.319 53.1496 84.565 52.5737C84.6174 53.202 84.8793 52.9402 85.6646 52.5737C91.319 50.0606 98.6486 55.7674 97.2351 62.2073C95.8738 68.2807 89.5912 71.4744 83.8321 70.3749ZM125.455 66.6576C121.266 73.5687 106.031 64.6157 109.486 57.757V57.7046C112.627 56.291 115.716 55.4533 119.277 56.3434C123.622 57.4952 128.282 61.9455 125.455 66.6576Z" fill="#AC224F"/>
<path d="M342.413 60.4277C343.565 64.1974 344.717 67.9671 345.45 71.8938C345.764 73.5169 348.016 72.9932 347.911 71.4225C347.597 67.4958 347.387 63.5167 346.759 59.6423C346.288 56.8151 341.576 57.8099 342.413 60.4277Z" fill="#AC224F"/>
<path d="M324.511 72.3129C326.082 73.8312 327.914 74.9307 329.746 76.0825C331.369 77.0773 332.94 78.2292 334.825 78.5957C335.715 78.7528 336.395 77.6009 335.977 76.8679C335.191 75.402 333.83 74.3548 332.574 73.3077C330.898 71.894 329.223 70.271 327.233 69.2239C325.349 68.2291 322.731 70.5327 324.511 72.3129Z" fill="#AC224F"/>
<path d="M266.718 553.729C267.765 554.305 269.178 554.567 270.33 554.672C274.728 555.038 279.126 555.247 283.524 555.457C292.581 555.823 301.639 555.928 310.696 555.928C328.811 555.928 346.978 555.405 365.093 555.666C368.077 555.719 371.009 556.033 373.994 555.823C411.951 553.781 433.888 553.206 462.37 551.583C498.547 549.488 536.714 541.268 456.192 537.97C438.967 537.237 420.852 537.603 403.575 537.027C388.287 536.504 372.999 536.504 357.711 536.87C344.413 537.185 331.115 537.708 317.817 538.232C303.942 538.755 287.764 536.294 275.147 544.148C274.047 544.828 272.948 545.614 271.796 546.242C270.226 547.08 268.498 547.603 267.137 548.86C264.519 551.321 265.147 552.891 266.718 553.729Z" fill="url(#paint2_linear_694_4552)"/>
<path opacity="0.56" d="M266.717 553.729C267.764 554.305 269.178 554.567 270.33 554.672C274.728 555.038 279.125 555.248 283.523 555.457C292.581 555.824 301.638 555.928 310.696 555.928C328.811 555.928 346.978 555.405 365.093 555.667C368.077 555.719 371.009 556.033 373.993 555.824C411.951 553.782 433.888 553.206 462.369 551.583C498.547 549.489 536.714 541.269 456.191 537.97C438.966 537.237 420.851 537.604 403.574 537.028C388.286 536.504 372.999 536.504 357.711 536.871C344.413 537.185 331.114 537.708 317.816 538.232C303.942 538.756 287.764 536.295 275.146 544.148C274.047 544.829 272.948 545.614 271.796 546.242C270.225 547.08 268.497 547.604 267.136 548.86C264.518 551.321 265.146 552.892 266.717 553.729Z" fill="url(#paint3_linear_694_4552)"/>
<path d="M296.608 99.6409C296.608 99.6409 273.52 104.667 243.52 200.636C243.52 200.636 238.599 234.406 277.499 283.255V255.872C277.499 245.558 271.426 232.993 269.488 222.731C266.19 205.244 272.682 196.5 280.326 181.422C285.823 170.584 291.321 159.694 296.608 148.751C296.608 148.804 307.917 117.337 296.608 99.6409Z" fill="#3A1154"/>
<path d="M189.438 97.6537C185.773 99.2768 185.407 103.779 188.705 106.188C210.59 122.209 229.228 136.711 245.092 149.958C247.029 151.581 249.333 153.256 251.95 152.523C253.626 152.052 255.04 150.691 256.296 149.382L272.893 132.575C274.463 130.952 274.62 128.334 273.207 126.816C259.647 112.68 243.103 98.0726 222.946 82.9416C221.166 81.6327 218.81 81.4756 217.082 82.6274C208.81 88.1248 199.543 93.1511 189.438 97.6537Z" fill="#AC224F"/>
<path d="M202.733 101.58C200.324 102.732 200.062 105.768 202.209 107.391C216.816 118.543 229.748 129.015 241.214 138.91C242.627 140.166 244.355 141.475 246.292 141.004C247.549 140.69 248.596 139.748 249.538 138.805L262.051 126.711C263.255 125.559 263.36 123.569 262.261 122.47C251.894 111.999 239.695 101.528 225.402 91.1086C224.198 90.2185 222.575 90.1662 221.371 91.0039C215.664 94.8782 209.434 98.4385 202.733 101.58Z" fill="white"/>
<path d="M222.888 95.2977C222.47 95.0359 221.998 94.7217 221.475 94.7741C221.004 94.7741 220.585 95.0359 220.218 95.2977C219.381 95.8212 218.543 96.3971 217.758 97.0254C216.972 97.706 216.239 98.439 215.402 99.0673C214.773 99.5909 214.093 100.01 213.412 100.429C211.894 101.423 210.376 102.366 208.805 103.361C207.863 103.937 207.13 104.251 206.501 104.984C206.292 105.245 206.082 105.56 205.873 105.978C206.92 107.078 208.072 108.073 209.276 109.015C209.957 109.539 210.847 110.795 211.789 110.586C212.365 110.481 212.941 109.748 213.36 109.329C213.465 109.225 213.569 109.172 213.674 109.067C213.883 109.958 214.093 110.848 214.302 111.685C214.616 110.586 214.773 109.434 214.878 108.282C214.878 108.177 214.878 108.02 214.931 107.916C215.088 107.759 215.297 107.601 215.454 107.444C217.443 105.717 219.433 103.936 221.37 102.209C222.156 101.528 222.836 100.952 223.726 100.429C224.04 100.272 226.291 98.0202 226.344 98.0202C225.244 97.1301 224.145 96.083 222.888 95.2977Z" fill="#582C73"/>
<path d="M243.628 110.274C243.052 110.221 242.476 110.064 241.953 109.907C242.581 109.174 243.262 108.494 243.89 107.708C243 107.132 242.057 106.504 241.167 105.928C241.063 105.824 240.905 105.771 240.748 105.771C240.434 105.771 240.173 106.033 239.963 106.295C238.34 108.127 236.037 109.646 234.414 111.478C233.105 112.996 232.738 113.415 230.854 115.667C231.586 116.19 233.367 117.865 234.1 118.389C234.309 117.708 234.885 117.185 235.408 116.714C237.293 115.038 239.073 113.206 240.801 111.321C241.22 111.321 241.638 111.269 242.057 111.164C242.633 110.954 243.157 110.693 243.628 110.274Z" fill="#7A0028"/>
<path d="M227.184 106.87C226.608 106.399 226.032 105.98 225.457 105.509C225.352 105.457 225.299 105.352 225.195 105.352C225.038 105.352 224.881 105.457 224.776 105.561C221.792 107.917 218.703 110.745 215.771 113.258C216.242 113.677 217.918 114.986 218.389 115.352C218.493 115.457 218.65 115.562 218.807 115.562C219.069 115.562 219.279 115.352 219.436 115.143C219.541 114.986 219.645 114.881 219.802 114.776C220.012 115.561 220.169 116.347 220.378 117.132C220.692 116.033 220.849 114.933 220.954 113.781C220.954 113.677 220.954 113.572 221.006 113.415C222.996 111.111 225.038 108.912 227.184 106.87Z" fill="#582C73"/>
<path d="M240.794 122.311C240.114 121.735 239.433 121.159 238.753 120.531C238.648 120.479 238.543 120.374 238.438 120.374C238.333 120.374 238.229 120.479 238.176 120.531C236.763 121.735 235.349 122.939 233.936 124.196C232.889 125.086 231.842 126.028 231.161 127.285C231.894 128.018 232.627 128.646 233.412 129.222C233.517 129.327 233.622 129.379 233.779 129.379C233.936 129.379 234.093 129.327 234.197 129.222C234.564 129.013 234.878 128.699 235.192 128.385C235.454 128.751 235.663 129.065 235.925 129.432C235.978 129.536 236.082 129.641 236.187 129.589C236.239 128.803 236.292 128.018 236.344 127.233C237.915 125.714 239.433 124.091 240.794 122.311Z" fill="#582C73"/>
<path d="M255.251 121.107C255.879 120.269 256.508 119.379 257.084 118.541C256.037 117.861 254.937 117.233 253.89 116.552C253.785 116.5 253.68 116.447 253.576 116.447C253.471 116.447 253.314 116.552 253.209 116.657C249.597 119.746 247.136 124.353 243.733 127.809C243.628 127.913 243.523 128.018 243.523 128.175C243.523 128.28 243.576 128.385 243.628 128.437C244.466 129.746 245.408 130.95 246.403 132.05C248.34 130.008 250.225 127.913 252.057 125.767C252.738 124.981 253.471 124.091 253.785 123.044C254.571 123.149 255.304 123.149 256.089 122.992C256.194 122.625 255.879 122.364 255.565 122.207C255.251 122.049 254.937 121.84 255.042 121.421C255.094 121.316 255.146 121.212 255.251 121.107Z" fill="#7A0028"/>
<path d="M389.7 407.916C387.606 369.905 392.004 331.109 391.585 292.889C392.946 279.643 390.748 266.135 385.093 253.674C384.727 252.889 384.36 252.103 383.68 251.527C381.533 249.695 377.816 250.69 374.936 251.632C347.397 261.004 314.937 258.805 289.859 245.559C284.885 251.789 283.472 259.433 282.267 266.868C280.278 278.805 278.131 290.742 277.608 302.732V302.784C277.503 305.35 277.451 307.968 277.503 310.533C277.869 325.507 281.325 340.219 284.1 354.984C285.88 364.617 287.45 374.303 287.607 384.042C287.712 392 286.351 399.33 288.55 407.131C293.89 426.346 293.89 447.34 296.141 466.974C298.55 488.021 300.906 509.069 302.895 530.168C302.948 531.006 303.052 531.844 303.105 532.681C304.414 532.943 323.995 536.713 323.995 532.524C325.565 491.634 327.136 450.691 328.707 409.801C329.387 392.576 327.869 334.408 333.157 318.02C335.356 318.177 337.502 318.387 339.701 318.544C351.638 372.68 365.827 467.498 377.816 521.634C378.863 526.399 380.172 531.53 383.941 534.619C387.763 537.708 394.831 536.818 395.983 532.053C392.371 490.639 391.952 449.278 389.7 407.916Z" fill="#550B23"/>
<path d="M354.723 37.7583C354.723 23.6744 342.472 12.2607 327.341 12.2607C312.21 12.2607 299.959 23.6744 299.959 37.7583C299.959 40.1144 300.325 42.3657 300.954 44.5123C300.954 45.0882 301.006 45.6118 301.006 46.24C300.901 51.3186 301.163 56.4496 302.158 61.4235C304.095 71.1618 309.121 80.2194 318.65 85.7692C321.844 87.6017 325.456 89.0153 329.278 89.0153C334.409 88.9629 339.069 86.3452 342.629 83.0991C354.356 72.3136 355.351 56.1354 354.513 40.8997C354.618 39.8525 354.723 38.8578 354.723 37.7583Z" fill="#57331F"/>
<path d="M325.348 532.685C319.693 532.267 313.934 532.476 308.332 533.314C303.987 536.193 299.275 538.549 294.249 540.33C292.783 540.853 291.264 541.377 290.165 542.371C289.065 543.366 288.647 545.094 289.641 546.141C290.532 547.084 292.05 547.188 293.463 547.188C303.987 547.293 314.458 546.508 324.824 544.832C325.452 544.727 326.081 544.623 326.552 544.204C326.918 543.89 327.075 543.471 327.232 543C328.227 539.597 327.547 535.722 325.348 532.685Z" fill="#2D0A42"/>
<path d="M392.89 535.457C387.811 535.981 382.785 537.08 377.968 538.651C374.722 541.844 371.005 544.672 366.922 547.028C365.717 547.708 364.513 548.389 363.728 549.436C362.995 550.483 362.943 552.054 364.042 552.839C364.984 553.52 366.398 553.363 367.602 553.153C376.869 551.635 385.979 549.279 394.775 546.19C395.298 545.981 395.874 545.771 396.188 545.405C396.45 545.091 396.502 544.672 396.555 544.253C396.816 541.112 395.455 537.813 392.89 535.457Z" fill="#2D0A42"/>
<path d="M392.735 276.4C392.63 250.222 392.526 224.044 392.473 197.865C392.369 175.823 387.395 152.42 384.096 130.587C382.316 118.598 380.17 114.409 374.725 103.729C373.94 102.21 373.835 101.163 366.61 98.8595C365.039 98.3359 361.322 96.2416 359.385 96.5558C349.961 98.1265 340.38 94.5663 331.008 96.1893C321.061 97.8647 304.359 92.8385 296.611 99.6448C286.14 108.86 285.407 130.692 283.731 144.985C281.48 164.253 276.14 183.834 275.197 203.206C274.36 220.222 273.941 237.29 273.627 254.306C273.47 263.206 270.224 294.097 278.182 300.013C282.841 303.468 295.354 304.882 308.181 305.353C308.652 305.353 309.124 305.406 309.595 305.406C309.7 305.406 309.857 305.406 309.961 305.406C315.197 305.563 320.432 305.51 325.197 305.406C332.212 305.248 338.129 304.934 341.322 304.62C356.296 303.259 371.112 300.222 385.824 296.819C388.442 296.243 391.321 295.405 392.735 293.049C393.73 291.374 392.735 278.442 392.735 276.4Z" fill="#4D1C6B"/>
<path d="M342.154 119.956C342.73 115.872 345.4 112.626 348.908 110.532C349.693 106.553 350.426 102.574 351.211 98.5947C351.316 98.4376 351.421 98.3329 351.473 98.1758C351.735 97.7046 351.84 97.1811 351.787 96.6575C350.845 96.4481 349.903 96.291 349.013 96.1339C337.233 98.49 325.138 98.5424 313.149 95.4534C313.306 96.3958 313.359 97.3905 313.254 98.3853C306.867 167.129 304.249 236.135 306.814 305.141C308.542 304.565 310.427 304.303 312.573 304.303C319.118 304.408 325.924 305.246 332.73 305.821C316.604 245.14 333.568 181.475 342.154 119.956ZM347.494 102.469C347.808 102.469 348.07 102.417 348.384 102.417C347.913 103.621 347.442 104.825 347.023 106.029C347.128 104.877 347.337 103.673 347.494 102.469Z" fill="#E8E8E8"/>
<path d="M363.096 25.9254C360.845 16.4488 354.038 9.06654 345.4 4.77331C331.892 -1.92831 309.065 -2.45186 302.154 13.6216C288.647 18.3336 295.61 39.6427 309.065 34.7735C309.222 34.7212 309.379 34.6688 309.536 34.6165C316.499 38.0196 326.238 39.1715 334.824 39.2762C338.018 47.1296 344.562 53.8313 354.038 50.0093C363.148 46.292 365.138 34.5118 363.096 25.9254Z" fill="#550B23"/>
<path d="M240.591 139.172C238.602 138.124 236.455 137.444 234.204 137.077C232.057 136.711 229.335 137.025 228.392 139.067C227.502 141.109 229.073 143.255 230.643 144.721C237.973 151.475 247.554 154.983 256.926 158.386C255.826 160.219 257.397 159.538 259.386 150.69C255.355 149.748 252.999 145.664 249.91 142.941C246.612 140.062 243.68 136.083 239.335 135.35C239.177 135.926 238.968 136.449 238.811 137.025C239.439 137.706 240.015 138.439 240.591 139.172Z" fill="#57331F"/>
<path d="M260.697 151.004C256.98 149.171 251.954 147.496 249.964 150.009C247.923 152.627 251.378 156.763 254.519 159.59C261.378 165.821 268.289 171.999 275.147 178.229C288.55 190.323 302.268 202.68 318.55 211.004C325.199 214.407 333.157 217.182 338.812 214.722C342.32 213.203 344.204 209.957 345.723 206.711C353.314 190.69 332.634 186.03 317.608 178.7C298.655 169.486 279.65 160.219 260.697 151.004Z" fill="#4D1C6B"/>
<path d="M378.492 117.652C378.545 112.626 378.178 107.338 375.718 103.097C366.974 88.123 346.503 112.05 342.001 120.846C332.838 138.752 325.613 177.443 320.692 195.715C319.697 199.38 318.702 203.255 319.697 206.815C321.425 213.098 333.624 219.957 339.435 216.03C344.618 212.522 362.995 177.6 365.456 171.736C372.576 154.563 378.178 136.343 378.492 117.652Z" fill="#4D1C6B"/>
<path d="M322.782 78.6475C323.515 78.6475 324.3 78.6475 324.929 78.2286C325.557 77.8621 325.976 76.972 325.557 76.3438C323.306 76.2914 321.107 76.2914 318.856 76.239C318.175 76.239 317.39 76.239 316.814 76.6579C313.463 78.9616 322.102 78.6475 322.782 78.6475Z" fill="#400E08"/>
<defs>
<filter id="filter0_d_694_4552" x="112.92" y="290.537" width="39.5708" height="33.6538" filterUnits="userSpaceOnUse" color-interpolation-filters="sRGB">
<feFlood flood-opacity="0" result="BackgroundImageFix"/>
<feColorMatrix in="SourceAlpha" type="matrix" values="0 0 0 0 0 0 0 0 0 0 0 0 0 0 0 0 0 0 127 0" result="hardAlpha"/>
<feOffset dy="4"/>
<feGaussianBlur stdDeviation="2"/>
<feComposite in2="hardAlpha" operator="out"/>
<feColorMatrix type="matrix" values="0 0 0 0 0.174892 0 0 0 0 0.03875 0 0 0 0 0.258333 0 0 0 0.2 0"/>
<feBlend mode="normal" in2="BackgroundImageFix" result="effect1_dropShadow_694_4552"/>
<feBlend mode="normal" in="SourceGraphic" in2="effect1_dropShadow_694_4552" result="shape"/>
</filter>
<filter id="filter1_d_694_4552" x="34.6528" y="112.162" width="121.147" height="186.503" filterUnits="userSpaceOnUse" color-interpolation-filters="sRGB">
<feFlood flood-opacity="0" result="BackgroundImageFix"/>
<feColorMatrix in="SourceAlpha" type="matrix" values="0 0 0 0 0 0 0 0 0 0 0 0 0 0 0 0 0 0 127 0" result="hardAlpha"/>
<feOffset dy="4"/>
<feGaussianBlur stdDeviation="2"/>
<feComposite in2="hardAlpha" operator="out"/>
<feColorMatrix type="matrix" values="0 0 0 0 0.174892 0 0 0 0 0.03875 0 0 0 0 0.258333 0 0 0 0.2 0"/>
<feBlend mode="normal" in2="BackgroundImageFix" result="effect1_dropShadow_694_4552"/>
<feBlend mode="normal" in="SourceGraphic" in2="effect1_dropShadow_694_4552" result="shape"/>
</filter>
<filter id="filter2_d_694_4552" x="110.834" y="114.509" width="76.0918" height="190.419" filterUnits="userSpaceOnUse" color-interpolation-filters="sRGB">
<feFlood flood-opacity="0" result="BackgroundImageFix"/>
<feColorMatrix in="SourceAlpha" type="matrix" values="0 0 0 0 0 0 0 0 0 0 0 0 0 0 0 0 0 0 127 0" result="hardAlpha"/>
<feOffset dy="4"/>
<feGaussianBlur stdDeviation="2"/>
<feComposite in2="hardAlpha" operator="out"/>
<feColorMatrix type="matrix" values="0 0 0 0 0.479167 0 0 0 0 0 0 0 0 0 0.15625 0 0 0 0.2 0"/>
<feBlend mode="normal" in2="BackgroundImageFix" result="effect1_dropShadow_694_4552"/>
<feBlend mode="normal" in="SourceGraphic" in2="effect1_dropShadow_694_4552" result="shape"/>
</filter>
<filter id="filter3_d_694_4552" x="24.7544" y="115.03" width="54.1436" height="167.21" filterUnits="userSpaceOnUse" color-interpolation-filters="sRGB">
<feFlood flood-opacity="0" result="BackgroundImageFix"/>
<feColorMatrix in="SourceAlpha" type="matrix" values="0 0 0 0 0 0 0 0 0 0 0 0 0 0 0 0 0 0 127 0" result="hardAlpha"/>
<feOffset dy="4"/>
<feGaussianBlur stdDeviation="2"/>
<feComposite in2="hardAlpha" operator="out"/>
<feColorMatrix type="matrix" values="0 0 0 0 0.333333 0 0 0 0 0.0416667 0 0 0 0 0.136775 0 0 0 0.2 0"/>
<feBlend mode="normal" in2="BackgroundImageFix" result="effect1_dropShadow_694_4552"/>
<feBlend mode="normal" in="SourceGraphic" in2="effect1_dropShadow_694_4552" result="shape"/>
</filter>
<linearGradient id="paint0_linear_694_4552" x1="1.08621" y1="547.283" x2="249.775" y2="569.378" gradientUnits="userSpaceOnUse">
<stop stop-color="#4D4D4D"/>
<stop offset="1"/>
</linearGradient>
<linearGradient id="paint1_linear_694_4552" x1="1.08621" y1="547.283" x2="249.775" y2="569.378" gradientUnits="userSpaceOnUse">
<stop stop-color="#4D1C6B"/>
<stop offset="1" stop-color="#D36488"/>
</linearGradient>
<linearGradient id="paint2_linear_694_4552" x1="266.228" y1="539.493" x2="503.098" y2="555.852" gradientUnits="userSpaceOnUse">
<stop stop-color="#4D4D4D"/>
<stop offset="1"/>
</linearGradient>
<linearGradient id="paint3_linear_694_4552" x1="266.228" y1="539.493" x2="503.098" y2="555.852" gradientUnits="userSpaceOnUse">
<stop stop-color="#D36488"/>
<stop offset="1" stop-color="#B44FF2"/>
</linearGradient>
</defs>
</svg>
