<svg width="362" height="507" viewBox="0 0 362 507" fill="none" xmlns="http://www.w3.org/2000/svg">
<g filter="url(#filter0_d_650_1522)">
<path d="M76.3642 477.923C68.362 478.728 60.275 479.702 52.9078 482.835C49.3513 484.359 45.456 487.831 47.0649 491.345C47.6577 492.7 49.0125 493.589 50.3674 494.224C53.924 495.833 57.9463 495.918 61.8416 495.96C84.1548 496.214 106.468 496.468 128.781 496.723C186.575 497.358 244.369 497.993 302.163 498.67C313.807 498.797 326.594 498.543 335.316 490.88C334.342 488.763 331.759 488.043 329.515 487.577C295.22 480.675 259.104 489.101 225.062 481.141C229.381 479.786 233.7 478.474 238.018 477.119C230.228 472.461 220.828 471.53 211.768 470.979C194.451 469.879 177.133 469.625 159.816 469.371C152.576 469.243 144.997 469.074 138.011 471.318C132.888 472.97 128.95 474.494 123.404 474.748C107.611 475.425 91.9877 476.357 76.3642 477.923Z" fill="#582C73"/>
</g>
<g opacity="0.69">
<g opacity="0.69">
<g opacity="0.69">
<path opacity="0.69" d="M356.693 6.02324C356.693 6.02324 356.693 13.1489 356.619 19.4622C355.991 61.4035 356.914 103.382 359.314 145.434C360.015 157.58 360.828 169.764 361.788 181.948C362.304 188.409 361.16 211.225 361.16 211.225C353.628 215.508 324.647 211.668 315.011 211.595C299.32 211.521 283.777 211.41 268.381 211.336C193.509 210.93 121.59 210.524 52.4398 210.118C41.1794 210.044 29.9559 210.007 18.8432 209.933C14.9297 209.896 7.61965 210.893 4.99838 208.161C1.45411 204.469 1.23261 181.542 1.23261 176.927C1.08493 127.527 4.4815 84.8478 2.22942 35.6333C1.71255 24.2988 -0.318013 12.2995 0.937247 1.03888C8.94876 -0.401003 18.8801 0.891391 27.187 1.00215C88.0301 1.88824 151.052 2.77425 216.362 3.69725C244.384 4.10337 272.812 4.50956 301.72 4.91568C315.749 5.10028 330.48 4.50949 344.62 5.54326C349.013 5.91246 354.847 5.02639 356.693 6.02324Z" fill="#DE0048" fill-opacity="0.54"/>
</g>
<g opacity="0.69">
<g opacity="0.69">
<g opacity="0.69">
<path opacity="0.69" d="M228.733 7.64945C228.733 7.64945 228.806 14.3689 228.769 20.313C228.696 60.0392 229.656 100.061 231.538 140.378C232.092 152.081 232.72 163.859 233.458 175.636C233.827 181.876 233.311 204.028 233.311 204.028C228.474 208.163 209.645 204.249 203.443 204.139C193.327 203.954 183.322 203.806 173.427 203.622C125.654 202.81 80.1688 202.071 36.8624 201.333C29.8477 201.222 22.8699 201.111 15.966 200.963C13.5293 200.927 8.9882 201.813 7.40067 199.191C5.22242 195.647 5.29627 173.975 5.33319 169.618C5.66546 123.136 8.10214 83.225 7.14223 37.5547C6.92072 27.1063 5.77622 16.0304 6.62536 5.61888C11.5356 4.25284 17.5904 5.32353 22.6484 5.39737C60.0477 5.76657 99.0716 6.13573 139.831 6.50493C157.441 6.68953 175.384 6.83727 193.659 7.02187C202.557 7.09571 211.934 6.43095 220.943 7.28011C223.859 7.61239 227.588 6.68952 228.733 7.64945Z" fill="#DE0048" fill-opacity="0.54"/>
</g>
<g opacity="0.69">
<path opacity="0.69" d="M17.3333 37.7389C30.1074 53.2085 43.3615 68.0135 57.7601 81.8955C63.9994 87.9135 70.4234 93.7469 76.9212 99.4695C77.1058 99.3588 77.3273 99.2479 77.6227 99.1741C104.574 93.673 131.562 88.2458 158.476 82.8185C163.94 81.7109 170.217 81.3786 175.016 78.1665C181.477 73.8469 178.523 63.6569 175.57 57.8604C169.035 44.9753 159.584 33.3823 150.649 22.4909C150.132 21.8632 150.908 20.9772 151.498 21.5679C161.651 32.0901 171.62 44.3107 178.745 57.565C181.44 62.5862 182.658 68.1612 181.625 73.773C180.591 79.4956 176.087 82.597 171.361 84.2584C164.716 86.5844 157.406 87.4336 150.539 88.9104C142.564 90.6087 134.626 92.3071 126.652 94.0054C111.625 97.2175 96.5624 100.355 81.4623 103.494C88.6247 109.659 95.8609 115.714 103.208 121.659C118.788 134.322 134.663 146.653 150.502 159.132C165.122 170.651 181.255 182.503 190.448 200.188C191.076 201.406 189.636 202.624 188.75 201.627C175.496 186.712 160.728 174.676 145.259 163.009C129.199 150.936 113.213 138.863 97.5222 126.347C66.8053 101.795 35.9775 75.3976 11.6846 43.6832C8.47257 39.4374 13.8628 33.5669 17.3333 37.7389Z" fill="#DE0048" fill-opacity="0.54"/>
</g>
<g opacity="0.69">
<path opacity="0.69" d="M12.8298 127.198C19.9183 125.758 27.376 125.685 34.5753 125.278C42.1069 124.872 49.6384 124.725 57.2069 124.872C64.6646 125.02 72.1592 125.648 79.58 124.946C86.0409 124.355 92.1327 121.328 98.7043 122.989C99.6642 123.248 99.4427 124.946 98.4828 124.872C91.6897 124.355 85.1918 127.715 78.5463 128.675C71.4947 129.672 64.2954 129.524 57.17 129.819C50.1184 130.115 43.0668 130.484 36.0152 130.927C28.5205 131.407 20.952 132.662 13.4205 132.736C10.6146 132.736 9.98697 127.789 12.8298 127.198Z" fill="#DE0048" fill-opacity="0.54"/>
</g>
<g opacity="0.69">
<path opacity="0.69" d="M59.9005 154.962C62.9648 154.261 65.9922 153.264 69.0934 152.969C78.471 152.12 87.8116 158.064 93.4233 166.555C99.072 175.084 101.361 185.828 101.656 196.276C92.9803 196.83 84.3411 197.347 75.6651 197.9C60.7127 198.823 45.5388 199.746 30.8449 196.276C25.307 194.947 19.6583 192.879 15.5972 188.486C8.10256 180.327 8.32406 167.22 9.06245 155.775C17.9231 155.996 26.7469 156.218 35.6075 156.402C43.7298 156.587 51.9628 156.772 59.9005 154.962Z" fill="#DE0048" fill-opacity="0.54"/>
</g>
<g opacity="0.69">
<path opacity="0.69" d="M95.2308 11.5266C102.689 20.0182 110.552 28.0667 118.785 35.7092C123.327 39.955 128.052 43.9792 132.815 47.8927C135.03 49.7018 137.208 51.6588 139.829 52.6925C142.931 53.9478 146.881 51.5848 149.724 50.4402C172.171 41.5794 194.729 33.1247 217.176 24.5962C217.803 24.3747 218.062 25.4086 217.471 25.667C193.88 35.5985 170.325 45.8622 146.438 55.3137C141.565 57.2336 137.725 55.8306 133.59 52.5817C128.901 48.8897 124.36 44.9761 119.893 40.9887C110.442 32.534 101.507 23.4518 93.0895 13.8525C91.6127 12.3019 93.8279 9.939 95.2308 11.5266Z" fill="#DE0048" fill-opacity="0.54"/>
</g>
<g opacity="0.69">
<path opacity="0.69" d="M50.3722 9.53223C57.3131 15.4025 63.7371 22.1957 70.3456 28.546C77.6557 35.5608 84.9657 42.6496 92.2758 49.7014C95.7462 53.0611 99.2167 56.4207 102.687 59.7435C105.382 62.3279 107.487 64.4325 111.142 63.3249C113.578 62.5865 115.978 61.7373 118.378 60.925C127.497 57.8606 136.653 54.7962 145.809 51.8795C146.695 51.5842 147.027 53.0611 146.178 53.3934C136.69 57.0854 127.165 60.5927 117.603 64.1001C114.834 65.1339 109.886 68.2721 106.748 66.9061C102.576 65.1339 99.1797 60.7772 95.857 57.6021C88.1039 50.2181 80.3508 42.834 72.5977 35.45C64.5124 27.7706 55.9471 20.3866 48.3786 12.1904C47.1602 10.8243 48.8955 8.27695 50.3722 9.53223Z" fill="#DE0048" fill-opacity="0.54"/>
</g>
<g opacity="0.69">
<path opacity="0.69" d="M86.2224 42.3925C89.4344 40.3249 92.8679 38.6267 96.1906 36.7807C96.8552 36.4115 97.4459 37.4822 96.7813 37.9252C93.5694 39.9928 90.4312 42.2079 87.1085 44.017C86.1117 44.5708 85.2625 42.9832 86.2224 42.3925Z" fill="#DE0048" fill-opacity="0.54"/>
</g>
<g opacity="0.69">
<path opacity="0.69" d="M157.111 85.6616C174.13 102.94 190.707 120.662 210.422 134.47C211.419 135.171 210.57 136.796 209.536 136.168C200.011 130.224 190.67 123.615 182.105 116.084C172.358 107.555 163.276 98.1404 154.046 88.9473C151.979 86.8798 155.043 83.5572 157.111 85.6616Z" fill="#DE0048" fill-opacity="0.54"/>
</g>
<g opacity="0.69">
<path opacity="0.69" d="M121.074 134.284C133.737 126.568 147.249 120.033 160.319 113.203C173.167 106.483 185.978 99.801 198.826 93.2292C199.527 92.86 200.192 94.0415 199.49 94.4476C186.938 101.647 174.348 108.736 161.722 115.861C148.837 123.135 135.989 130.925 122.698 137.386C120.852 138.235 119.264 135.392 121.074 134.284Z" fill="#DE0048" fill-opacity="0.54"/>
</g>
<g opacity="0.69">
<path opacity="0.69" d="M120.264 91.4601C125.691 95.8167 130.749 100.764 135.659 105.822C140.163 110.474 146.329 115.901 148.839 122.251C149.098 122.879 148.581 123.507 147.99 123.174C142.747 120.147 138.391 114.129 133.998 109.809C128.755 104.64 123.18 99.9147 117.753 95.0412C115.833 93.3429 118.307 89.9094 120.264 91.4601Z" fill="#DE0048" fill-opacity="0.54"/>
</g>
<g opacity="0.69">
<path opacity="0.69" d="M8.5479 150.678C18.4054 151.084 28.1521 152.265 38.0465 152.154C48.4209 152.007 58.7583 151.194 69.0588 150.308C89.4383 148.573 109.781 146.801 130.271 149.016C131.49 149.164 131.526 151.121 130.271 151.157C109.707 151.379 89.4752 153.077 69.0219 155.145C58.6844 156.179 48.347 157.102 37.9727 157.434C28.1152 157.766 17.5563 158.025 7.84645 155.736C5.26209 155.145 5.96354 150.567 8.5479 150.678Z" fill="#DE0048" fill-opacity="0.54"/>
</g>
<g opacity="0.69">
<path opacity="0.69" d="M147.545 66.6097C147.619 70.0064 149.76 73.2924 151.643 76.1721C152.013 76.7259 152.382 77.2798 152.714 77.8336L153.046 78.3503C154.117 80.0855 155.557 82.4486 157.144 84.0361C157.181 84.073 157.218 84.1098 157.255 84.1098C157.292 84.1467 157.366 84.1468 157.403 84.1468C157.477 84.1468 157.587 84.1099 157.624 83.9992C157.772 83.7407 157.957 83.4085 158.141 83.1131C158.621 82.3009 159.138 81.3408 159.581 80.6763C159.803 80.344 160.024 80.0119 160.246 79.6796C160.947 78.6089 161.685 77.4644 162.276 76.246C162.535 75.7661 162.756 75.2861 163.015 74.8061C163.974 72.9232 164.897 71.151 165.377 69.0096C166.485 64.0992 165.156 58.0444 159.692 56.3461C155.741 55.1277 152.972 55.6815 150.536 58.229C148.468 60.3335 147.471 63.1392 147.545 66.6097ZM154.523 70.3387C152.271 69.711 151.717 67.2375 152.013 65.17C152.345 62.4379 154.117 59.6687 156.738 59.8902H156.775C158.067 59.9272 159.286 60.6287 160.246 61.8471C161.279 63.1393 161.796 64.7268 161.649 66.1667C161.501 67.5327 160.91 68.6404 159.839 69.4157C158.215 70.634 155.926 70.7448 154.523 70.3387Z" fill="#DE0048" fill-opacity="0.54"/>
</g>
<g opacity="0.69">
<path opacity="0.69" d="M61.93 133.62C61.9669 137.054 64.1082 140.377 65.9542 143.33C66.3234 143.921 66.6926 144.475 66.988 144.992L67.3202 145.546C68.3909 147.318 69.8307 149.718 71.3813 151.305C71.4182 151.342 71.4552 151.379 71.4921 151.379C71.529 151.416 71.6029 151.416 71.6398 151.416C71.7136 151.416 71.8244 151.379 71.8613 151.268C72.009 151.01 72.1936 150.678 72.3782 150.382C72.8581 149.533 73.4119 148.61 73.8549 147.909C74.0764 147.576 74.298 147.207 74.5195 146.875C75.2579 145.767 75.9962 144.623 76.6239 143.367C76.8823 142.887 77.1039 142.37 77.3623 141.89C78.3591 140.008 79.2821 138.198 79.7621 136.02C80.9066 131.036 79.6513 124.907 74.1503 123.209C70.163 121.953 67.394 122.544 64.9204 125.092C62.8899 127.27 61.8561 130.113 61.93 133.62ZM68.8708 137.386C66.5818 136.722 66.1018 134.248 66.3603 132.143C66.7295 129.374 68.5385 126.568 71.1598 126.79H71.1968C72.489 126.827 73.7072 127.528 74.6672 128.747C75.7009 130.039 76.2178 131.663 76.0701 133.14C75.9224 134.543 75.2948 135.651 74.2241 136.463C72.5997 137.682 70.3107 137.792 68.8708 137.386Z" fill="#DE0048" fill-opacity="0.54"/>
</g>
<g opacity="0.69">
<path opacity="0.69" d="M133.7 188.447C130.193 192.287 125.024 193.542 120.114 194.502C116.828 195.13 113.542 195.721 110.256 196.274C108.632 196.533 106.934 196.792 105.346 196.238C103.463 195.573 101.986 193.875 100.694 192.176C93.5318 182.872 88.4 171.686 85.8525 159.908C89.323 159.354 93.0888 158.874 96.2638 160.72C99.2543 162.455 101.1 166 103.832 168.252C108.152 171.833 113.948 171.685 119.302 171.612C124.618 171.575 130.599 172.055 134.328 176.375C135.251 177.445 135.989 178.7 136.321 180.14C137.023 183.168 135.657 186.306 133.7 188.447Z" fill="#DE0048" fill-opacity="0.54"/>
</g>
<g opacity="0.69">
<path opacity="0.69" d="M174.386 127.565C170.62 123.726 166.891 119.849 163.051 116.12C165.451 114.828 167.888 113.61 170.361 112.539C171.137 112.207 171.986 111.874 172.835 112.022C173.536 112.17 174.127 112.613 174.718 113.056C178.004 115.603 181.253 118.225 184.428 120.92C181.105 123.209 177.745 125.387 174.386 127.565Z" fill="#DE0048" fill-opacity="0.54"/>
</g>
<g opacity="0.69">
<path opacity="0.69" d="M184.839 137.573C188.974 136.318 192.444 133.623 196.099 131.334C198.757 133.845 201.415 136.355 204 138.976C200.271 140.822 196.468 142.558 192.629 144.219C191.89 143.591 191.189 142.964 190.746 142.631C188.678 141.044 186.648 139.383 184.691 137.61C184.765 137.573 184.802 137.573 184.839 137.573Z" fill="#DE0048" fill-opacity="0.54"/>
</g>
<g opacity="0.69">
<path opacity="0.69" d="M184.432 136.096C184.063 136.207 183.952 136.539 183.989 136.872C181.073 134.213 178.23 131.444 175.461 128.638C178.858 126.423 182.254 124.208 185.651 121.956C188.826 124.651 191.964 127.42 195.028 130.263C191.595 132.478 188.309 134.915 184.432 136.096Z" fill="#DE0048" fill-opacity="0.54"/>
</g>
<g opacity="0.69">
<path opacity="0.69" d="M150.056 143.626C146.881 140.045 143.927 136.242 141.195 132.217C143.78 129.67 146.512 127.307 149.355 125.129C153.342 128.784 157.292 132.476 161.243 136.168C157.514 138.642 153.785 141.115 150.056 143.626Z" fill="#DE0048" fill-opacity="0.54"/>
</g>
<g opacity="0.69">
<path opacity="0.69" d="M162.35 137.204C167.039 141.598 171.728 146.028 176.453 150.422C173.094 151.566 169.697 152.674 166.264 153.671C164.898 154.077 163.495 154.446 162.092 154.188C160.43 153.855 159.027 152.637 157.698 151.456C155.409 149.351 153.194 147.099 151.053 144.773C154.819 142.225 158.584 139.715 162.35 137.204Z" fill="#DE0048" fill-opacity="0.54"/>
</g>
<g opacity="0.69">
<path opacity="0.69" d="M162.459 135.358C158.472 131.629 154.521 127.937 150.497 124.245C154.078 121.513 157.844 119.039 161.757 116.861C165.634 120.59 169.363 124.503 173.166 128.38C169.584 130.706 166.04 133.032 162.459 135.358Z" fill="#DE0048" fill-opacity="0.54"/>
</g>
<g opacity="0.69">
<path opacity="0.69" d="M174.24 129.448C175.237 130.445 176.234 131.441 177.23 132.438C180.479 135.613 183.765 138.789 187.273 141.631C188.602 142.702 189.931 143.773 191.297 144.77C186.94 146.616 182.51 148.314 178.006 149.865C173.169 145.397 168.37 140.893 163.57 136.389C167.151 134.1 170.696 131.774 174.24 129.448Z" fill="#DE0048" fill-opacity="0.54"/>
</g>
<g opacity="0.69">
<path opacity="0.69" d="M52.2242 61.4809C57.6513 65.5051 62.7462 70.083 67.9518 74.4396C68.6533 75.0303 69.3548 73.7382 68.6533 73.1475C63.7061 69.0125 58.8328 64.619 53.664 60.7424L63.0784 56.0165C68.2841 59.8931 73.4897 63.9914 76.9232 69.7509C77.4032 70.5632 78.5846 69.8616 78.1047 69.0125C74.7081 63.2899 69.6132 59.1547 64.4814 55.2781L70.2039 52.3984L85.8947 66.3911C76.9971 71.4491 67.2504 74.698 58.1313 79.2761L42.5513 66.3174L52.2242 61.4809Z" fill="#DE0048" fill-opacity="0.54"/>
</g>
<g opacity="0.69">
<path opacity="0.69" d="M87.0353 67.4224L93.4593 73.1449C89.8043 74.7325 86.4446 77.3538 83.3433 79.7536C78.9868 83.1133 74.4088 86.0669 69.7939 88.9836L59.3457 80.3075C68.4648 75.7663 78.2115 72.5543 87.0353 67.4224Z" fill="#DE0048" fill-opacity="0.54"/>
</g>
<g opacity="0.69">
<path opacity="0.69" d="M82.4192 82.3009C86.1481 79.4211 90.2461 75.9875 94.7134 74.2153L108.3 86.3253L76.7706 94.7063L71.085 89.9804C74.9246 87.5806 78.7642 85.1068 82.4192 82.3009Z" fill="#DE0048" fill-opacity="0.54"/>
</g>
</g>
<g opacity="0.69">
<g opacity="0.69">
<path opacity="0.69" d="M147.212 87.2132C146.547 87.2132 145.956 86.7332 145.883 86.0317C145.809 85.2933 146.326 84.6289 147.027 84.5551C148.578 84.3705 150.128 84.2228 151.679 84.0751C152.417 84.0382 153.045 84.5549 153.119 85.2933C153.193 86.0317 152.639 86.6594 151.9 86.7332C150.387 86.844 148.873 86.9917 147.359 87.1763C147.322 87.2132 147.285 87.2132 147.212 87.2132Z" fill="#DE0048" fill-opacity="0.54"/>
</g>
<g opacity="0.69">
<path opacity="0.69" d="M111.735 134.395C111.403 134.395 111.107 134.285 110.849 134.063L86.5189 111.653C86.002 111.136 85.9651 110.323 86.482 109.77C86.9989 109.216 87.8111 109.216 88.3649 109.733L112.658 132.143C113.212 132.66 113.249 133.472 112.732 134.026C112.473 134.248 112.104 134.395 111.735 134.395ZM105.532 95.8509C104.942 95.8509 104.388 95.4446 104.24 94.817C104.093 94.1155 104.536 93.3771 105.237 93.2295L129.05 87.913C131.893 87.2853 134.699 86.6577 137.541 86.1039C138.243 85.9562 138.944 86.4361 139.092 87.1376C139.24 87.839 138.76 88.5407 138.058 88.6884C135.253 89.2422 132.447 89.8698 129.641 90.4974L105.828 95.8139C105.717 95.8508 105.606 95.8509 105.532 95.8509Z" fill="#DE0048" fill-opacity="0.54"/>
</g>
<g opacity="0.69">
<path opacity="0.69" d="M129.785 150.974C129.748 150.974 129.748 150.974 129.711 150.974C128.16 150.863 126.646 150.79 125.096 150.716C124.357 150.679 123.804 150.051 123.841 149.313C123.878 148.574 124.468 148.094 125.244 148.057C125.576 148.057 125.908 148.094 126.203 148.094L125.317 147.282C124.764 146.765 124.727 145.953 125.244 145.399C125.724 144.882 126.573 144.845 127.126 145.325L130.745 148.648C131.151 149.017 131.298 149.645 131.077 150.162C130.781 150.679 130.302 150.974 129.785 150.974Z" fill="#DE0048" fill-opacity="0.54"/>
</g>
<g opacity="0.69">
<path opacity="0.69" d="M91.5003 151.638C90.8357 151.638 90.245 151.121 90.1712 150.419C90.0973 149.681 90.6511 149.053 91.3526 148.979C99.9917 148.13 108.815 147.798 117.528 147.872C118.267 147.872 118.857 148.499 118.857 149.201C118.857 149.939 118.267 150.53 117.528 150.53C108.889 150.456 100.176 150.789 91.6479 151.638C91.5741 151.638 91.5372 151.638 91.5003 151.638Z" fill="#DE0048" fill-opacity="0.54"/>
</g>
<g opacity="0.69">
<path opacity="0.69" d="M82.6395 152.674C81.9749 152.674 81.4211 152.194 81.3104 151.529C81.1996 150.791 81.7165 150.126 82.4549 150.053C84.0055 149.868 85.5192 149.646 87.0698 149.499C87.8082 149.425 88.4727 149.942 88.5466 150.68C88.6204 151.419 88.1035 152.083 87.3651 152.157C85.8514 152.342 84.3009 152.526 82.7872 152.711C82.7503 152.637 82.6764 152.674 82.6395 152.674Z" fill="#DE0048" fill-opacity="0.54"/>
</g>
</g>
</g>
</g>
<g opacity="0.69">
<g opacity="0.69">
<path opacity="0.69" d="M356.693 6.02324C356.693 6.02324 356.693 13.1489 356.619 19.4622C355.991 61.4035 356.914 103.382 359.314 145.434C360.015 157.58 360.828 169.764 361.788 181.948C362.304 188.409 361.16 211.225 361.16 211.225C353.628 215.508 324.647 211.668 315.011 211.595C299.32 211.521 283.777 211.41 268.381 211.336C193.509 210.93 121.59 210.524 52.4398 210.118C41.1794 210.044 29.9559 210.007 18.8432 209.933C14.9297 209.896 7.61965 210.893 4.99838 208.161C1.45411 204.469 1.23261 181.542 1.23261 176.927C1.08493 127.527 4.4815 84.8478 2.22942 35.6333C1.71255 24.2988 -0.318013 12.2995 0.937247 1.03888C8.94876 -0.401003 18.8801 0.891391 27.187 1.00215C88.0301 1.88824 151.052 2.77425 216.362 3.69725C244.384 4.10337 272.812 4.50956 301.72 4.91568C315.749 5.10028 330.48 4.50949 344.62 5.54326C349.013 5.91246 354.847 5.02639 356.693 6.02324Z" fill="#DE0048" fill-opacity="0.54"/>
</g>
<g opacity="0.69">
<g opacity="0.69">
<g opacity="0.69">
<path opacity="0.69" d="M349.567 7.90721C349.567 7.90721 349.677 14.6267 349.677 20.5708C349.603 60.2969 351.117 100.318 354.108 140.635C354.957 152.339 355.954 164.116 357.098 175.894C357.689 182.133 356.913 204.286 356.913 204.286C349.456 208.421 320.474 204.47 310.875 204.359C295.295 204.175 279.863 203.99 264.615 203.806C190.961 202.956 120.851 202.144 54.0636 201.332C43.2462 201.221 32.5026 201.073 21.8329 200.963C18.104 200.926 11.0894 201.812 8.61576 199.191C5.25609 195.646 5.32991 173.974 5.36683 169.617C5.80987 123.135 9.53872 83.2242 7.98811 37.554C7.61891 27.1056 5.88373 16.0297 7.17591 5.61818C14.7444 4.25213 24.085 5.35975 31.9119 5.39667C89.5431 5.80279 149.722 6.20879 212.559 6.65183C239.694 6.83643 267.347 7.02115 295.553 7.24268C309.287 7.35344 323.723 6.65179 337.642 7.53787C341.998 7.87016 347.757 6.98421 349.567 7.90721Z" fill="#DE0048" fill-opacity="0.54"/>
</g>
<g opacity="0.69">
<path opacity="0.69" d="M17.3264 37.7365C30.1005 53.206 43.3546 68.0111 57.7532 81.8931C63.9926 87.911 70.4165 93.7445 76.9144 99.4671C77.0989 99.3563 77.3205 99.2455 77.6158 99.1717C104.567 93.6706 131.555 88.2433 158.469 82.8161C163.933 81.7085 170.21 81.3761 175.009 78.1641C181.47 73.8444 178.517 63.6545 175.563 57.858C169.028 44.9729 159.577 33.3799 150.642 22.4884C150.126 21.8608 150.901 20.9747 151.492 21.5654C161.644 32.0877 171.613 44.3082 178.738 57.5626C181.433 62.5837 182.652 68.1587 181.618 73.7706C180.584 79.4932 176.08 82.5946 171.354 84.256C164.709 86.582 157.399 87.4312 150.532 88.908C142.557 90.6063 134.619 92.3046 126.645 94.003C111.619 97.215 96.5555 100.353 81.4555 103.491C88.6179 109.657 95.8541 115.712 103.201 121.656C118.781 134.32 134.656 146.651 150.495 159.13C165.115 170.649 181.249 182.5 190.442 200.185C191.069 201.403 189.629 202.622 188.743 201.625C175.489 186.709 160.721 174.673 145.252 163.007C129.192 150.934 113.206 138.861 97.5154 126.345C66.7984 101.793 35.9707 75.3952 11.6777 43.6808C8.46573 39.435 13.856 33.5645 17.3264 37.7365Z" fill="#DE0048" fill-opacity="0.54"/>
</g>
<g opacity="0.69">
<path opacity="0.69" d="M12.8229 127.196C19.9115 125.756 27.3692 125.682 34.5685 125.276C42.1 124.87 49.6316 124.722 57.2 124.87C64.6578 125.018 72.1524 125.645 79.5732 124.944C86.0341 124.353 92.1258 121.326 98.6975 122.987C99.6574 123.245 99.4359 124.944 98.476 124.87C91.6828 124.353 85.1849 127.713 78.5394 128.673C71.4878 129.669 64.2886 129.522 57.1631 129.817C50.1115 130.112 43.0599 130.482 36.0083 130.925C28.5137 131.405 20.9452 132.66 13.4136 132.734C10.6077 132.734 9.98013 127.787 12.8229 127.196Z" fill="#DE0048" fill-opacity="0.54"/>
</g>
<g opacity="0.69">
<path opacity="0.69" d="M59.8941 154.96C62.9584 154.258 65.9858 153.261 69.0871 152.966C78.4646 152.117 87.8052 158.061 93.4169 166.552C99.0656 175.081 101.355 185.825 101.65 196.273C92.9739 196.827 84.3348 197.344 75.6587 197.897C60.7063 198.82 45.5325 199.743 30.8386 196.273C25.3006 194.944 19.652 192.876 15.5909 188.483C8.09621 180.324 8.31771 167.217 9.0561 155.772C17.9168 155.993 26.7405 156.215 35.6012 156.399C43.7234 156.584 51.9564 156.769 59.8941 154.96Z" fill="#DE0048" fill-opacity="0.54"/>
</g>
<g opacity="0.69">
<path opacity="0.69" d="M95.2308 11.5241C102.689 20.0157 110.552 28.0643 118.785 35.7067C123.327 39.9525 128.052 43.9768 132.815 47.8903C135.03 49.6994 137.208 51.6563 139.829 52.6901C142.931 53.9454 146.881 51.5823 149.724 50.4378C172.171 41.577 194.729 33.1223 217.176 24.5937C217.803 24.3722 218.062 25.4061 217.471 25.6646C193.88 35.5961 170.325 45.8597 146.438 55.3113C141.565 57.2311 137.725 55.8282 133.59 52.5792C128.901 48.8872 124.36 44.9736 119.893 40.9863C110.442 32.5316 101.507 23.4493 93.0895 13.8501C91.6127 12.2995 93.8279 9.93655 95.2308 11.5241Z" fill="#DE0048" fill-opacity="0.54"/>
</g>
<g opacity="0.69">
<path opacity="0.69" d="M50.3722 9.52979C57.3131 15.4001 63.7371 22.1933 70.3456 28.5435C77.6557 35.5584 84.9657 42.6472 92.2758 49.6989C95.7462 53.0587 99.2167 56.4183 102.687 59.7411C105.382 62.3255 107.487 64.4301 111.142 63.3225C113.578 62.5841 115.978 61.7348 118.378 60.9226C127.497 57.8582 136.653 54.7938 145.809 51.8771C146.695 51.5817 147.027 53.0587 146.178 53.3909C136.69 57.083 127.165 60.5902 117.603 64.0976C114.834 65.1314 109.886 68.2697 106.748 66.9036C102.576 65.1315 99.1797 60.7748 95.857 57.5997C88.1039 50.2156 80.3508 42.8316 72.5977 35.4476C64.5124 27.7682 55.9471 20.3842 48.3786 12.1879C47.1602 10.8219 48.8955 8.2745 50.3722 9.52979Z" fill="#DE0048" fill-opacity="0.54"/>
</g>
<g opacity="0.69">
<path opacity="0.69" d="M86.2224 42.39C89.4344 40.3225 92.8679 38.6243 96.1906 36.7783C96.8552 36.409 97.4459 37.4797 96.7813 37.9228C93.5694 39.9903 90.4312 42.2054 87.1085 44.0145C86.1117 44.5683 85.2625 42.9807 86.2224 42.39Z" fill="#DE0048" fill-opacity="0.54"/>
</g>
<g opacity="0.69">
<path opacity="0.69" d="M157.104 85.6597C174.124 102.938 190.701 120.66 210.416 134.468C211.413 135.169 210.563 136.794 209.53 136.166C200.005 130.222 190.664 123.613 182.099 116.082C172.352 107.553 163.27 98.1385 154.04 88.9454C151.972 86.8779 155.037 83.5552 157.104 85.6597Z" fill="#DE0048" fill-opacity="0.54"/>
</g>
<g opacity="0.69">
<path opacity="0.69" d="M121.074 134.286C133.737 126.57 147.249 120.035 160.319 113.204C173.167 106.485 185.978 99.8025 198.826 93.2307C199.527 92.8614 200.192 94.043 199.49 94.4491C186.938 101.649 174.348 108.737 161.722 115.863C148.837 123.136 135.989 130.926 122.698 137.387C120.852 138.237 119.264 135.394 121.074 134.286Z" fill="#DE0048" fill-opacity="0.54"/>
</g>
<g opacity="0.69">
<path opacity="0.69" d="M120.257 91.4581C125.684 95.8147 130.742 100.762 135.653 105.82C140.157 110.472 146.322 115.899 148.833 122.249C149.091 122.877 148.574 123.505 147.984 123.172C142.741 120.145 138.385 114.127 133.991 109.807C128.749 104.639 123.174 99.9127 117.747 95.0393C115.827 93.341 118.301 89.9075 120.257 91.4581Z" fill="#DE0048" fill-opacity="0.54"/>
</g>
<g opacity="0.69">
<path opacity="0.69" d="M8.54057 150.679C18.3981 151.085 28.1448 152.266 38.0392 152.156C48.4136 152.008 58.751 151.196 69.0515 150.31C89.431 148.575 109.774 146.802 130.264 149.017C131.482 149.165 131.519 151.122 130.264 151.159C109.7 151.38 89.4679 153.079 69.0146 155.146C58.6771 156.18 48.3397 157.103 37.9653 157.435C28.1079 157.767 17.5489 158.026 7.83912 155.737C5.25477 155.146 5.95621 150.568 8.54057 150.679Z" fill="#DE0048" fill-opacity="0.54"/>
</g>
<g opacity="0.69">
<path opacity="0.69" d="M147.544 66.6117C147.618 70.0084 149.76 73.2944 151.642 76.1742C152.012 76.728 152.381 77.2818 152.713 77.8356L153.045 78.3523C154.116 80.0876 155.556 82.4506 157.143 84.0382C157.18 84.0751 157.217 84.1119 157.254 84.1119C157.291 84.1488 157.365 84.1489 157.402 84.1489C157.476 84.1489 157.586 84.112 157.623 84.0013C157.771 83.7428 157.956 83.4106 158.14 83.1152C158.62 82.303 159.137 81.3429 159.58 80.6783C159.802 80.3461 160.023 80.0139 160.245 79.6816C160.946 78.611 161.685 77.4665 162.275 76.2481C162.534 75.7681 162.755 75.2881 163.014 74.8081C163.973 72.9252 164.896 71.153 165.376 69.0116C166.484 64.1012 165.155 58.0463 159.691 56.348C155.74 55.1296 152.971 55.6835 150.535 58.231C148.467 60.3354 147.471 63.1412 147.544 66.6117ZM154.522 70.3407C152.27 69.7131 151.716 67.2395 152.012 65.172C152.344 62.4399 154.116 59.6707 156.737 59.8922H156.774C158.066 59.9291 159.285 60.6307 160.245 61.8491C161.278 63.1413 161.795 64.7288 161.648 66.1687C161.5 67.5348 160.909 68.6424 159.839 69.4177C158.214 70.6361 155.925 70.7468 154.522 70.3407Z" fill="#DE0048" fill-opacity="0.54"/>
</g>
<g opacity="0.69">
<path opacity="0.69" d="M61.9305 133.621C61.9674 137.055 64.1087 140.378 65.9547 143.331C66.3239 143.922 66.6931 144.476 66.9885 144.993L67.3207 145.546C68.3914 147.319 69.8312 149.718 71.3818 151.306C71.4187 151.343 71.4557 151.38 71.4926 151.38C71.5295 151.417 71.6034 151.417 71.6403 151.417C71.7141 151.417 71.8249 151.38 71.8618 151.269C72.0095 151.011 72.1941 150.678 72.3787 150.383C72.8586 149.534 73.4124 148.611 73.8554 147.909C74.0769 147.577 74.2985 147.208 74.52 146.875C75.2584 145.768 75.9967 144.624 76.6244 143.368C76.8828 142.888 77.1044 142.371 77.3628 141.891C78.3596 140.008 79.2826 138.199 79.7625 136.021C80.907 131.037 79.6518 124.908 74.1508 123.21C70.1635 121.954 67.3945 122.545 64.9209 125.093C62.8903 127.271 61.8566 130.114 61.9305 133.621ZM68.8713 137.387C66.5823 136.723 66.1023 134.249 66.3608 132.144C66.73 129.375 68.539 126.569 71.1603 126.791H71.1973C72.4894 126.828 73.7077 127.529 74.6676 128.748C75.7014 130.04 76.2183 131.664 76.0706 133.141C75.9229 134.544 75.2953 135.652 74.2246 136.464C72.6002 137.683 70.3112 137.793 68.8713 137.387Z" fill="#DE0048" fill-opacity="0.54"/>
</g>
<g opacity="0.69">
<path opacity="0.69" d="M133.7 188.445C130.193 192.285 125.024 193.54 120.114 194.5C116.828 195.128 113.542 195.718 110.256 196.272C108.632 196.53 106.934 196.789 105.346 196.235C103.463 195.571 101.986 193.872 100.694 192.174C93.5318 182.87 88.4 171.683 85.8525 159.905C89.323 159.352 93.0888 158.872 96.2638 160.718C99.2543 162.453 101.1 165.997 103.832 168.25C108.152 171.831 113.948 171.683 119.302 171.609C124.618 171.572 130.599 172.052 134.328 176.372C135.251 177.443 135.989 178.698 136.321 180.138C137.023 183.165 135.657 186.304 133.7 188.445Z" fill="#DE0048" fill-opacity="0.54"/>
</g>
<g opacity="0.69">
<path opacity="0.69" d="M174.386 127.563C170.62 123.723 166.891 119.847 163.051 116.118C165.451 114.826 167.888 113.607 170.361 112.536C171.137 112.204 171.986 111.872 172.835 112.019C173.536 112.167 174.127 112.61 174.718 113.053C178.004 115.601 181.253 118.222 184.428 120.917C181.105 123.206 177.745 125.385 174.386 127.563Z" fill="#DE0048" fill-opacity="0.54"/>
</g>
<g opacity="0.69">
<path opacity="0.69" d="M184.831 137.572C188.966 136.317 192.437 133.622 196.092 131.333C198.75 133.843 201.408 136.354 203.992 138.975C200.264 140.821 196.461 142.556 192.621 144.218C191.883 143.59 191.181 142.962 190.738 142.63C188.671 141.042 186.64 139.381 184.684 137.609C184.757 137.572 184.794 137.572 184.831 137.572Z" fill="#DE0048" fill-opacity="0.54"/>
</g>
<g opacity="0.69">
<path opacity="0.69" d="M184.426 136.094C184.057 136.204 183.946 136.537 183.983 136.869C181.066 134.211 178.224 131.442 175.455 128.636C178.851 126.42 182.248 124.205 185.644 121.953C188.819 124.648 191.958 127.417 195.022 130.26C191.588 132.475 188.303 134.912 184.426 136.094Z" fill="#DE0048" fill-opacity="0.54"/>
</g>
<g opacity="0.69">
<path opacity="0.69" d="M150.056 143.623C146.881 140.042 143.928 136.239 141.196 132.215C143.78 129.668 146.512 127.305 149.355 125.126C153.342 128.782 157.293 132.473 161.243 136.165C157.514 138.639 153.785 141.113 150.056 143.623Z" fill="#DE0048" fill-opacity="0.54"/>
</g>
<g opacity="0.69">
<path opacity="0.69" d="M162.35 137.201C167.039 141.595 171.728 146.025 176.453 150.419C173.094 151.563 169.697 152.671 166.264 153.668C164.898 154.074 163.495 154.443 162.092 154.185C160.43 153.853 159.027 152.634 157.698 151.453C155.409 149.348 153.194 147.096 151.053 144.77C154.819 142.223 158.584 139.712 162.35 137.201Z" fill="#DE0048" fill-opacity="0.54"/>
</g>
<g opacity="0.69">
<path opacity="0.69" d="M162.459 135.356C158.472 131.627 154.521 127.935 150.497 124.243C154.078 121.511 157.844 119.037 161.757 116.859C165.634 120.588 169.363 124.501 173.166 128.378C169.584 130.704 166.04 133.03 162.459 135.356Z" fill="#DE0048" fill-opacity="0.54"/>
</g>
<g opacity="0.69">
<path opacity="0.69" d="M174.233 129.45C175.23 130.447 176.227 131.443 177.224 132.44C180.473 135.615 183.758 138.79 187.266 141.633C188.595 142.704 189.924 143.775 191.29 144.772C186.933 146.618 182.503 148.316 177.999 149.866C173.163 145.399 168.363 140.895 163.563 136.391C167.145 134.102 170.689 131.776 174.233 129.45Z" fill="#DE0048" fill-opacity="0.54"/>
</g>
<g opacity="0.69">
<path opacity="0.69" d="M52.2168 61.4779C57.644 65.5022 62.7389 70.0801 67.9445 74.4367C68.646 75.0274 69.3475 73.7353 68.646 73.1446C63.6988 69.0095 58.8255 64.6161 53.6567 60.7395L63.0711 56.0136C68.2768 59.8902 73.4824 63.9885 76.9159 69.748C77.3959 70.5602 78.5773 69.8587 78.0974 69.0095C74.7008 63.2869 69.6059 59.1518 64.4741 55.2752L70.1966 52.3955L85.8874 66.3881C76.9898 71.4462 67.243 74.6951 58.124 79.2732L42.5439 66.3145L52.2168 61.4779Z" fill="#DE0048" fill-opacity="0.54"/>
</g>
<g opacity="0.69">
<path opacity="0.69" d="M87.0353 67.4209L93.4593 73.1435C89.8043 74.7311 86.4446 77.3523 83.3433 79.7521C78.9868 83.1119 74.4088 86.0655 69.7939 88.9822L59.3457 80.306C68.4648 75.7648 78.2115 72.5528 87.0353 67.4209Z" fill="#DE0048" fill-opacity="0.54"/>
</g>
<g opacity="0.69">
<path opacity="0.69" d="M82.4192 82.3024C86.1481 79.4226 90.2461 75.989 94.7134 74.2168L108.3 86.3268L76.7706 94.7078L71.085 89.9818C74.9246 87.582 78.7642 85.1083 82.4192 82.3024Z" fill="#DE0048" fill-opacity="0.54"/>
</g>
</g>
<g opacity="0.69">
<g opacity="0.69">
<path opacity="0.69" d="M147.212 87.2108C146.548 87.2108 145.957 86.7308 145.883 86.0293C145.809 85.2909 146.326 84.6265 147.027 84.5526C148.578 84.368 150.129 84.2203 151.679 84.0727C152.418 84.0357 153.045 84.5525 153.119 85.2909C153.193 86.0293 152.639 86.657 151.901 86.7308C150.387 86.8416 148.873 86.9892 147.36 87.1738C147.323 87.2107 147.286 87.2108 147.212 87.2108Z" fill="#DE0048" fill-opacity="0.54"/>
</g>
<g opacity="0.69">
<path opacity="0.69" d="M111.735 134.393C111.403 134.393 111.107 134.282 110.849 134.061L86.5189 111.65C86.002 111.133 85.9651 110.321 86.482 109.767C86.9989 109.213 87.8111 109.213 88.3649 109.73L112.658 132.141C113.212 132.658 113.249 133.47 112.732 134.024C112.473 134.245 112.104 134.393 111.735 134.393ZM105.532 95.8484C104.942 95.8484 104.388 95.4422 104.24 94.8146C104.093 94.1131 104.536 93.3747 105.237 93.227L129.05 87.9105C131.893 87.2829 134.699 86.6553 137.541 86.1015C138.243 85.9538 138.944 86.4336 139.092 87.1351C139.24 87.8366 138.76 88.5382 138.058 88.6859C135.253 89.2397 132.447 89.8673 129.641 90.495L105.828 95.8115C105.717 95.8484 105.606 95.8484 105.532 95.8484Z" fill="#DE0048" fill-opacity="0.54"/>
</g>
<g opacity="0.69">
<path opacity="0.69" d="M129.785 150.972C129.748 150.972 129.748 150.972 129.711 150.972C128.161 150.861 126.647 150.787 125.096 150.713C124.358 150.676 123.804 150.049 123.841 149.31C123.878 148.572 124.469 148.092 125.244 148.055C125.576 148.055 125.909 148.092 126.204 148.092L125.318 147.28C124.764 146.763 124.727 145.951 125.244 145.397C125.724 144.88 126.573 144.843 127.127 145.323L130.745 148.646C131.151 149.015 131.299 149.643 131.077 150.159C130.782 150.676 130.302 150.972 129.785 150.972Z" fill="#DE0048" fill-opacity="0.54"/>
</g>
<g opacity="0.69">
<path opacity="0.69" d="M91.5003 151.635C90.8357 151.635 90.245 151.118 90.1712 150.417C90.0973 149.679 90.6511 149.051 91.3526 148.977C99.9917 148.128 108.815 147.796 117.528 147.869C118.267 147.869 118.857 148.497 118.857 149.198C118.857 149.937 118.267 150.528 117.528 150.528C108.889 150.454 100.176 150.786 91.6479 151.635C91.5741 151.635 91.5372 151.635 91.5003 151.635Z" fill="#DE0048" fill-opacity="0.54"/>
</g>
<g opacity="0.69">
<path opacity="0.69" d="M82.6395 152.671C81.9749 152.671 81.4211 152.191 81.3104 151.527C81.1996 150.788 81.7165 150.124 82.4549 150.05C84.0055 149.866 85.5192 149.644 87.0698 149.496C87.8082 149.422 88.4727 149.939 88.5466 150.678C88.6204 151.416 88.1035 152.081 87.3651 152.155C85.8514 152.339 84.3009 152.524 82.7872 152.708C82.7503 152.634 82.6764 152.671 82.6395 152.671Z" fill="#DE0048" fill-opacity="0.54"/>
</g>
</g>
</g>
</g>
<g opacity="0.69">
<path opacity="0.69" d="M199.714 91.6407C245.494 92.6745 291.201 96.2188 336.464 103.418C337.941 103.64 337.608 106.261 336.095 106.076C290.794 100.28 245.384 96.3664 199.714 95.4434C197.278 95.3695 197.278 91.5669 199.714 91.6407Z" fill="#DE0048" fill-opacity="0.54"/>
</g>
<g opacity="0.69">
<path opacity="0.69" d="M246.231 40.0638C246.305 38.107 249.259 38.107 249.259 40.0638C249.222 71.0767 244.09 101.905 238.81 132.364C238.294 135.355 233.9 134.026 234.306 131.109C238.478 100.834 244.939 70.7075 246.231 40.0638Z" fill="#DE0048" fill-opacity="0.54"/>
</g>
<g opacity="0.69">
<path opacity="0.69" d="M314.938 92.7496C316.599 94.5587 318.703 94.5217 320.992 94.5956C321.731 94.7802 322.506 94.928 323.392 94.928C325.312 95.0018 327.047 95.0386 328.93 95.4816C329.89 95.7032 331.071 96.1831 332.068 95.9247C333.582 95.5185 334.099 94.0417 334.32 92.7126C334.948 88.6883 335.354 81.5627 330.407 80.3074C327.379 79.5321 324.02 79.6059 320.919 79.7905C319.146 79.9012 316.267 79.7535 314.753 80.935C311.873 83.261 312.612 90.239 314.938 92.7496Z" fill="#DE0048" fill-opacity="0.54"/>
</g>
<g opacity="0.69">
<path opacity="0.69" d="M309.805 93.8934C309.768 94.1518 309.694 94.4842 309.51 94.6688C309.214 94.9272 308.771 94.9272 308.402 94.8533C303.898 94.3364 299.357 93.8564 294.853 93.3395C294.188 93.2656 293.45 93.1549 293.007 92.638C292.638 92.195 292.601 91.5675 292.564 91.0137C292.453 87.6909 292.675 84.3679 293.228 81.119C293.339 80.3806 293.561 79.5685 294.188 79.1993C294.594 78.9778 295.074 78.9778 295.517 78.9778C298.619 79.0147 308.144 77.5378 310.174 80.0114C312.094 82.4481 310.248 91.1244 309.805 93.8934Z" fill="#DE0048" fill-opacity="0.54"/>
</g>
<g opacity="0.69">
<path opacity="0.69" d="M289.205 87.0266C288.946 88.688 288.429 90.6818 286.842 91.2356C286.066 91.494 285.18 91.3463 284.368 91.1986C282.411 90.8294 280.455 90.4602 278.498 90.091C278.203 90.0172 277.907 89.9802 277.686 89.7587C277.464 89.5002 277.39 89.1679 277.39 88.8357C277.095 84.959 277.427 81.0085 278.35 77.2427C280.639 77.2796 287.285 77.132 289.057 78.9041C290.718 80.6025 289.537 84.9222 289.205 87.0266Z" fill="#DE0048" fill-opacity="0.54"/>
</g>
<g opacity="0.69">
<path opacity="0.69" d="M284.366 148.534C287.467 155.106 295.516 155.955 301.903 154.589C308.105 153.26 313.865 149.124 315.452 142.774C316.56 138.344 315.231 134.578 312.72 131.477C311.428 128.56 308.954 126.234 305.262 125.385C299.318 123.982 290.864 126.677 286.618 131.107C282.446 135.427 281.892 143.254 284.366 148.534ZM308.622 137.421C308.142 146.54 294.519 154.847 289.978 143.771C289.535 142.663 288.538 142.146 287.578 142.073C287.578 141.076 287.652 140.079 287.8 139.119C288.686 134.209 292.673 132.104 297.103 130.923C302.124 129.594 308.954 130.923 308.622 137.421Z" fill="#DE0048" fill-opacity="0.54"/>
</g>
<g opacity="0.69">
<path opacity="0.69" d="M300.869 103.121C301.127 99.9827 306.038 99.9458 305.816 103.121C305.151 111.354 303.564 119.55 302.973 127.784C302.863 129.187 300.758 129.224 300.795 127.784C300.832 119.587 300.204 111.391 300.869 103.121Z" fill="#DE0048" fill-opacity="0.54"/>
</g>
<g opacity="0.69">
<path opacity="0.69" d="M236.816 130.519C252.802 132.181 268.53 135.024 283.999 139.491C285.808 140.008 285.033 142.555 283.224 142.26C267.829 139.786 252.359 137.756 236.816 136.427C233.051 136.058 233.088 130.113 236.816 130.519Z" fill="#DE0048" fill-opacity="0.54"/>
</g>
<g opacity="0.69">
<path opacity="0.69" d="M171.539 173.233C194.725 172.199 217.91 171.239 241.132 170.464C252.319 170.095 263.543 169.726 274.729 169.43C278.236 169.32 288.795 170.944 291.527 169.024C295.81 166.034 294.776 159.831 295.219 154.736C295.367 152.927 297.988 152.89 298.062 154.736C298.358 160.311 298.616 165.849 298.764 171.424C298.801 172.79 297.619 173.787 296.327 173.861C254.719 175.522 213.111 176.335 171.539 178.218C168.327 178.365 168.327 173.381 171.539 173.233Z" fill="#DE0048" fill-opacity="0.54"/>
</g>
<g opacity="0.69">
<path opacity="0.69" d="M316.412 144.4C324.829 148.942 333.616 153.15 341.738 158.245C344.175 159.759 342.034 163.451 339.486 162.122C331.032 157.692 322.946 152.228 314.787 147.243C312.941 146.136 314.529 143.404 316.412 144.4Z" fill="#DE0048" fill-opacity="0.54"/>
</g>
<g opacity="0.69">
<path opacity="0.69" d="M250.624 47.8537C266.684 48.8505 282.633 50.401 298.619 52.0624C300.317 52.247 300.391 54.8683 298.619 54.7944C282.596 54.093 266.61 53.3178 250.624 51.9887C248.003 51.7672 247.966 47.6691 250.624 47.8537Z" fill="#DE0048" fill-opacity="0.54"/>
</g>
<g opacity="0.69">
<path opacity="0.69" d="M248.78 20.7525C249.186 18.5373 252.619 19.4603 252.176 21.6755C250.884 27.8042 249.629 33.7851 249.186 40.0615C249.149 40.7261 248.189 40.7261 248.152 40.0615C247.672 33.6375 247.635 27.1027 248.78 20.7525Z" fill="#DE0048" fill-opacity="0.54"/>
</g>
<g opacity="0.69">
<path opacity="0.69" d="M261.032 48.8864C262.694 42.5361 263.727 36.0381 264.392 29.5032C264.466 28.6171 265.832 28.5802 265.832 29.5032C265.758 36.1489 265.167 42.7207 264.392 49.3294C264.06 51.8031 260.405 51.2493 261.032 48.8864Z" fill="#DE0048" fill-opacity="0.54"/>
</g>
<g opacity="0.69">
<path opacity="0.69" d="M273.144 47.964C274.178 43.0167 275.064 38.0695 275.913 33.0853C276.098 32.0146 277.944 32.2359 277.833 33.3435C277.464 38.3647 277.021 43.3859 276.615 48.444C276.393 50.9915 272.628 50.4746 273.144 47.964Z" fill="#DE0048" fill-opacity="0.54"/>
</g>
<g opacity="0.69">
<path opacity="0.69" d="M285.92 33.9701C285.92 32.4564 288.099 32.4933 288.246 33.9701C288.726 39.3605 288.911 44.8985 288.616 50.3258C288.468 53.2056 284.222 52.7256 284.665 49.8088C285.514 44.4923 285.957 39.3236 285.92 33.9701Z" fill="#DE0048" fill-opacity="0.54"/>
</g>
<g opacity="0.69">
<path opacity="0.69" d="M291.011 49.7726C292.783 44.013 293.964 38.3275 294.629 32.3464C294.777 30.9434 296.992 30.9065 296.881 32.3464C296.29 38.3275 295.663 44.3085 295.072 50.2895C294.777 53.3908 290.162 52.5785 291.011 49.7726Z" fill="#DE0048" fill-opacity="0.54"/>
</g>
<g opacity="0.69">
<path opacity="0.69" d="M273.589 89.2775C273.515 89.5359 273.404 89.8313 273.183 90.0159C272.961 90.2005 272.666 90.2375 272.37 90.2375C269.158 90.5328 265.946 90.422 262.771 89.979C261.848 89.8313 260.815 89.6098 260.261 88.8345C259.818 88.1699 259.855 87.3577 259.892 86.5454C259.965 85.1794 260.039 83.8134 260.113 82.4473C260.261 80.0475 260.519 77.3891 262.365 75.8385C265.023 73.5863 271.743 73.9187 273.884 76.8724C276.062 79.9367 274.549 86.1393 273.589 89.2775Z" fill="#DE0048" fill-opacity="0.54"/>
</g>
<g opacity="0.69">
<g opacity="0.69">
<path opacity="0.69" d="M232.607 54.9796C232.829 54.1674 233.087 53.3181 233.53 52.8012C233.9 52.3582 234.38 52.2105 234.823 52.0997C237.37 51.3244 239.954 50.6599 242.539 50.0322C241.911 53.9827 241.284 57.9332 240.656 61.8837C237.333 62.1421 234.047 62.3636 230.725 62.7697C231.315 60.1484 231.943 57.564 232.607 54.9796Z" fill="#DE0048" fill-opacity="0.54"/>
</g>
<g opacity="0.69">
<path opacity="0.69" d="M238.254 77.354C237.552 81.7844 236.888 86.2147 236.223 90.6451C233.27 90.6451 230.353 90.3497 227.437 89.7221C227.584 86.1039 227.843 82.5228 228.212 78.9415C231.572 78.3877 234.894 77.8709 238.254 77.354Z" fill="#DE0048" fill-opacity="0.54"/>
</g>
<g opacity="0.69">
<path opacity="0.69" d="M230.463 64.2453C233.786 63.8392 237.109 63.6176 240.468 63.3223C239.804 67.5312 239.139 71.7031 238.475 75.912C235.115 76.4289 231.755 76.9458 228.396 77.4996C228.912 73.0322 229.577 68.6019 230.463 64.2453Z" fill="#DE0048" fill-opacity="0.54"/>
</g>
</g>
<g opacity="0.69">
<g opacity="0.69">
<path opacity="0.69" d="M220.796 54.6112C221.018 53.799 221.276 52.95 221.719 52.4331C222.089 51.99 222.569 51.8423 223.012 51.7316C225.559 50.9563 228.143 50.2917 230.728 49.6641C230.1 53.6145 229.473 57.5648 228.845 61.5153C225.522 61.7737 222.236 61.9954 218.914 62.4016C219.504 59.7802 220.132 57.1587 220.796 54.6112Z" fill="#DE0048" fill-opacity="0.54"/>
</g>
<g opacity="0.69">
<path opacity="0.69" d="M226.443 76.9868C225.741 81.4173 225.077 85.8479 224.412 90.2783C221.459 90.2783 218.542 89.983 215.625 89.3553C215.773 85.7371 216.032 82.1557 216.401 78.5744C219.76 78.0206 223.083 77.5037 226.443 76.9868Z" fill="#DE0048" fill-opacity="0.54"/>
</g>
<g opacity="0.69">
<path opacity="0.69" d="M218.652 63.8771C221.975 63.471 225.297 63.2495 228.657 62.9541C227.993 67.163 227.328 71.3351 226.664 75.544C223.304 76.0609 219.944 76.5778 216.584 77.1316C217.101 72.6642 217.766 68.2337 218.652 63.8771Z" fill="#DE0048" fill-opacity="0.54"/>
</g>
</g>
<g opacity="0.69">
<g opacity="0.69">
<path opacity="0.69" d="M208.503 54.6112C208.724 53.799 208.982 52.95 209.425 52.4331C209.795 51.99 210.275 51.8423 210.718 51.7316C213.265 50.9563 215.85 50.2917 218.434 49.6641C217.806 53.6145 217.179 57.5648 216.551 61.5153C213.228 61.7737 209.942 61.9954 206.62 62.4016C207.21 59.7802 207.801 57.1587 208.503 54.6112Z" fill="#DE0048" fill-opacity="0.54"/>
</g>
<g opacity="0.69">
<path opacity="0.69" d="M214.113 76.9854C213.411 81.4158 212.747 85.8464 212.082 90.2768C209.129 90.2768 206.212 89.9815 203.295 89.3538C203.443 85.7356 203.701 82.1542 204.071 78.5729C207.43 78.0191 210.79 77.5022 214.113 76.9854Z" fill="#DE0048" fill-opacity="0.54"/>
</g>
<g opacity="0.69">
<path opacity="0.69" d="M206.359 63.8771C209.681 63.471 213.004 63.2495 216.364 62.9541C215.699 67.163 215.035 71.3351 214.37 75.544C211.01 76.0609 207.651 76.5778 204.291 77.1316C204.771 72.6642 205.472 68.2337 206.359 63.8771Z" fill="#DE0048" fill-opacity="0.54"/>
</g>
</g>
<g opacity="0.69">
<path opacity="0.69" d="M323.723 157.802C320.806 155.66 316.856 155.845 313.238 156.103C312.019 156.177 310.727 156.325 309.878 157.174C309.361 157.691 309.066 158.429 308.844 159.131C306.408 165.924 303.971 172.717 301.571 179.511C301.128 180.729 300.722 181.984 300.833 183.239C301.091 185.713 303.38 187.448 305.632 188.556C311.17 191.288 317.447 192.137 323.575 192.949C333.802 194.279 348.127 192.433 346.022 178.403C345.395 174.083 342.367 171.757 339.008 169.358C333.728 165.702 328.855 161.567 323.723 157.802Z" fill="#DE0048" fill-opacity="0.54"/>
</g>
<g opacity="0.69">
<path opacity="0.69" d="M319.366 62.6221C314.714 62.4006 309.397 61.6252 306.961 57.6747C305.632 55.4964 305.558 52.8382 305.521 50.3276C305.41 40.0638 306.038 29.8 307.33 19.61C307.514 18.3178 307.736 16.9149 308.622 15.9549C309.397 15.1058 310.542 14.7734 311.649 14.4411C318.11 12.6689 324.867 11.8938 331.549 12.0784C334.872 12.1891 338.601 12.7428 340.631 15.401C342.034 17.247 342.256 19.7208 342.403 22.0099C343.105 33.1967 344.397 45.9711 342.514 57.0841C340.89 66.5726 326.602 62.9913 319.366 62.6221Z" fill="#DE0048" fill-opacity="0.54"/>
</g>
<g opacity="0.69">
<path opacity="0.69" d="M291.126 190.033C289.834 190.033 288.505 190.033 287.213 190.033C286.806 190.033 286.4 190.033 286.068 189.775C285.773 189.553 285.625 189.147 285.514 188.778C284.739 186.157 284.333 183.424 284.259 180.692C284.148 176.299 291.827 176.779 293.6 179.806C295.593 183.203 296.073 190.033 291.126 190.033Z" fill="#DE0048" fill-opacity="0.54"/>
</g>
<path opacity="0.69" d="M280.418 179.989C277.39 177.516 273.625 178.328 270.228 179.177C266.351 180.137 262.696 179.509 258.746 179.989C258.894 182.241 259.005 184.456 259.152 186.709C259.189 187.225 259.226 187.816 259.558 188.222C260.038 188.813 260.887 188.887 261.626 188.887C263.619 188.887 265.65 188.739 267.644 188.481C267.644 185.933 267.57 183.386 267.311 180.838L270.671 181.097C270.117 183.238 270.819 186.192 271.409 188.296C271.594 188.961 271.889 189.699 272.554 189.994C272.997 190.216 273.551 190.142 274.031 190.105C277.243 189.699 282.411 190.364 283.039 186.524C283.371 184.383 282.042 181.318 280.418 179.989Z" fill="#DE0048" fill-opacity="0.54"/>
<g opacity="0.69">
<path opacity="0.69" d="M247.078 190.366C246.487 190.107 245.897 189.775 245.601 189.184C245.343 188.704 245.306 188.15 245.306 187.597C245.232 185.824 245.158 184.015 245.121 182.243C244.937 176.853 252.727 178.514 254.351 182.169C254.905 183.425 255.976 187.707 255.459 189C254.314 191.879 249.589 191.436 247.078 190.366Z" fill="#DE0048" fill-opacity="0.54"/>
</g>
<g opacity="0.69">
<path opacity="0.69" d="M241.394 191.25C238.182 191.804 234.86 191.693 231.685 190.991C231.389 190.917 231.094 190.844 230.872 190.659C230.651 190.438 230.54 190.105 230.466 189.81C229.617 186.598 229.285 183.275 229.469 179.989C229.506 179.14 239.511 179.066 240.434 179.915C242.465 181.687 241.579 188.776 241.394 191.25Z" fill="#DE0048" fill-opacity="0.54"/>
</g>
<g opacity="0.69">
<path opacity="0.69" d="M225.96 187.783C226.071 188.632 226.182 189.592 225.776 190.368C225.037 191.807 223.044 191.992 221.419 191.955C219.315 191.918 217.173 191.881 215.069 191.844C214.109 191.844 213.039 191.771 212.448 191.032C212.152 190.663 212.005 190.183 211.931 189.703C211.303 186.749 211.082 183.685 211.34 180.658C211.451 179.439 224.336 180.658 225.591 180.953C224.447 182.578 225.702 185.826 225.96 187.783Z" fill="#DE0048" fill-opacity="0.54"/>
</g>
</g>
<path d="M277.108 480.511C282.316 480.088 287.566 480.299 292.731 481.188C296.711 484.152 301.072 486.608 305.645 488.471C307 489.021 308.397 489.529 309.371 490.588C310.345 491.646 310.768 493.382 309.837 494.526C309.032 495.499 307.593 495.584 306.365 495.626C296.754 495.711 287.1 494.907 277.616 493.171C277.066 493.086 276.43 492.959 276.049 492.535C275.711 492.197 275.584 491.731 275.457 491.308C274.44 487.666 275.076 483.644 277.108 480.511Z" fill="#550B23"/>
<path d="M259.702 483.096C254.494 482.672 249.244 482.884 244.079 483.773C240.099 486.737 235.738 489.193 231.165 491.056C229.81 491.607 228.413 492.115 227.439 493.173C226.465 494.232 226.042 495.968 226.973 497.111C227.778 498.085 229.217 498.169 230.445 498.212C240.057 498.296 249.71 497.492 259.194 495.756C259.745 495.671 260.38 495.544 260.761 495.121C261.1 494.782 261.227 494.359 261.354 493.893C262.327 490.252 261.692 486.229 259.702 483.096Z" fill="#550B23"/>
<path d="M238.154 387.955C236.884 359.29 236.08 330.625 236.291 301.918C235.445 292.01 236.8 281.891 240.314 272.576C240.525 271.983 240.78 271.39 241.203 270.967C242.558 269.612 244.844 270.331 246.58 271.051C263.601 278.08 283.67 276.429 299.209 266.521C302.257 271.178 303.146 276.894 303.908 282.441C305.136 291.375 306.449 300.309 306.788 309.285V309.328C306.872 311.275 306.915 313.181 306.872 315.128C306.661 326.306 304.501 337.357 302.808 348.366C301.707 355.564 300.733 362.804 300.648 370.087C300.564 376.057 301.41 381.519 300.055 387.362C296.753 401.758 296.753 417.424 295.356 432.116C293.874 447.867 292.392 463.618 291.164 479.369C291.122 480.004 291.079 480.639 291.037 481.232C290.233 481.443 278.123 484.238 278.123 481.105C277.15 450.492 276.176 419.88 275.202 389.31C274.779 376.438 274.355 363.355 271.095 351.076C260.341 352.134 262.077 387.701 261.653 396.719C260.341 425.554 259.07 454.388 257.758 483.222C253.651 483.222 249.544 483.264 245.479 483.264C243.151 476.574 242.685 469.419 242.261 462.348C240.737 437.536 239.255 412.767 238.154 387.955Z" fill="#FCC9A7"/>
<path d="M287.605 138.48C273.04 139.623 259.11 142.418 246.069 134.796C216.304 169.008 230.954 166.552 227.694 199.917C227.016 206.903 236.543 223.077 236.035 230.106C233.494 264.19 220.2 320.207 221.385 354.419C221.724 363.988 222.232 373.726 224.645 382.702C225.365 385.327 226.297 387.995 227.948 389.562C229.895 391.382 232.394 391.34 234.722 391.171C260.677 389.646 280.407 377.283 311.442 395.024C317.878 334.053 303.694 271.981 300.603 230.106C298.486 201.187 309.622 190.729 303.821 160.836C302.466 153.85 300.9 146.694 297.555 141.232C296.623 139.708 292.643 137.93 294.125 137.633C296.327 137.252 292.855 138.099 287.605 138.48Z" fill="#4D1C6B"/>
<path d="M305.894 27.8013C305.767 27.0816 305.64 26.4039 305.344 25.7688C304.582 24.2022 305.047 22.932 303.566 22.0852C302.084 21.2384 300.475 20.18 300.051 18.5287C299.924 18.063 301.237 16.4539 301.11 15.9881C300.813 14.8872 298.696 15.1412 298.231 14.0827C297.088 11.5846 297.977 8.4091 300.136 6.71547C302.295 5.02184 305.429 4.81025 307.884 6.03813C309.662 6.92729 311.017 8.49373 312.203 10.1027C313.007 11.2459 313.769 12.4317 314.235 13.7866C316.056 19.0792 312.923 25.0492 314.489 30.4265C314.701 31.1886 314.997 32.1199 314.405 32.6704C314.193 32.8821 313.939 32.9669 313.685 33.0516C312.584 33.4326 307.672 34.9567 306.995 33.6865C306.572 32.9667 306.614 31.6542 306.487 30.8498C306.233 29.8336 306.064 28.8175 305.894 27.8013Z" fill="#FCC9A7"/>
<path d="M299.246 16.537C299.204 16.2406 299.246 15.9444 299.246 15.648C299.246 15.4787 299.204 15.2669 299.246 15.0976C299.331 14.5471 299.881 14.2508 300.389 14.0391C300.771 13.912 301.194 13.8273 301.575 13.7426C301.829 13.7003 302.125 13.7003 302.337 13.785C302.549 13.8697 302.718 13.9966 302.845 14.1659C303.184 14.5047 303.523 14.8434 303.861 15.1821C304.115 15.4361 304.327 15.7326 304.496 16.0713C304.92 17.0028 304.496 18.1885 303.734 18.8236C303.099 19.374 301.617 20.0937 300.813 19.4586C300.432 19.1622 300.178 18.654 299.924 18.3153C299.585 17.8072 299.289 17.2145 299.246 16.537Z" fill="#FCC9A7"/>
<path d="M239.507 81.3211C240.481 78.6113 241.624 75.9863 243.106 73.5306C248.314 65.02 262.37 54.6465 272.236 62.1409C274.522 63.8768 276.173 66.3326 277.697 68.7884C279.264 71.3289 280.704 73.9116 281.762 76.6637C283.752 81.8717 284.387 87.9686 283.075 93.4729C281.847 98.5538 278.756 103.381 275.877 107.657C272.066 113.331 267.24 119.047 260.55 120.656C251.658 122.815 242.301 116.464 238.745 108.038C235.23 99.6971 236.458 89.9587 239.507 81.3211Z" fill="#FCC9A7"/>
<path d="M305.429 101.263C303.27 113.669 299.798 126.033 300.73 138.608C300.941 141.445 301.873 144.875 304.625 145.552C307.165 146.187 309.536 144.028 311.061 141.868C312.839 139.328 314.194 136.533 315.125 133.612C316.226 130.098 316.734 126.456 317.2 122.773C320.799 94.7853 324.398 66.3744 319.867 38.514C319.317 35.1691 318.512 31.6124 315.887 29.453C313.601 27.59 310.298 27.1666 307.462 27.59C302.931 28.2251 303.736 29.2413 304.54 33.3907C306.022 40.885 307.081 48.4643 307.673 56.0856C308.774 71.159 308.012 86.3593 305.429 101.263Z" fill="#AC224F"/>
<path d="M301.96 219.097C289.301 222.188 276.048 221.553 263.008 222.569C253.693 223.289 244.505 224.898 235.148 225.11C234.978 225.11 234.767 225.11 234.64 225.279C234.513 225.406 234.513 225.576 234.513 225.745C234.386 228.624 235.233 228.285 237.858 228.074C240.398 227.862 242.896 227.693 245.436 227.481C250.433 227.1 255.471 226.719 260.467 226.338C264.32 226.041 268.215 225.745 272.068 225.618C280.875 225.279 289.724 225.787 298.531 225.491C299.378 225.449 300.309 225.406 300.944 224.898C301.749 224.263 301.96 223.162 301.918 222.146C301.918 221.087 301.749 220.071 301.96 219.097Z" fill="#4D1C6B"/>
<path d="M283.875 218.123C284.552 221.171 284.848 224.347 284.764 227.48C283.748 227.777 282.731 228.031 281.715 228.327C281.588 228.369 281.419 228.412 281.292 228.369C281.038 228.285 280.953 227.946 280.953 227.692C280.741 225.321 279.979 222.484 280.233 220.113C280.36 218.843 279.852 218.758 280.826 218.123C281.038 217.953 283.875 218.165 283.875 218.123Z" fill="#2D0A42"/>
<path d="M260.467 227.225C259.917 225.15 260.129 222.864 259.536 220.789C258.985 218.884 257.249 219.604 255.556 219.773C255.471 219.773 255.344 219.816 255.26 219.858C255.175 219.943 255.175 220.07 255.175 220.197C255.175 221.467 255.513 222.695 255.725 223.922C256.022 225.531 256.106 227.183 256.022 228.834C257.334 229.342 258.816 228.665 260.086 227.987C260.213 227.903 260.34 227.86 260.425 227.733C260.51 227.564 260.467 227.394 260.467 227.225Z" fill="#2D0A42"/>
<path d="M193.016 206.478C191.831 205.292 190.561 204.107 189.883 202.583C189.291 201.27 189.121 199.746 189.037 198.306C188.994 197.756 188.952 197.163 189.164 196.655C189.333 196.232 189.672 195.935 190.053 195.639C191.281 194.665 193.017 194.03 194.456 194.707C196.107 195.469 196.827 197.714 198.605 198.179C199.833 198.476 201.4 197.968 202.12 198.984C202.416 199.407 202.416 199.915 202.416 200.423C202.331 204.022 201.527 207.875 203.263 211.051C203.601 211.728 204.067 212.49 203.686 213.125C203.474 213.422 203.136 213.591 202.797 213.761C199.876 214.946 199.241 214.65 197.632 212.194C196.277 210.119 194.71 208.214 193.016 206.478Z" fill="#FCC9A7"/>
<path d="M198.266 220.493C200.002 223.118 201.696 225.701 203.432 228.326C205.464 231.417 207.878 234.762 211.477 235.524C216.007 236.456 220.156 232.941 223.289 229.596C227.523 225.066 231.546 220.112 233.451 214.227C234.213 211.898 234.594 209.485 235.102 207.071C237.77 193.818 243.02 181.201 249.202 169.176C251.022 165.619 252.97 161.216 250.853 157.786C249.032 154.822 244.841 154.145 241.623 155.415C238.405 156.728 236.118 159.522 234.255 162.444C225.279 176.628 226.634 195.555 217.065 209.358C215.584 211.517 214.525 216.979 212.112 217.995C209.698 219.011 206.142 211.22 204.575 209.103C203.982 208.341 203.644 207.41 203.009 206.648C202.373 205.886 198.732 208.934 197.843 209.4C193.186 211.856 196.361 217.614 198.266 220.493Z" fill="#AC224F"/>
<path d="M223.251 133.782C225.156 131.495 227.569 129.505 228.416 126.668C229.051 124.424 228.585 122.053 228.67 119.724C228.755 117.396 229.644 114.771 231.846 113.966C233.963 113.204 235.953 114.474 237.816 115.998C238.832 115.533 239.975 115.194 240.991 114.771C246.58 112.484 250.348 106.937 251.915 101.137C253.481 95.2937 253.185 89.1542 252.719 83.1418C252.381 79.2041 251.957 75.1819 250.899 71.4136C245.733 67.4759 242.6 60.7861 247.427 55.0701C252.889 48.6343 263.177 46.1361 271.095 48.3802C280.367 51.0053 299.251 61.6327 299.759 71.2865C300.098 78.3997 298.743 85.894 301.537 92.4145C304.035 98.2575 297.049 99.7396 302.215 103.423C303.273 104.185 304.332 105.032 304.925 106.218C305.644 107.784 305.475 109.774 306.703 110.96C307.296 111.553 308.1 111.807 308.904 112.061C313.181 113.416 318.473 115.575 318.643 120.063C318.685 121.757 318.008 123.62 318.981 124.975C319.489 125.694 320.336 126.033 320.971 126.626C322.538 128.193 322.199 130.818 321.352 132.85C320.506 134.883 319.193 136.83 319.193 139.074C319.193 140.641 319.871 142.165 319.955 143.774C320.125 146.653 318.177 149.49 315.467 150.379C312.884 151.226 309.243 150.803 308.185 153.301C307.846 154.063 307.888 154.994 307.38 155.672C306.957 156.307 306.195 156.603 305.475 156.773C300.098 158.043 293.535 153.47 289.343 157.069C286.464 159.525 286.803 164.479 283.839 166.85C280.41 169.644 274.651 167.316 271.264 170.152C270.248 170.957 269.571 172.143 268.512 172.82C265.802 174.514 262.288 172.227 260.595 169.517C258.901 166.807 258.012 163.505 255.514 161.515C251.026 157.958 244.548 160.583 238.789 160.795C234.894 160.922 230.956 159.779 227.781 157.577C226.68 156.815 225.622 155.926 225.071 154.74C223.589 151.607 225.622 147.542 223.801 144.621C223.208 143.647 222.234 142.927 221.642 141.953C219.948 139.371 221.388 136.068 223.251 133.782Z" fill="#AC224F"/>
<path d="M129.293 165.787C129.336 167.946 129.505 170.275 130.818 172.011C132.13 173.747 135.009 174.425 136.491 172.816C137.38 171.842 137.465 170.36 137.507 169.005C137.677 159.394 137.296 149.74 136.407 140.171C136.068 136.572 135.771 132.549 138.015 129.712C139.328 128.061 141.36 127.172 142.927 125.775C144.536 124.378 145.721 122.049 144.705 120.228C144.239 119.381 143.435 118.746 143.266 117.815C143.012 116.502 144.197 115.444 144.917 114.343C145.679 113.242 145.637 111.252 144.324 111.125C143.012 113.623 141.276 115.867 139.243 117.857C138.693 118.365 138.1 118.916 137.338 118.958C136.153 119.043 135.263 117.942 134.29 117.264C133.316 116.587 131.495 116.629 131.41 117.857C134.501 124.081 131.919 133.058 131.072 139.663C130.013 148.3 129.082 157.022 129.293 165.787Z" fill="#57331F"/>
<path d="M142.418 155.287C141.233 154.567 139.793 154.525 138.396 154.482C134.712 154.398 131.029 154.313 127.388 154.228C126.16 154.186 124.678 154.355 124.17 155.456C123.535 156.811 124.974 158.166 125.948 159.267C129.335 163.078 128.616 168.878 127.684 173.875C127.43 175.272 126.964 176.923 125.652 177.389C123.619 178.108 122.01 175.653 121.248 173.621C118.793 166.846 116.337 160.071 113.924 153.297C112.865 150.375 111.807 147.411 109.944 144.913C102.703 135.259 88.1808 143.304 94.1084 154.313C100.713 166.507 111.044 177.77 119.174 188.99C122.519 193.563 126.837 198.644 132.469 198.348C133.019 198.305 133.654 198.221 134.035 197.84C134.585 197.331 138.269 195.13 138.311 194.41C138.777 185.688 139.031 178.236 139.497 169.513C139.624 167.015 138.608 163.797 139.751 161.596C140.894 159.394 141.106 158.42 143.562 158.843C144.324 157.7 143.604 156.007 142.418 155.287Z" fill="#2D0A42"/>
<path d="M37.3341 231.121C39.4934 214.692 45.2093 198.984 49.0199 182.894C51.8144 171.124 53.5503 159.099 55.6249 147.201C56.7681 140.553 58.0383 133.906 59.3085 127.258C59.4355 126.539 59.6473 125.692 60.2824 125.268C60.7905 124.93 61.5102 124.93 62.1453 124.972C69.6819 125.522 77.176 126.496 84.5855 127.978C90.3014 129.121 96.0596 130.561 101.056 133.567C102.411 134.414 103.766 135.388 104.57 136.785C105.374 138.182 105.586 139.834 105.756 141.443C107.618 156.05 112.445 170.15 114.732 184.673C116.214 194.157 116.637 203.726 117.06 213.295C117.484 223.542 117.949 233.746 118.373 243.992C118.627 250.005 118.966 258.134 110.709 256.271C103.596 254.662 96.7794 254.789 89.5393 254.239C72.8997 253.011 56.2601 248.946 41.7374 240.563C40.2979 239.758 38.8583 238.827 38.0115 237.429C36.8683 235.566 37.0377 233.28 37.3341 231.121Z" fill="#4D1C6B"/>
<path d="M73.7869 67.982C78.656 67.3468 83.5251 66.9656 88.4365 66.7539C93.8561 72.1736 97.2009 79.3717 99.0215 86.8237C100.461 92.7938 100.927 99.1024 99.5296 105.115C98.1324 111.127 94.7452 116.759 89.5797 120.146C81.7892 125.269 70.8231 124.253 63.2442 118.791C55.6654 113.287 51.389 104.014 50.6693 94.6991C50.0765 86.866 51.8124 78.9906 54.7762 71.6656C60.4921 69.3792 68.071 68.7441 73.7869 67.982Z" fill="#57331F"/>
<path d="M113.37 405.866C114.496 427.918 115.924 437.964 118.176 459.93C115.145 459.504 114.279 459.419 111.248 458.994C107.914 446.265 104.277 444.861 101.983 431.877C100.381 422.682 98.2156 413.614 96.0507 404.547C90.0323 379.175 84.0139 353.804 77.9955 328.39C75.311 317.151 72.6698 305.87 68.4699 295.058C63.967 283.521 58.598 267.047 74.2719 261.598C83.1479 258.533 95.1848 260.108 101.247 267.557C108.131 276.029 107.525 289.311 108.044 299.485C108.867 316.215 109.733 332.945 110.556 349.675C111.508 368.448 112.461 387.136 113.37 405.866Z" fill="#AC224F"/>
<path d="M76.3506 274.325C75.4414 272.026 74.2723 269.684 72.2373 268.279C69.5528 266.449 66.0457 266.577 62.7984 266.832C57.9057 267.258 53.013 267.854 48.1636 268.705C44.1802 269.386 39.8937 270.408 37.469 273.601C35.2175 276.581 35.1742 280.582 35.3041 284.286C36.0402 311.573 37.1659 338.818 38.6814 366.063C40.1102 391.051 45.7823 408.292 47.9039 433.195C48.7265 442.859 49.4193 441.241 51.2378 459.163C51.3677 460.567 51.2378 459.759 51.844 460.525C52.1904 460.312 52.58 460.184 53.0563 460.142C54.7016 460.057 54.3986 461.462 56.0439 461.376C56.4336 461.334 56.7366 461.419 57.0397 461.504C57.7758 459.716 58.2088 457.375 58.382 454.948C61.7592 405.95 65.5694 372.406 75.1816 324.131C78.5155 307.614 82.4123 290.075 76.3506 274.325Z" fill="#AC224F"/>
<path d="M109.56 258.319C109.69 256.829 109.776 255.254 109.084 253.892C108.174 252.061 106.183 250.954 104.278 250.06C87.2614 241.887 67.7774 238.183 48.683 239.418C46.8212 239.546 44.8728 239.759 43.4006 240.78C41.4089 242.185 40.846 244.654 40.4131 246.91C39.0275 254.062 37.5987 261.214 36.2132 268.323C35.2606 273.091 34.4379 278.284 36.9925 282.499C38.4213 284.84 40.7594 286.585 43.0975 288.118C58.1652 297.824 78.2554 301.485 96.1375 297.526C102.935 295.993 107.092 293.652 107.655 286.883C108.348 277.348 108.737 267.812 109.56 258.319Z" fill="#AC224F"/>
<path d="M39.6339 276.582C40.9761 276.582 42.4483 276.326 44.0936 275.858C46.8647 275.049 48.943 273.943 50.4584 272.453C52.8831 270.154 54.0088 266.876 55.0047 264.024C56.7366 259 58.7283 253.296 58.3819 247.592L57.3861 247.634C57.6892 253.168 55.9139 258.83 54.0521 263.726C52.8831 266.791 51.4976 270.409 49.7657 271.771C48.2069 273.006 46.3884 274.155 43.7905 274.921C40.803 275.815 38.4216 275.816 36.4732 275.007L36.0835 275.901C37.1659 276.369 38.335 276.582 39.6339 276.582Z" fill="#AC224F"/>
<path d="M106.572 281.349L107.179 280.626C103.758 277.859 101.247 273.474 100.121 268.281C99.0819 263.47 99.2118 258.447 99.5582 253.722L98.5623 253.637C98.2592 258.447 98.086 263.556 99.1685 268.451C100.338 273.857 102.979 278.455 106.572 281.349Z" fill="#AC224F"/>
<path d="M45.3785 69.7596C46.4794 67.1345 48.173 64.7635 50.2053 62.7312C55.7095 57.1845 63.4577 54.1359 71.2906 53.8818C79.0812 53.5854 86.8718 55.9565 93.5615 59.9789C96.483 61.7572 99.2774 63.8743 101.225 66.6264C104.739 71.6227 105.29 78.1007 104.993 84.1977C104.697 90.2101 103.977 100.33 99.8702 105.199C99.7431 98.8901 101.013 94.7831 99.7431 90.2103C98.3036 85.0024 97.4145 80.0907 94.1543 75.7719C92.8417 74.036 87.8879 73.1468 85.7709 73.6125C86.025 76.4494 85.6439 79.3711 84.6278 82.0386C81.791 76.3649 74.5085 74.4172 68.1998 75.1794C65.0667 75.5604 61.8912 76.4918 59.3931 78.4818C55.1591 81.8691 53.6772 87.6698 53.6772 93.0471C53.6772 98.4667 54.9474 103.759 55.1168 109.179C51.0521 107.485 49.0621 102.913 47.7496 98.7209C46.8181 95.757 45.9713 92.7508 45.2939 89.7446C43.7273 83.1818 42.7535 76.0261 45.3785 69.7596Z" fill="#2D0A42"/>
<path d="M31.9549 59.0469C32.2936 55.9561 33.1828 52.7803 35.0881 50.3245C37.6285 46.9797 41.8201 45.2014 45.9694 44.5239C50.2458 43.8465 54.9031 44.3547 58.4597 46.7681C68.706 53.7119 61.7622 71.4102 52.1934 75.5596C45.5884 78.4387 36.824 75.9407 33.4791 69.5897C31.8279 66.4141 31.5315 62.6459 31.9549 59.0469Z" fill="#2D0A42"/>
<path d="M82.1715 130.223C82.1715 129.546 82.1292 128.826 81.6635 128.36C81.3671 128.064 80.986 127.937 80.605 127.81C75.7782 126.158 70.8244 124.93 65.7859 124.083C65.1932 125.142 64.6428 126.243 64.05 127.301C63.8383 127.683 63.6689 128.063 63.6689 128.444C63.6689 128.91 63.9653 129.291 64.2617 129.63C65.6589 131.366 67.3948 132.806 69.1308 134.161C72.8567 137.082 77.6411 141.57 82.1715 143.094C82.849 141.486 82.2986 138.522 82.2562 136.701C82.2139 134.584 82.2139 132.425 82.1715 130.223Z" fill="#2D0A42"/>
<path d="M84.6228 129.967C84.7498 129.247 84.8768 128.442 85.3849 127.934C86.0623 127.214 87.2055 127.087 88.1794 127.426C89.1108 127.765 89.9153 128.442 90.6351 129.077C92.4134 130.644 94.234 132.211 96.0123 133.777C96.1393 133.862 96.2663 133.989 96.3087 134.158C96.3933 134.455 96.1393 134.751 95.9276 134.963C94.6574 136.233 93.3449 137.461 92.0323 138.689C91.0162 139.663 89.9576 140.636 88.6874 141.187C86.1047 142.288 83.776 142.499 83.7336 139.366C83.6913 136.233 84.1571 133.015 84.6228 129.967Z" fill="#2D0A42"/>
<path d="M85.4336 152.322C85.8147 162.568 84.5868 172.773 83.3589 182.934C83.3166 183.358 82.7662 183.866 82.6392 183.485C83.2743 177.557 83.6553 171.587 83.7824 165.617C83.9094 160.409 83.867 155.244 83.613 150.036C83.5706 149.316 82.6815 143.854 84.6292 144.997C85.73 145.632 85.3913 151.052 85.4336 152.322Z" fill="#333333"/>
<path d="M116.891 451.3C117.655 451.467 118.418 451.676 118.876 452.134C119.283 452.509 119.385 453.051 119.538 453.509C120.505 457.509 121.319 461.551 121.981 465.593C122.286 467.551 122.591 469.551 123.457 471.426C125.289 475.301 129.564 478.135 134.246 479.76C137.961 481.052 141.931 481.635 145.85 482.135C147.122 482.302 146.23 482.26 146.841 483.302C147.503 484.427 144.74 485.744 143.773 486.577C142.144 487.994 138.18 487.468 135.839 487.052C129.325 485.843 128.393 484.927 122.032 483.302C120.556 482.927 118.978 482.51 117.909 481.552C117.349 481.052 116.993 480.468 116.637 479.885C115.263 477.676 113.94 475.426 112.718 473.135C112.209 475.843 111.446 478.551 110.53 481.218C109.919 481.052 109.206 481.052 108.596 481.302C109.257 471.051 109.461 460.759 109.206 450.509C111.802 450.509 114.398 450.759 116.891 451.3Z" fill="#2D0A42"/>
<path d="M103.72 234.083C92.9656 225.784 82.2112 217.443 71.4991 209.144C70.9487 208.721 70.3983 208.298 69.7209 208.255C68.7047 208.17 67.8579 208.975 67.1804 209.779C66.1219 210.965 65.1058 212.32 64.9788 213.929C64.7671 216.723 67.3922 218.84 69.7632 220.365C80.6446 227.478 91.8224 234.295 104.016 238.867C110.156 241.154 116.549 242.89 122.18 246.192C123.45 246.954 124.721 247.801 126.16 248.14C127.6 248.479 129.293 248.182 130.182 246.997C131.199 245.684 130.86 243.779 130.436 242.17C129.632 238.952 128.108 235.099 124.805 234.887C122.985 234.76 121.503 235.777 119.851 236.327C117.777 237.047 117.142 236.412 115.236 236.285C113.458 236.158 112.273 237.216 110.41 237.258C107.869 237.301 105.668 235.565 103.72 234.083Z" fill="#57331F"/>
<path d="M39.0699 169.09C38.2231 173.409 37.207 177.77 37.2493 182.173C37.2917 185.518 37.9268 188.863 38.5619 192.166C39.451 196.612 40.3825 201.227 43.1769 204.826C47.7073 210.627 55.7519 212.109 62.1029 215.792C61.2137 217.316 60.3246 219.01 60.6633 220.746C61.0021 222.482 63.2884 223.795 64.5586 222.609C64.982 222.228 65.1937 221.635 65.4054 221.127C66.972 217.147 69.089 213.379 71.7141 209.949C72.9419 208.34 74.3391 206.731 74.8049 204.741C75.2706 202.751 74.4238 200.296 72.4762 199.745C70.8672 201.396 72.3068 200.677 70.6979 202.328C70.3592 202.709 69.9781 203.09 69.4701 203.217C68.5386 203.471 67.6071 202.794 66.845 202.159C65.5748 201.058 64.3046 199.957 63.0344 198.898C62.0182 198.051 61.0021 197.12 60.494 195.934C60.0706 194.918 60.0706 193.733 60.1553 192.632C60.9174 180.522 65.0667 172.139 67.8188 160.326C68.5809 157.023 68.962 153.594 68.2845 150.291C67.0143 144.236 62.3569 139.578 57.9536 135.302C57.1491 134.54 56.3023 133.693 55.2015 133.439C54.3547 133.227 53.4232 133.397 52.5341 133.609C45.3363 135.514 42.9229 139.833 42.3301 146.565C41.695 154.102 40.5942 161.638 39.0699 169.09Z" fill="#2D0A42"/>
<path d="M77.5961 95.8389C74.1666 94.6533 71.0334 92.5787 68.5354 89.9113C67.2228 90.8004 66.7994 92.5364 66.6301 94.1454C65.868 101.597 68.9587 109.303 74.6747 114.13C72.2189 113.919 69.7632 113.749 67.3075 113.538C66.9264 113.495 66.4607 113.495 66.2066 113.749C65.8256 114.088 65.9103 114.681 66.0373 115.147C66.7148 117.729 67.9426 120.143 69.6362 122.175C64.7671 121.836 60.2791 119.296 56.7648 115.909C53.293 112.521 50.7102 108.33 48.4238 104.011C46.1375 99.7345 44.0628 95.2039 43.3007 90.4193C42.5385 85.6348 43.1313 80.4269 45.8834 76.4045C49.1436 71.5776 54.9442 69.0793 60.6178 67.8091C64.132 67.0046 67.8156 66.6237 71.3298 67.3858C73.4892 67.8515 77.3421 69.1641 78.4429 71.3235C79.6284 73.6099 77.215 75.981 76.4529 78.2251C74.3783 83.9411 74.7593 90.5039 77.5961 95.8389Z" fill="#2D0A42"/>
<path d="M62.2038 465.642C62.8417 468.733 63.0239 471.951 64.5274 474.745C66.9421 479.191 72.2727 481.605 77.421 483.002C77.9677 483.171 78.56 483.341 78.9245 483.764C79.1978 484.103 79.2434 484.569 79.2434 484.992C79.3346 486.432 79.4257 487.829 79.5168 489.269C79.5168 489.48 79.5623 489.734 79.4256 489.904C79.1978 490.2 78.7878 490.2 78.3778 490.2C72.6827 489.988 67.0332 490.073 61.3382 490.496C60.4725 490.581 59.5158 490.623 58.7413 490.2C57.6023 489.565 57.2833 488.125 57.42 486.898C57.5567 485.67 57.9667 484.399 57.6933 483.172C57.42 481.944 56.1443 480.8 54.8686 481.181C54.4586 483.891 54.5952 486.686 55.2786 489.353C54.1396 489.734 52.955 489.861 51.7705 489.692C52.2716 482.452 52.8184 475.127 51.4516 467.929C50.996 465.431 49.1735 461.959 50.3581 459.503C51.4516 457.216 54.3219 457.09 56.6455 457.005C59.4702 456.92 59.6524 457.936 60.6092 460.265C61.2926 462.043 61.8394 463.822 62.2038 465.642Z" fill="#2D0A42"/>
<defs>
<filter id="filter0_d_650_1522" x="42.6914" y="469.306" width="296.625" height="37.3843" filterUnits="userSpaceOnUse" color-interpolation-filters="sRGB">
<feFlood flood-opacity="0" result="BackgroundImageFix"/>
<feColorMatrix in="SourceAlpha" type="matrix" values="0 0 0 0 0 0 0 0 0 0 0 0 0 0 0 0 0 0 127 0" result="hardAlpha"/>
<feOffset dy="4"/>
<feGaussianBlur stdDeviation="2"/>
<feComposite in2="hardAlpha" operator="out"/>
<feColorMatrix type="matrix" values="0 0 0 0 0.174892 0 0 0 0 0.03875 0 0 0 0 0.258333 0 0 0 0.2 0"/>
<feBlend mode="normal" in2="BackgroundImageFix" result="effect1_dropShadow_650_1522"/>
<feBlend mode="normal" in="SourceGraphic" in2="effect1_dropShadow_650_1522" result="shape"/>
</filter>
</defs>
</svg>
