<svg width="19" height="19" viewBox="0 0 19 19" fill="none" xmlns="http://www.w3.org/2000/svg">
  <path fill-rule="evenodd" clip-rule="evenodd" d="M13.9915 12.9276L17.2175 16.1529L16.1517 17.2187L12.9264 13.9927C11.7264 14.9547 10.2337 15.4779 8.69564 15.4757C4.95369 15.4757 1.91675 12.4388 1.91675 8.69686C1.91675 4.95491 4.95369 1.91797 8.69564 1.91797C12.4376 1.91797 15.4745 4.95491 15.4745 8.69686C15.4767 10.2349 14.9535 11.7276 13.9915 12.9276ZM12.4805 12.3688C13.4364 11.3857 13.9703 10.068 13.9681 8.69686C13.9681 5.78344 11.6083 3.42439 8.69564 3.42439C5.78222 3.42439 3.42317 5.78344 3.42317 8.69686C3.42317 11.6095 5.78222 13.9693 8.69564 13.9693C10.0668 13.9715 11.3845 13.4376 12.3675 12.4817L12.4805 12.3688Z" fill="#F5F5FE"/>
</svg>