<svg width="16" height="16" viewBox="0 0 16 16" fill="none" xmlns="http://www.w3.org/2000/svg">
<path fill-rule="evenodd" clip-rule="evenodd" d="M7.99967 14.6668C4.31767 14.6668 1.33301 11.6822 1.33301 8.00016C1.33301 4.31816 4.31767 1.3335 7.99967 1.3335C11.6817 1.3335 14.6663 4.31816 14.6663 8.00016C14.6663 11.6822 11.6817 14.6668 7.99967 14.6668ZM7.99967 13.3335C10.9452 13.3335 13.333 10.9457 13.333 8.00016C13.333 5.05464 10.9452 2.66683 7.99967 2.66683C5.05416 2.66683 2.66634 5.05464 2.66634 8.00016C2.66634 10.9457 5.05416 13.3335 7.99967 13.3335ZM7.33301 10.0002H8.66634V11.3335H7.33301V10.0002ZM8.66634 8.9035V9.3335H7.33301V8.3335C7.33301 7.96531 7.63148 7.66683 7.99967 7.66683C8.52644 7.6668 8.96286 7.25813 8.99745 6.7325C9.03205 6.20687 8.65295 5.74453 8.13073 5.67546C7.60851 5.60639 7.12225 5.95428 7.01901 6.47083L5.71101 6.20883C5.93533 5.08766 6.93884 4.29407 8.08153 4.33418C9.22422 4.37429 10.1696 5.2363 10.3148 6.37044C10.4599 7.50458 9.76209 8.57689 8.66634 8.9035Z" fill="#F5F5FE"/>
</svg>
