<svg width="25" height="25" viewBox="0 0 25 25" fill="none" xmlns="http://www.w3.org/2000/svg">
<path fill-rule="evenodd" clip-rule="evenodd" d="M9.90625 1.14404V3.14404H15.9062V1.14404H17.9062V3.14404H21.9062C22.4585 3.14404 22.9062 3.59176 22.9062 4.14404V20.144C22.9062 20.6963 22.4585 21.144 21.9062 21.144H3.90625C3.35397 21.144 2.90625 20.6963 2.90625 20.144V4.14404C2.90625 3.59176 3.35397 3.14404 3.90625 3.14404H7.90625V1.14404H9.90625ZM20.9062 11.144H4.90625V19.144H20.9062V11.144ZM11.9062 13.144V17.144H6.90625V13.144H11.9062ZM7.90625 5.14404H4.90625V9.14404H20.9062V5.14404H17.9062V7.14404H15.9062V5.14404H9.90625V7.14404H7.90625V5.14404Z" fill="white"/>
</svg>
