<svg width="25" height="25" viewBox="0 0 25 25" fill="none" xmlns="http://www.w3.org/2000/svg">
<path fill-rule="evenodd" clip-rule="evenodd" d="M15.4032 2.94629L21.4063 8.94629V21.9393C21.4081 22.2045 21.3045 22.4596 21.1183 22.6485C20.9321 22.8373 20.6785 22.9444 20.4132 22.9463H4.39925C3.85122 22.9463 3.4068 22.5023 3.40625 21.9543V3.93829C3.40625 3.40129 3.85525 2.94629 4.40825 2.94629H15.4032ZM14.4062 4.94629H5.40625V20.9463H19.4062V9.94629H14.4062V4.94629ZM8.40625 7.94629H11.4062V9.94629H8.40625V7.94629ZM8.40625 11.9463H16.4062V13.9463H8.40625V11.9463ZM8.40625 15.9463H16.4062V17.9463H8.40625V15.9463Z" fill="white"/>
</svg>
