<svg width="24" height="25" viewBox="0 0 24 25" fill="none" xmlns="http://www.w3.org/2000/svg">
<path d="M5 22.2427C4.73478 22.2427 4.48043 22.1373 4.29289 21.9498C4.10536 21.7622 4 21.5079 4 21.2427V3.24268C4 2.97746 4.10536 2.72311 4.29289 2.53557C4.48043 2.34803 4.73478 2.24268 5 2.24268H19C19.2652 2.24268 19.5196 2.34803 19.7071 2.53557C19.8946 2.72311 20 2.97746 20 3.24268V6.24268H18V4.24268H6V20.2427H18V18.2427H20V21.2427C20 21.5079 19.8946 21.7622 19.7071 21.9498C19.5196 22.1373 19.2652 22.2427 19 22.2427H5ZM18 16.2427V13.2427H11V11.2427H18V8.24268L23 12.2427L18 16.2427Z" fill="white"/>
</svg>
