<svg width="16" height="16" viewBox="0 0 16 16" fill="none" xmlns="http://www.w3.org/2000/svg">
<path fill-rule="evenodd" clip-rule="evenodd" d="M8 1.33334C11.682 1.33334 14.6667 4.31801 14.6667 8.00001C14.6667 11.682 11.682 14.6667 8 14.6667C4.318 14.6667 1.33333 11.682 1.33333 8.00001C1.33333 4.31801 4.318 1.33334 8 1.33334ZM8 2.66668C5.05448 2.66668 2.66667 5.05449 2.66667 8.00001C2.66667 10.9455 5.05448 13.3333 8 13.3333C10.9455 13.3333 13.3333 10.9455 13.3333 8.00001C13.3333 5.05449 10.9455 2.66668 8 2.66668ZM8.66667 4.66668V8.00001H11.3333V9.33334H7.33333V4.66668H8.66667Z" fill="#000091"/>
</svg>
