<svg width="20" height="20" viewBox="0 0 20 20" fill="none" xmlns="http://www.w3.org/2000/svg">
<path fill-rule="evenodd" clip-rule="evenodd" d="M10.8894 5.93852L12.3044 7.35352C13.6173 8.66629 14.3549 10.4469 14.3549 12.3035C14.3549 14.1602 13.6173 15.9407 12.3044 17.2535L11.9504 17.6065C9.21655 20.3403 4.78417 20.3403 2.05036 17.6065C-0.683452 14.8727 -0.683452 10.4403 2.05036 7.70652L3.46536 9.12152C2.19301 10.3828 1.6927 12.2284 2.15386 13.9595C2.61502 15.6907 3.96716 17.0429 5.69833 17.504C7.4295 17.9652 9.2751 17.4649 10.5364 16.1925L10.8904 15.8385C12.8423 13.886 12.8423 10.721 10.8904 8.76852L9.47536 7.35352L10.8904 5.93952L10.8894 5.93852ZM16.1934 10.5355C17.4657 9.27426 17.966 7.42866 17.5049 5.69749C17.0437 3.96632 15.6916 2.61418 13.9604 2.15302C12.2292 1.69186 10.3836 2.19217 9.12236 3.46452L8.76836 3.81852C6.81645 5.77102 6.81645 8.93602 8.76836 10.8885L10.1834 12.3035L8.76836 13.7175L7.35436 12.3035C6.04145 10.9907 5.30385 9.21016 5.30385 7.35352C5.30385 5.49688 6.04145 3.71629 7.35436 2.40352L7.70836 2.05052C9.47682 0.282052 12.0544 -0.408612 14.4702 0.238691C16.886 0.885994 18.7729 2.77292 19.4202 5.18869C20.0675 7.60446 19.3768 10.1821 17.6084 11.9505L16.1934 10.5355Z" fill="#666666"/>
</svg>
