<svg width="20" height="20" viewBox="0 0 20 20" fill="none" xmlns="http://www.w3.org/2000/svg">
<path fill-rule="evenodd" clip-rule="evenodd" d="M10 0C15.523 0 20 4.477 20 10C20 15.523 15.523 20 10 20C4.477 20 0 15.523 0 10C0 4.477 4.477 0 10 0ZM10 2C5.58172 2 2 5.58172 2 10C2 14.4183 5.58172 18 10 18C14.4183 18 18 14.4183 18 10C18 5.58172 14.4183 2 10 2ZM13.815 6.457L12.114 7.59C11.4397 7.01977 10.5146 6.84759 9.68025 7.13706C8.84594 7.42652 8.22624 8.13467 8.05 9H13V11H8.05C8.22624 11.8653 8.84594 12.5735 9.68025 12.8629C10.5146 13.1524 11.4397 12.9802 12.114 12.41L13.814 13.543C12.621 14.8417 10.7793 15.3239 9.10287 14.7764C7.42649 14.2289 6.22443 12.7526 6.028 11H5V9H6.027C6.22277 7.24652 7.4252 5.76923 9.10242 5.22157C10.7796 4.67391 12.6222 5.15694 13.815 6.457Z" fill="#666666"/>
</svg>
