<svg width="166" height="32" viewBox="0 0 166 32" fill="none" xmlns="http://www.w3.org/2000/svg">
<path d="M17.4255 11.6488C17.4387 13.2724 17.074 14.7344 16.3315 16.0348C15.5891 17.3351 14.5982 18.4845 13.3591 19.483C13.7402 20.0447 14.1338 20.7004 14.54 21.4501C14.9461 22.1999 15.3056 22.9971 15.6184 23.8417C15.9545 24.6627 16.2201 25.4959 16.4153 26.3415C16.6337 27.1634 16.7458 27.9273 16.7516 28.6333C16.7577 29.3863 16.5749 30.0584 16.2032 30.6498C15.8552 31.2645 15.2458 31.5753 14.3752 31.5824C13.6457 31.5883 13.0075 31.2405 12.4605 30.539C11.9371 29.8373 11.4597 29.0057 11.0283 28.0444C10.6202 27.0593 10.2356 26.0623 9.87441 25.0533C9.53675 24.0441 9.21248 23.2349 8.9016 22.6255C8.47919 22.7702 8.06872 22.9382 7.67022 23.1297C7.27152 23.2977 6.86106 23.4658 6.43884 23.6339C6.41951 24.1518 6.37828 24.8699 6.31514 25.7882C6.27534 26.6828 6.15318 27.578 5.94866 28.4739C5.76767 29.3696 5.47984 30.1486 5.08516 30.8107C4.69047 31.4728 4.14016 31.8068 3.43422 31.8125C2.65768 31.8188 2.05505 31.506 1.62633 30.8741C1.1976 30.2422 0.885576 29.4917 0.690252 28.6225C0.51846 27.7532 0.417166 26.8715 0.386371 25.9775C0.355385 25.06 0.33779 24.3424 0.333585 23.8247C0.324601 22.7187 0.33934 21.6361 0.377801 20.5768C0.416071 19.494 0.430714 18.3996 0.42173 17.2936C0.413511 16.2817 0.38176 15.2701 0.326478 14.2586C0.294728 13.247 0.274647 12.2234 0.266237 11.1881C0.264325 10.9527 0.261936 10.6586 0.259069 10.3056C0.256011 9.92913 0.264718 9.55253 0.285191 9.17584C0.329004 8.77542 0.373009 8.39854 0.417205 8.04518C0.4614 7.69183 0.541466 7.40878 0.657403 7.19605C0.888703 6.69998 1.41434 6.22505 2.2343 5.77126C3.0778 5.31728 3.99237 4.92156 4.97802 4.58409C5.987 4.2229 6.96135 3.94436 7.90108 3.74846C8.86415 3.52884 9.58099 3.41712 10.0516 3.4133C11.2517 3.40355 12.3125 3.6185 13.2338 4.05814C14.1552 4.49778 14.9249 5.10338 15.543 5.87495C16.161 6.62299 16.627 7.50169 16.9411 8.51105C17.2551 9.49688 17.4165 10.5428 17.4255 11.6488ZM10.8996 12.196C10.8946 11.5842 10.7497 11.1264 10.4648 10.8228C10.1798 10.4957 9.71955 10.3347 9.0842 10.3398C8.61358 10.3437 8.13185 10.4299 7.63903 10.5987C7.16974 10.7672 6.73594 10.959 6.33762 11.174C6.44685 13.0323 6.49715 14.8792 6.48853 16.7148C6.98135 16.5461 7.48556 16.3302 8.00114 16.0671C8.51673 15.8041 8.98478 15.4826 9.40529 15.1027C9.84933 14.7225 10.2106 14.296 10.4892 13.8231C10.7677 13.3502 10.9045 12.8078 10.8996 12.196ZM33.5502 23.802C33.5567 24.6021 33.3042 25.3925 32.7928 26.1732C32.3048 26.9302 31.675 27.6178 30.9034 28.2359C30.1552 28.8303 29.3473 29.3193 28.4797 29.7029C27.6119 30.0629 26.8132 30.2459 26.0838 30.2518C24.8366 30.262 23.7164 29.9651 22.7231 29.3613C21.7531 28.7338 20.9348 27.9404 20.2681 26.9809C19.6014 26.0215 19.0869 24.9667 18.7245 23.8165C18.3855 22.6426 18.2115 21.5027 18.2025 20.3967C18.193 19.2201 18.3475 17.9599 18.666 16.6159C18.9846 15.2719 19.4687 14.0325 20.1184 12.8977C20.7916 11.7626 21.6311 10.8145 22.6369 10.0533C23.6661 9.29184 24.8867 8.9054 26.2986 8.89393C27.0986 8.88743 27.8646 9.02241 28.5963 9.29886C29.3279 9.55178 29.9663 9.92312 30.5115 10.4129C31.0568 10.9026 31.4969 11.4874 31.8319 12.1671C32.1669 12.8469 32.3378 13.6103 32.3447 14.4574C32.3537 15.5634 32.1268 16.6007 31.664 17.5693C31.2012 18.5379 30.5844 19.3783 29.8136 20.0906C29.0428 20.8028 28.1533 21.3866 27.145 21.8419C26.1366 22.2737 25.1032 22.5175 24.0446 22.5731C24.1443 23.2548 24.4189 23.7467 24.8685 24.049C25.3416 24.3511 25.8959 24.4996 26.5312 24.4944C27.0018 24.4906 27.4597 24.3692 27.9049 24.1302C28.3501 23.8913 28.7833 23.6289 29.2046 23.3431C29.6257 23.0337 30.0353 22.7598 30.4334 22.5212C30.8551 22.2825 31.2777 22.1614 31.7012 22.1579C32.1719 22.1541 32.5967 22.3036 32.9757 22.6065C33.3546 22.9093 33.5461 23.3078 33.5502 23.802ZM27.7618 15.2006C27.7593 14.8947 27.6744 14.5777 27.507 14.2496C27.3396 13.9215 27.0794 13.7589 26.7264 13.7618C26.2087 13.766 25.7745 13.9107 25.4239 14.196C25.073 14.4577 24.7816 14.8013 24.5497 15.2267C24.3177 15.6287 24.133 16.0655 23.9956 16.5373C23.8818 17.0089 23.8147 17.4448 23.7944 17.845C24.1233 17.7718 24.5108 17.6745 24.9569 17.5532C25.4266 17.4317 25.8607 17.2752 26.2592 17.0837C26.681 16.8685 27.0319 16.6068 27.3118 16.2986C27.6152 15.9902 27.7652 15.6242 27.7618 15.2006ZM29.6366 2.65412C29.6387 2.91296 29.5702 3.17238 29.4312 3.43238C29.2919 3.66884 29.1172 3.89382 28.9072 4.10732C28.7206 4.32063 28.5105 4.52237 28.2767 4.71253C28.0427 4.87916 27.8322 5.03384 27.6451 5.17656C27.4813 5.29555 27.2942 5.43827 27.0837 5.60471C26.8966 5.74743 26.686 5.89033 26.4518 6.03343C26.241 6.15281 26.0183 6.26052 25.7838 6.35656C25.5728 6.4524 25.3614 6.50119 25.1496 6.50291C24.9613 6.50443 24.7962 6.45871 24.6543 6.36573C24.5121 6.24922 24.4402 6.08507 24.4385 5.87329C24.4356 5.52032 24.5616 5.0957 24.8164 4.59944C25.0946 4.07946 25.4318 3.58253 25.828 3.10865C26.224 2.61124 26.6442 2.196 27.0887 1.86293C27.5329 1.50633 27.9432 1.3265 28.3197 1.32344C28.6492 1.32076 28.9445 1.45956 29.2056 1.73984C29.4901 1.99639 29.6338 2.30115 29.6366 2.65412ZM50.3912 19.8528C50.4017 21.1471 50.2827 22.4306 50.0342 23.7034C49.7857 24.9762 49.3596 26.121 48.756 27.1378C48.1522 28.1311 47.3351 28.9379 46.3047 29.5581C45.2978 30.1781 44.0296 30.4944 42.5001 30.5068C40.9941 30.519 39.7328 30.2351 38.7161 29.655C37.6993 29.0514 36.881 28.258 36.2611 27.2746C35.6648 26.2911 35.2322 25.1768 34.9632 23.9317C34.7177 22.6865 34.5898 21.4167 34.5793 20.1225C34.5678 18.7106 34.7211 17.3091 35.0393 15.9181C35.1068 15.541 35.232 15.0223 35.4149 14.3619C35.6212 13.6778 35.8747 13.0168 36.1754 12.3789C36.4995 11.7174 36.8597 11.1497 37.2559 10.6758C37.6756 10.2017 38.1326 9.96269 38.6267 9.95867C39.0974 9.95485 39.4749 10.0812 39.7594 10.3378C40.0439 10.5943 40.2701 10.9219 40.4381 11.3206C40.6058 11.6958 40.7151 12.1067 40.7658 12.5535C40.8163 12.9766 40.843 13.3647 40.8458 13.7177C40.8502 14.2589 40.8075 14.7887 40.7175 15.3072C40.6512 15.8255 40.573 16.3438 40.4831 16.8623C40.3947 17.569 40.3063 18.2757 40.2179 18.9824C40.153 19.6889 40.1235 20.3951 40.1292 21.1011C40.1321 21.4541 40.1471 21.854 40.1743 22.3009C40.2248 22.7241 40.3222 23.1351 40.4667 23.534C40.6111 23.9329 40.8139 24.2725 41.075 24.5527C41.336 24.8095 41.7018 24.936 42.1724 24.9321C42.7842 24.9272 43.2653 24.7585 43.6156 24.4262C43.9894 24.0937 44.2567 23.6797 44.4174 23.1842C44.6016 22.6885 44.715 22.1581 44.7574 21.593C44.7999 21.0278 44.8192 20.51 44.8154 20.0393C44.807 19.004 44.7282 17.9927 44.579 17.0055C44.4296 15.9948 44.2918 14.9722 44.1658 13.9378C44.1413 13.8203 44.1282 13.6557 44.1264 13.4439C44.1236 13.091 44.1795 12.7375 44.2943 12.3836C44.4091 12.0297 44.5713 11.7107 44.7808 11.4266C44.9902 11.1425 45.2473 10.9168 45.5518 10.7496C45.8562 10.5589 46.1967 10.462 46.5732 10.4589C47.0909 10.4547 47.5512 10.6392 47.9543 11.0125C48.3572 11.3622 48.6905 11.8302 48.9541 12.4163C49.2411 12.9788 49.4699 13.6241 49.6405 14.3522C49.8345 15.0566 49.9814 15.7614 50.0813 16.4666C50.2045 17.1481 50.2804 17.7946 50.3089 18.4062C50.3609 19.0177 50.3883 19.4999 50.3912 19.8528ZM62.6587 30.8372C62.2587 30.8405 61.9395 30.6548 61.7011 30.2802C61.4629 29.9291 61.2831 29.5188 61.1616 29.0491C61.0402 28.5794 60.954 28.1095 60.9031 27.6392C60.8755 27.1453 60.8607 26.7689 60.8586 26.51C60.8529 25.8041 60.8824 25.0978 60.9473 24.3913C61.0357 23.6846 61.1241 22.9779 61.2125 22.2712C61.3244 21.5643 61.4128 20.8576 61.4776 20.1511C61.566 19.4444 61.6074 18.7381 61.6016 18.0321C61.5993 17.7497 61.5851 17.4439 61.5589 17.1147C61.5327 16.7854 61.4714 16.48 61.3749 16.1984C61.3019 15.8931 61.1704 15.647 60.9807 15.4603C60.7909 15.2736 60.543 15.1815 60.2371 15.1839C60.0253 15.1857 59.7915 15.3641 59.5355 15.7191C59.2793 16.0507 59.0354 16.441 58.8037 16.89C58.5954 17.3152 58.4106 17.7521 58.2496 18.2005C58.1118 18.6253 58.0438 18.9435 58.0455 19.1553C58.0497 19.673 58.054 20.2024 58.0584 20.7437C58.0862 21.2612 58.1022 21.7905 58.1066 22.3317L58.1232 24.379C58.1032 24.8027 58.0714 25.2383 58.028 25.6858C57.9845 26.1333 57.9175 26.5692 57.8268 26.9935C57.7596 27.4177 57.6571 27.8303 57.5192 28.2315C57.381 28.6092 57.1955 28.9519 56.9627 29.2597C56.7532 29.5438 56.4963 29.7812 56.1919 29.972C55.8875 30.1627 55.5236 30.2598 55.1 30.2632C54.6294 30.2671 54.2399 30.1173 53.9315 29.8138C53.6231 29.5104 53.3728 29.1241 53.1808 28.655C52.9885 28.1624 52.8429 27.6223 52.744 27.0348C52.6684 26.4236 52.6048 25.8358 52.5532 25.2714C52.5249 24.6833 52.5088 24.1539 52.505 23.6833C52.5245 23.189 52.5331 22.8006 52.5308 22.5182L52.5173 20.8593C52.5101 19.9651 52.4794 19.0828 52.4252 18.2126C52.3946 17.3421 52.3758 16.4715 52.3687 15.6009C52.3649 15.1302 52.36 14.5302 52.3541 13.8007C52.3717 13.071 52.4601 12.3643 52.6193 11.6806C52.7783 10.9733 53.044 10.3711 53.4165 9.87384C53.789 9.37662 54.34 9.12505 55.0694 9.11912C55.3989 9.11644 55.6939 9.21995 55.9544 9.42963C56.215 9.63931 56.4407 9.89634 56.6314 10.2007C56.8457 10.5049 57.0131 10.833 57.1336 11.185C57.2776 11.5368 57.386 11.8419 57.4587 12.1002C57.6914 11.7688 57.9594 11.4489 58.2628 11.1405C58.5898 10.832 58.9523 10.5584 59.3504 10.3198C59.7485 10.0813 60.1941 9.88938 60.6871 9.74418C61.1801 9.59898 61.7443 9.52379 62.3797 9.51863C63.5798 9.50888 64.5116 9.79548 65.1753 10.3784C65.8623 10.9376 66.3623 11.6513 66.6753 12.5195C67.0116 13.3639 67.2191 14.28 67.2977 15.2678C67.3763 16.2555 67.4189 17.1494 67.4254 17.9495C67.4286 18.3495 67.3982 18.9499 67.3341 19.7505C67.2698 20.5276 67.1592 21.3992 67.0023 22.3654C66.8688 23.3078 66.6767 24.286 66.4261 25.2999C66.1753 26.2903 65.8767 27.1988 65.5304 28.0252C65.1842 28.8517 64.766 29.5258 64.2761 30.0475C63.8097 30.569 63.2705 30.8322 62.6587 30.8372ZM75.1222 5.1086C75.1249 5.43803 75.0332 5.73294 74.847 5.99332C74.6844 6.2535 74.4628 6.49063 74.1821 6.70471C73.9013 6.89525 73.5966 7.05069 73.2681 7.17102C72.9394 7.26782 72.6339 7.31737 72.3515 7.31967C71.8809 7.32349 71.4682 7.20918 71.1133 6.97673C70.7584 6.74428 70.5789 6.38098 70.5749 5.88682C70.5721 5.53385 70.6519 5.22727 70.8146 4.96709C71.0005 4.68318 71.2222 4.45782 71.4797 4.291C71.7371 4.10064 72.0301 3.95707 72.3587 3.86026C72.6874 3.76346 73.0047 3.71382 73.3106 3.71133C73.7577 3.7077 74.1704 3.81025 74.5486 4.01897C74.9268 4.2277 75.118 4.5909 75.1222 5.1086ZM75.5021 17.1073C75.5048 17.4368 75.5076 17.7897 75.5107 18.1662C75.5136 18.5192 75.5046 18.8605 75.4837 19.1901C75.4634 19.5904 75.4561 20.1317 75.4616 20.8141C75.467 21.473 75.4493 22.1909 75.4085 22.9678C75.3677 23.7447 75.2918 24.5337 75.1806 25.3347C75.093 26.1355 74.9342 26.8663 74.7042 27.5271C74.4743 28.1879 74.161 28.7317 73.7644 29.1585C73.3912 29.5616 72.9105 29.7773 72.3224 29.8056C71.8755 29.8328 71.4976 29.6594 71.1886 29.2854C70.8796 28.9113 70.6169 28.431 70.4003 27.8445C70.2071 27.2342 70.0604 26.5647 69.9604 25.836C69.8601 25.0837 69.7837 24.3666 69.7311 23.6846C69.6783 22.979 69.6495 22.3321 69.6447 21.7438C69.64 21.1555 69.6364 20.7202 69.6341 20.4378C69.6311 20.0613 69.6268 19.5319 69.6212 18.8495C69.6155 18.1435 69.6329 17.3903 69.6735 16.5899C69.714 15.7894 69.7898 14.9769 69.9008 14.1524C70.0353 13.3276 70.2174 12.5731 70.4472 11.8888C70.7005 11.2042 71.0254 10.6486 71.422 10.2218C71.8186 9.79495 72.3228 9.57906 72.9346 9.57409C73.57 9.56893 74.055 9.88269 74.3896 10.5154C74.7242 11.148 74.9773 11.8873 75.1489 12.7331C75.3205 13.5788 75.4215 14.4252 75.4519 15.2722C75.4821 16.0956 75.4988 16.7073 75.5021 17.1073ZM84.8256 30.6925C83.6255 30.7022 82.5758 30.393 81.6764 29.765C80.7771 29.1369 80.0175 28.3312 79.3976 27.3478C78.7778 26.3645 78.31 25.274 77.9944 24.0764C77.6785 22.8552 77.5158 21.6563 77.5063 20.4798C77.4961 19.2326 77.6387 17.9489 77.9339 16.6287C78.2289 15.2849 78.6897 14.0692 79.3162 12.9816C79.9426 11.8705 80.7472 10.9697 81.7299 10.2792C82.7125 9.56527 83.8862 9.20274 85.251 9.19165C86.5688 9.18095 87.6895 9.5366 88.6131 10.2586C89.5601 10.9569 90.3204 11.845 90.894 12.9229C91.4673 13.9772 91.8768 15.1387 92.1224 16.4075C92.3681 17.6763 92.4602 18.8757 92.3988 20.0058C92.3383 21.2536 92.1485 22.5141 91.8294 23.7875C91.5338 25.0607 91.0842 26.2057 90.4806 27.2225C89.877 28.2393 89.1072 29.0692 88.1711 29.7122C87.235 30.3552 86.1198 30.6819 84.8256 30.6925ZM85.049 14.7353C84.696 14.7382 84.3799 14.929 84.1005 15.3078C83.8447 15.6864 83.6249 16.1471 83.4411 16.6898C83.2807 17.2324 83.156 17.81 83.0669 18.4225C82.9775 19.0116 82.9346 19.5297 82.9383 19.9768C82.9429 20.5415 82.9949 21.153 83.0944 21.8111C83.2174 22.469 83.3753 23.0796 83.5682 23.6428C83.7608 24.1825 83.9881 24.6395 84.25 25.0139C84.5352 25.3646 84.8543 25.5385 85.2073 25.5356C85.5838 25.5326 85.9 25.3535 86.156 24.9984C86.4355 24.6432 86.6554 24.1943 86.8158 23.6517C86.9761 23.1091 87.089 22.5199 87.1544 21.884C87.2196 21.2245 87.25 20.6124 87.2454 20.0477C87.2412 19.53 87.1895 18.9656 87.0904 18.3546C86.9911 17.72 86.8452 17.1328 86.6525 16.5931C86.4834 16.0533 86.2562 15.608 85.971 15.2573C85.7093 14.9064 85.4019 14.7324 85.049 14.7353ZM99.1679 5.93696C99.1709 6.31346 99.0691 6.80848 98.8622 7.42201C98.6788 8.01183 98.4364 8.59036 98.135 9.15759C97.8573 9.72464 97.5317 10.2097 97.1585 10.6128C96.7852 11.0159 96.4221 11.2189 96.0691 11.2217C95.5985 11.2256 95.3612 10.9804 95.3572 10.4862C95.3549 10.2039 95.4115 9.93277 95.5271 9.67297C95.6426 9.41317 95.77 9.16504 95.9093 8.92858C96.0484 8.66858 96.1758 8.42045 96.2916 8.18418C96.4073 7.94791 96.4641 7.70036 96.462 7.44151C96.2983 7.56051 96.1108 7.65616 95.8996 7.72848C95.7119 7.8006 95.5239 7.83743 95.3357 7.83895C94.7945 7.84335 94.3339 7.6353 93.9539 7.21479C93.574 6.79428 93.3818 6.31342 93.3774 5.7722C93.3713 5.01919 93.6135 4.41713 94.104 3.96602C94.5946 3.51491 95.2163 3.2863 95.9693 3.28018C96.8165 3.2733 97.5595 3.49083 98.1985 3.93276C98.8373 4.35117 99.1604 5.01923 99.1679 5.93696ZM119.219 27.8362C119.225 28.4951 119.064 29.0259 118.738 29.4286C118.412 29.8548 117.908 30.0707 117.225 30.0763C116.684 30.0807 116.177 29.9201 115.704 29.5944C115.254 29.2686 114.827 28.872 114.423 28.4047C114.043 27.9136 113.697 27.3986 113.387 26.8599C113.1 26.321 112.861 25.8523 112.67 25.4538C112.167 24.4695 111.665 23.4852 111.163 22.5008C110.684 21.5164 110.206 20.5201 109.727 19.5121L107.62 20.8353C107.649 21.5175 107.619 22.2002 107.53 22.8834C107.442 23.5665 107.377 24.2495 107.335 24.9323C107.292 25.4033 107.214 25.9217 107.101 26.4874C107.011 27.0294 106.85 27.5484 106.619 28.0445C106.388 28.517 106.073 28.9196 105.676 29.2523C105.279 29.585 104.786 29.7537 104.197 29.7585C103.656 29.7629 103.208 29.6606 102.854 29.4517C102.499 29.2193 102.202 28.9275 101.964 28.5765C101.749 28.2252 101.593 27.8264 101.495 27.3801C101.398 26.9338 101.347 26.4753 101.343 26.0047L101.341 25.7223C101.329 24.3339 101.389 22.945 101.519 21.5555C101.672 20.1423 101.766 18.7295 101.802 17.3173C101.834 15.4579 101.878 13.5985 101.933 11.7389C101.989 9.87935 102.068 8.0196 102.17 6.15967C102.19 5.73591 102.257 5.32354 102.372 4.92255C102.486 4.52156 102.66 4.16715 102.893 3.85933C103.125 3.52798 103.406 3.26684 103.734 3.07592C104.085 2.8848 104.496 2.78733 104.967 2.7835C105.696 2.77758 106.239 3.03203 106.597 3.54685C106.977 4.06148 107.241 4.68296 107.388 5.41129C107.535 6.13962 107.6 6.89214 107.583 7.66887C107.59 8.44541 107.595 9.09252 107.599 9.61021C107.611 11.0927 107.588 12.5755 107.529 14.0585C108.207 13.4882 108.861 12.8357 109.49 12.1011C110.143 11.3663 110.714 10.6204 111.202 9.86334C111.504 9.41376 111.852 8.79908 112.246 8.01929C112.639 7.21597 113.068 6.44767 113.533 5.71437C113.997 4.95754 114.51 4.30622 115.07 3.76042C115.63 3.19107 116.228 2.90382 116.864 2.89866C117.546 2.89312 118.042 3.08912 118.351 3.48667C118.683 3.8605 118.852 4.36508 118.857 5.00043C118.865 5.94169 118.72 6.90772 118.422 7.89852C118.148 8.88913 117.767 9.86884 117.281 10.8376C116.794 11.7829 116.237 12.6935 115.609 13.5693C115.004 14.4214 114.386 15.1677 113.756 15.8082C114.424 16.9088 115.057 18.0215 115.654 19.1462C116.251 20.2474 116.849 21.3604 117.446 22.4851C117.661 22.8599 117.864 23.2701 118.056 23.7156C118.272 24.161 118.464 24.6183 118.632 25.0876C118.801 25.5569 118.934 26.0265 119.032 26.4964C119.153 26.966 119.216 27.4127 119.219 27.8362ZM126.127 4.69429C126.129 5.02373 126.037 5.31864 125.851 5.57901C125.689 5.83919 125.467 6.07632 125.186 6.2904C124.906 6.48094 124.601 6.63638 124.272 6.75672C123.944 6.85352 123.638 6.90307 123.356 6.90536C122.885 6.90918 122.472 6.79487 122.118 6.56242C121.763 6.32998 121.583 5.96667 121.579 5.47251C121.576 5.11954 121.656 4.81297 121.819 4.55278C122.005 4.26888 122.227 4.04351 122.484 3.87669C122.741 3.68634 123.034 3.54276 123.363 3.44596C123.692 3.34916 124.009 3.29951 124.315 3.29703C124.762 3.2934 125.175 3.39594 125.553 3.60467C125.931 3.81339 126.122 4.1766 126.127 4.69429ZM126.506 16.693C126.509 17.0224 126.512 17.3754 126.515 17.7519C126.518 18.1049 126.509 18.4462 126.488 18.7758C126.468 19.176 126.46 19.7174 126.466 20.3998C126.471 21.0587 126.454 21.7766 126.413 22.5535C126.372 23.3304 126.296 24.1194 126.185 24.9204C126.097 25.7212 125.939 26.452 125.709 27.1128C125.479 27.7736 125.165 28.3174 124.769 28.7442C124.395 29.1473 123.915 29.363 123.327 29.3913C122.88 29.4185 122.502 29.2451 122.193 28.871C121.884 28.497 121.621 28.0167 121.405 27.4302C121.211 26.8199 121.065 26.1504 120.965 25.4217C120.864 24.6694 120.788 23.9523 120.735 23.2703C120.683 22.5647 120.654 21.9178 120.649 21.3295C120.644 20.7412 120.641 20.3059 120.638 20.0235C120.635 19.647 120.631 19.1176 120.626 18.4352C120.62 17.7292 120.637 16.976 120.678 16.1756C120.718 15.3751 120.794 14.5626 120.905 13.7381C121.04 12.9133 121.222 12.1588 121.451 11.4745C121.705 10.7899 122.03 10.2343 122.426 9.80746C122.823 9.38065 123.327 9.16476 123.939 9.15979C124.574 9.15463 125.059 9.46838 125.394 10.1011C125.728 10.7337 125.982 11.473 126.153 12.3187C126.325 13.1645 126.426 14.0109 126.456 14.8578C126.486 15.6813 126.503 16.293 126.506 16.693ZM137.35 30.5129C135.679 30.5265 134.371 30.3135 133.426 29.8741C132.505 29.458 131.806 28.8518 131.329 28.0555C130.875 27.2591 130.597 26.2965 130.493 25.1678C130.39 24.039 130.333 22.7805 130.322 21.3921C130.313 20.2862 130.339 19.1799 130.401 18.0734C130.462 16.9433 130.558 15.7423 130.689 14.4705C130.36 14.4731 130.101 14.487 129.913 14.5121C129.724 14.5136 129.572 14.5148 129.454 14.5158C128.701 14.5219 128.052 14.3625 127.509 14.0374C126.941 13.7126 126.655 13.2089 126.649 12.5265C126.646 12.103 126.807 11.7251 127.134 11.393C127.437 11.0611 127.835 10.7754 128.327 10.5361C128.82 10.2968 129.347 10.1042 129.911 9.95846C130.498 9.81249 131.05 9.71388 131.568 9.66261C131.562 9.00373 131.604 8.27387 131.691 7.47304C131.779 6.67221 131.937 5.92963 132.167 5.24531C132.42 4.53727 132.757 3.94621 133.177 3.47214C133.596 2.99807 134.136 2.75836 134.794 2.75301C135.171 2.74995 135.501 2.86493 135.786 3.09795C136.093 3.30725 136.343 3.58762 136.534 3.93906C136.725 4.26697 136.869 4.64233 136.966 5.06513C137.064 5.48793 137.114 5.89935 137.118 6.29938C137.122 6.77001 137.09 7.25269 137.024 7.74742C136.957 8.24215 136.833 8.85502 136.65 9.58602C137.05 9.53571 137.32 9.50998 137.461 9.50884C137.602 9.48416 137.732 9.47134 137.849 9.47038C138.249 9.46713 138.662 9.49909 139.086 9.56624C139.533 9.6332 139.934 9.74761 140.289 9.90946C140.667 10.0711 140.974 10.2922 141.212 10.5727C141.449 10.8296 141.57 11.1463 141.573 11.5228C141.576 11.9464 141.403 12.3243 141.052 12.6566C140.726 12.9887 140.304 13.2745 139.788 13.5141C139.273 13.7536 138.721 13.9463 138.134 14.0923C137.547 14.2147 136.994 14.3016 136.477 14.3529C136.344 15.3188 136.245 16.2138 136.181 17.038C136.141 17.8385 136.088 18.6508 136.025 19.4749C135.981 19.8754 135.937 20.2875 135.893 20.7115C135.873 21.1117 135.865 21.5236 135.868 21.9472C135.871 22.2531 135.885 22.6177 135.912 23.0411C135.939 23.4409 136.025 23.8285 136.169 24.2039C136.313 24.5793 136.539 24.9069 136.848 25.1868C137.156 25.4431 137.58 25.5691 138.121 25.5647C138.451 25.562 138.792 25.5357 139.144 25.4858C139.497 25.4123 139.85 25.3742 140.202 25.3713C140.814 25.3663 141.251 25.5746 141.514 25.9961C141.799 26.4173 141.945 26.9574 141.95 27.6163C141.954 28.1104 141.805 28.547 141.502 28.926C141.223 29.2813 140.86 29.5666 140.415 29.782C139.97 30.021 139.465 30.2016 138.901 30.3238C138.361 30.4459 137.844 30.5089 137.35 30.5129ZM165.539 20.0118C165.541 20.2236 165.366 20.4015 165.014 20.5455C164.686 20.6659 164.251 20.7753 163.711 20.8738C163.17 20.9723 162.571 21.0596 161.913 21.1355C161.278 21.1878 160.666 21.228 160.078 21.2563C159.49 21.2846 158.961 21.3125 158.49 21.3398C158.019 21.3436 157.69 21.3463 157.502 21.3479C157.266 21.3498 156.784 21.3537 156.055 21.3596C155.325 21.342 154.56 21.3012 153.759 21.2371C152.982 21.1728 152.287 21.0608 151.674 20.901C151.06 20.7177 150.752 20.4614 150.75 20.1319C150.746 19.7319 151.073 19.4115 151.73 19.1709C152.411 18.93 153.186 18.759 154.056 18.6578C154.949 18.5329 155.819 18.4552 156.666 18.4248C157.537 18.3942 158.172 18.3773 158.572 18.374C158.807 18.3721 159.137 18.3812 159.561 18.4013C160.008 18.4212 160.479 18.4644 160.974 18.531C161.492 18.5739 162.022 18.6401 162.564 18.7299C163.106 18.8196 163.589 18.9216 164.013 19.0358C164.461 19.1498 164.827 19.288 165.111 19.4505C165.395 19.6129 165.537 19.8 165.539 20.0118Z" fill="#4D1C6B"/>
</svg>
