<svg width="1076" height="172" viewBox="0 0 1076 172" fill="none" xmlns="http://www.w3.org/2000/svg">
<ellipse cx="163.232" cy="153.105" rx="131.091" ry="18.5287" fill="#DE0048" fill-opacity="0.54"/>
<path d="M103.188 74.543V154.069" stroke="#550B23" stroke-width="1.66305" stroke-miterlimit="10"/>
<path d="M162.997 74.543V154.069" stroke="#550B23" stroke-width="1.66305" stroke-miterlimit="10"/>
<path d="M67.8246 99.1034C67.8246 99.1034 79.3014 96.6011 81.0293 103.787C82.5215 109.953 66.9115 109.717 66.9115 109.717L32.5892 109.915C32.5892 109.915 19.6594 111.351 13.2681 97.0072C6.87686 82.6637 0.721224 45.1007 0.721224 45.1007C0.721224 45.1007 -0.201632 39.9356 4.2752 39.1802C9.53744 38.2925 10.5683 49.2272 10.5683 49.2272C10.5683 49.2272 18.5205 95.5907 30.0661 97.857C31.843 98.2064 33.2568 99.5 35.073 99.4811L67.8246 99.1034Z" fill="#2D0A42"/>
<path d="M98.3293 61.6538L109.168 60.9361C110.052 60.8795 110.896 61.2666 111.397 61.9559L117.454 70.766L112.3 71.002L109.394 66.7056C109.394 66.7056 101.019 68.7169 97.9268 66.7056L98.3293 61.6538Z" fill="#2C1204"/>
<path d="M54.6701 33.1084L69.1511 58.9908L99.2421 59.9162V69.4344L67.4625 70.7753C63.2605 70.9547 59.2746 69.0189 56.9184 65.6668L42.457 40.6909L54.6701 33.1084Z" fill="#AC224F"/>
<path d="M99.2419 59.9066V69.4248L95.8843 69.5665V59.8027L99.2419 59.9066Z" fill="#AC224F"/>
<path d="M83.4746 136.629L85.1731 148.073L93.734 147.563L92.5068 135.75L83.4746 136.629Z" fill="#57331F"/>
<path d="M83.2587 146.912C83.4453 146.374 84.1129 146.157 84.5939 146.487C85.5364 147.129 87.1956 147.894 89.5813 147.601C92.0651 147.299 92.9389 146.024 93.2432 145.127C93.4003 144.655 93.9305 144.4 94.4115 144.58L109.845 150.396C110.787 150.746 111.533 151.444 111.936 152.332C112.309 153.163 111.691 154.098 110.738 154.117L84.6037 154.485C83.5729 154.504 82.7482 153.682 82.7875 152.691L82.974 147.837C82.974 147.752 82.9936 147.677 83.0231 147.601L83.2587 146.912Z" fill="#AC224F"/>
<path d="M57.4677 30.8896L59.9221 34.6762C60.0791 35.035 60.1479 35.9037 59.4705 36.2248L58.5181 36.8858L56.4761 33.883L57.4677 30.8896Z" fill="#FFEEE3"/>
<path d="M52.8924 34.8937L52.1168 34.5349C49.5642 33.3357 48.5039 30.3707 49.7507 27.9156L58.0368 11.5986L67.2359 15.9234L57.6637 34.195C56.6427 36.2252 55.0032 35.8852 52.8924 34.8937Z" fill="#57331F"/>
<path d="M74.0981 19.1425C71.3982 24.4493 64.7321 26.6588 59.2146 24.0621C53.6971 21.4654 51.3998 15.0632 54.0996 9.747C56.7994 4.44022 63.4558 2.23063 68.9831 4.82737C74.5104 7.4241 76.7979 13.8357 74.0981 19.1425Z" fill="#57331F"/>
<path d="M60.6683 29.6997C58.047 28.4721 56.9572 25.4221 58.2434 22.901L62.9165 13.6943L74.1872 18.9917L70.3779 26.4986C68.6108 29.9546 64.2616 31.3994 60.6683 29.6997Z" fill="#57331F"/>
<path d="M72.7248 21.1543L73.3335 25.2713C73.3826 25.9229 72.6659 26.3478 72.0376 26.0551L69.269 25.328L72.7248 21.1543Z" fill="#57331F"/>
<path d="M62.9655 19.0957C62.9655 19.0957 66.8631 19.3412 67.5012 13.5528C67.5012 13.5528 74.2754 17.7076 77.0341 16.0551C77.0341 16.0551 77.8784 -0.318479 63.8098 0.257524C49.7412 0.833528 48.6416 15.4414 48.6416 15.4414L56.535 22.2967L62.9655 19.0957Z" fill="#4D1C6B"/>
<path d="M63.5252 19.3316C62.7888 20.7952 60.9529 21.3995 59.4312 20.6819C57.9193 19.9642 57.2812 18.2079 58.0273 16.7443C58.7636 15.2807 60.5995 14.6763 62.1212 15.394C63.6331 16.1116 64.2615 17.8679 63.5252 19.3316Z" fill="#57331F"/>
<path d="M54.9344 17.1597L52.8433 21.8527C52.8433 21.8527 57.4379 25.3937 59.7548 20.8329L56.4169 19.9264L54.9344 17.1597Z" fill="#4D1C6B"/>
<path d="M59.2544 39.1708C59.2544 39.1708 59.0482 35.0066 57.6737 33.5619C56.2993 32.1171 48.9753 28.1323 48.9753 28.1323C48.9753 28.1323 38.441 31.069 31.9712 42.6457C26.9348 51.6635 22.1929 74.4865 22.1929 74.4865L52.5882 78.7262C55.2095 61.6727 60.1183 53.9014 59.2544 39.1708Z" fill="#AC224F"/>
<path d="M49.4861 27.3291L48.2196 27.8768C47.768 28.0751 47.6698 28.6605 48.0429 28.9816L56.0737 35.8558C56.3977 36.1391 56.9082 36.0541 57.134 35.6953L58.0372 34.1939C58.2041 33.9106 58.1354 33.5518 57.8703 33.3441L50.1929 27.433C49.9966 27.263 49.7217 27.2252 49.4861 27.3291Z" fill="#FFEEE3"/>
<path d="M94.9807 63.2026L105.819 62.485C106.703 62.4283 107.547 62.8155 108.048 63.5048L113.605 71.1061L108.411 71.7482L106.045 68.245C106.045 68.245 97.6707 70.2563 94.5781 68.245L94.9807 63.2026Z" fill="#2C1204"/>
<path d="M48.5139 35.0347L64.87 61.5781L95.8937 62.3996V70.983L62.4156 72.3899C59.274 72.5221 56.2796 71.0774 54.5124 68.5656L36.3008 42.6171L48.5139 35.0347Z" fill="#AC224F"/>
<path d="M95.8942 62.3999V70.9739L92.5366 71.1155V62.3999H95.8942Z" fill="#AC224F"/>
<path d="M22.1928 74.4863L81.9821 82.8242C86.5571 83.4663 90.0914 87.0262 90.5332 91.4548L94.9904 140.434L81.6385 141.265L75.2177 98.8107L37.6752 99.7455C27.4845 99.7455 19.6697 91.0393 21.1521 81.3417L22.1928 74.4863Z" fill="#630E2A"/>
<path d="M128.164 70.7759H96.6299V72.74H128.164V70.7759Z" fill="#AC224F"/>
<path d="M128.174 72.7399L138.375 44.0814L136.235 43.5903L126.23 71.1158L128.174 72.7399Z" fill="#AC224F"/>
<path d="M60.1671 29.4355C60.1671 29.4355 57.3298 27.8208 57.3298 24.4214C57.3298 24.4214 55.5626 28.104 59.1657 31.3429L60.1671 29.4355Z" fill="#2C1204"/>
<path d="M13.6211 155.92C14.0924 155.92 14.5244 155.609 14.652 155.146L30.262 95.9498C31.5579 91.049 36.1231 87.6213 41.3854 87.6213C46.4905 87.6213 51.0262 90.9168 52.4203 95.6382C57.8789 114.136 70.5829 154.494 70.7106 154.9C70.8775 155.439 71.4763 155.75 72.0359 155.58C72.5955 155.42 72.9195 154.844 72.7428 154.306C72.6152 153.9 59.9112 113.56 54.4624 95.081C52.8131 89.4815 47.433 85.5723 41.3755 85.5723C35.1413 85.5723 29.722 89.6326 28.1905 95.4399L12.5805 154.645C12.4332 155.193 12.7768 155.75 13.3463 155.892C13.4444 155.911 13.5328 155.92 13.6211 155.92Z" fill="#1F252A"/>
<path d="M173.324 72.7397H91.6318V76.2808H173.324V72.7397Z" fill="#550B23"/>
<path d="M103.188 84.8828H162.997" stroke="#550B23" stroke-width="1.66305" stroke-miterlimit="10"/>
<path d="M223.002 74.543V154.069" stroke="#550B23" stroke-width="1.66305" stroke-miterlimit="10"/>
<path d="M163.194 74.543V154.069" stroke="#550B23" stroke-width="1.66305" stroke-miterlimit="10"/>
<path d="M258.366 99.1034C258.366 99.1034 246.889 96.6011 245.161 103.787C243.669 109.953 259.279 109.717 259.279 109.717L293.601 109.915C293.601 109.915 306.531 111.351 312.922 97.0072C319.314 82.6637 325.469 45.1007 325.469 45.1007C325.469 45.1007 326.392 39.9356 321.915 39.1802C316.653 38.2925 315.622 49.2272 315.622 49.2272C315.622 49.2272 307.67 95.5907 296.124 97.857C294.347 98.2064 292.934 99.5 291.117 99.4811L258.366 99.1034Z" fill="#2D0A42"/>
<path d="M227.861 61.6538L217.023 60.9361C216.139 60.8795 215.295 61.2666 214.794 61.9559L208.736 70.766L213.891 71.002L216.797 66.7056C216.797 66.7056 225.171 68.7169 228.264 66.7056L227.861 61.6538Z" fill="#B28B67"/>
<path d="M271.52 33.1084L257.039 58.9908L226.948 59.9162V69.4344L258.728 70.7752C262.93 70.9547 266.916 69.0189 269.272 65.6668L283.733 40.6909L271.52 33.1084Z" fill="#2D0A42"/>
<path d="M226.949 59.9066V69.4248L230.306 69.5665V59.8027L226.949 59.9066Z" fill="#E1C8B7"/>
<path d="M242.716 136.629L241.017 148.073L232.456 147.563L233.684 135.75L242.716 136.629Z" fill="#FCC9A7"/>
<path d="M242.932 146.912C242.745 146.374 242.078 146.157 241.597 146.487C240.654 147.129 238.995 147.894 236.609 147.601C234.125 147.299 233.252 146.024 232.947 145.127C232.79 144.655 232.26 144.4 231.779 144.58L216.346 150.396C215.403 150.746 214.657 151.444 214.254 152.332C213.881 153.163 214.5 154.098 215.452 154.117L241.587 154.485C242.618 154.504 243.442 153.682 243.403 152.691L243.216 147.837C243.216 147.752 243.197 147.677 243.167 147.601L242.932 146.912Z" fill="#2D0A42"/>
<path d="M268.723 30.8896L266.268 34.6762C266.111 35.035 266.043 35.9037 266.72 36.2248L267.672 36.8858L269.714 33.883L268.723 30.8896Z" fill="#FFEEE3"/>
<path d="M273.298 34.8937L274.074 34.5349C276.626 33.3357 277.687 30.3707 276.44 27.9156L268.154 11.5986L258.955 15.9234L268.527 34.195C269.548 36.2252 271.187 35.8852 273.298 34.8937Z" fill="#FCC9A7"/>
<path d="M252.092 19.1425C254.792 24.4493 261.458 26.6588 266.976 24.0621C272.493 21.4654 274.791 15.0632 272.091 9.747C269.391 4.44022 262.735 2.23063 257.207 4.82737C251.68 7.4241 249.393 13.8357 252.092 19.1425Z" fill="#FCC9A7"/>
<path d="M265.522 29.6997C268.143 28.4721 269.233 25.4221 267.947 22.901L263.274 13.6943L252.003 18.9917L255.813 26.4986C257.58 29.9546 261.929 31.3994 265.522 29.6997Z" fill="#FCC9A7"/>
<path d="M253.466 21.1543L252.857 25.2713C252.808 25.9229 253.525 26.3478 254.153 26.0551L256.922 25.328L253.466 21.1543Z" fill="#FCC9A7"/>
<path d="M263.224 19.0957C263.224 19.0957 259.327 19.3412 258.689 13.5528C258.689 13.5528 251.915 17.7076 249.156 16.0551C249.156 16.0551 248.311 -0.318479 262.38 0.257524C276.449 0.833528 277.548 15.4414 277.548 15.4414L269.655 22.2967L263.224 19.0957Z" fill="#AC224F"/>
<path d="M262.665 19.3316C263.402 20.7952 265.237 21.3995 266.759 20.6819C268.271 19.9642 268.909 18.2079 268.163 16.7443C267.427 15.2807 265.591 14.6763 264.069 15.394C262.557 16.1116 261.929 17.8679 262.665 19.3316Z" fill="#FCC9A7"/>
<path d="M271.256 17.1597L273.347 21.8527C273.347 21.8527 268.753 25.3937 266.436 20.8329L269.774 19.9264L271.256 17.1597Z" fill="#4D1C6B"/>
<path d="M258.689 13.5526C258.689 13.5526 249.509 20.3702 245.887 14.6573C243 10.0965 246.211 7.14097 250.845 7.8775C252.847 8.19855 253.839 6.89546 255.41 5.86621L258.689 13.5526Z" fill="#AC224F"/>
<path d="M266.936 39.1708C266.936 39.1708 267.142 35.0066 268.517 33.5619C269.891 32.1171 277.215 28.1323 277.215 28.1323C277.215 28.1323 287.749 31.069 294.219 42.6457C299.256 51.6635 303.998 74.4865 303.998 74.4865L273.602 78.7262C270.981 61.6727 266.072 53.9014 266.936 39.1708Z" fill="#4D1C6B"/>
<path d="M276.704 27.3291L277.971 27.8768C278.422 28.0751 278.521 28.6605 278.148 28.9816L270.117 35.8558C269.793 36.1391 269.282 36.0541 269.056 35.6953L268.153 34.1939C267.986 33.9106 268.055 33.5518 268.32 33.3441L275.997 27.433C276.194 27.263 276.469 27.2252 276.704 27.3291Z" fill="#FFEEE3"/>
<path d="M231.209 63.2026L220.371 62.485C219.487 62.4283 218.643 62.8155 218.142 63.5048L212.585 71.1061L217.779 71.7482L220.145 68.245C220.145 68.245 228.519 70.2563 231.612 68.245L231.209 63.2026Z" fill="#FCC9A7"/>
<path d="M277.677 35.0347L261.32 61.5781L230.297 62.3996V70.983L263.775 72.3899C266.916 72.5221 269.911 71.0774 271.678 68.5656L289.89 42.6171L277.677 35.0347Z" fill="#4D1C6B"/>
<path d="M230.296 62.3999V70.9739L233.654 71.1155V62.3999H230.296Z" fill="#FFEEE3"/>
<path d="M303.998 74.4863L244.208 82.8242C239.633 83.4663 236.099 87.0262 235.657 91.4548L231.2 140.434L244.552 141.265L250.973 98.8107L288.515 99.7455C298.706 99.7455 306.521 91.0393 305.038 81.3417L303.998 74.4863Z" fill="#AC224F"/>
<path d="M198.026 70.7759H229.561V72.74H198.026V70.7759Z" fill="#4D1C6B"/>
<path d="M198.016 72.7399L187.816 44.0814L189.956 43.5903L199.96 71.1158L198.016 72.7399Z" fill="#4D1C6B"/>
<path d="M266.023 29.4355C266.023 29.4355 268.861 27.8208 268.861 24.4214C268.861 24.4214 270.628 28.104 267.025 31.3429L266.023 29.4355Z" fill="#2C1204"/>
<path d="M312.569 155.92C312.098 155.92 311.666 155.609 311.538 155.146L295.928 95.9498C294.633 91.049 290.067 87.6213 284.805 87.6213C279.7 87.6213 275.164 90.9168 273.77 95.6382C268.311 114.136 255.608 154.494 255.48 154.9C255.313 155.439 254.714 155.75 254.154 155.58C253.595 155.42 253.271 154.844 253.448 154.306C253.575 153.9 266.279 113.56 271.728 95.081C273.377 89.4815 278.757 85.5723 284.815 85.5723C291.049 85.5723 296.468 89.6326 298 95.4399L313.61 154.645C313.757 155.193 313.414 155.75 312.844 155.892C312.746 155.911 312.658 155.92 312.569 155.92Z" fill="#1F252A"/>
<path d="M152.866 72.7397H234.559V76.2808H152.866V72.7397Z" fill="#550B23"/>
<path d="M223.002 84.8828H163.194" stroke="#550B23" stroke-width="1.66305" stroke-miterlimit="10"/>
<ellipse cx="538.138" cy="153.105" rx="131.091" ry="18.5287" fill="#AC224F"/>
<path d="M478.093 74.5435V154.07" stroke="#550B23" stroke-width="1.66305" stroke-miterlimit="10"/>
<path d="M537.902 74.5435V154.07" stroke="#550B23" stroke-width="1.66305" stroke-miterlimit="10"/>
<path d="M442.73 99.1039C442.73 99.1039 454.207 96.6016 455.935 103.787C457.427 109.954 441.817 109.717 441.817 109.717L407.494 109.916C407.494 109.916 394.565 111.351 388.173 97.0076C381.782 82.6642 375.626 45.1012 375.626 45.1012C375.626 45.1012 374.704 39.9361 379.18 39.1807C384.443 38.293 385.474 49.2277 385.474 49.2277C385.474 49.2277 393.426 95.5912 404.971 97.8575C406.748 98.2069 408.162 99.5005 409.978 99.4816L442.73 99.1039Z" fill="#AC224F"/>
<path d="M473.235 61.6543L484.073 60.9366C484.957 60.88 485.801 61.2671 486.302 61.9564L492.359 70.7664L487.205 71.0025L484.299 66.7061C484.299 66.7061 475.925 68.7174 472.832 66.7061L473.235 61.6543Z" fill="#F2C09E"/>
<path d="M429.575 33.1089L444.056 58.9913L474.147 59.9167V69.4349L442.368 70.7757C438.166 70.9552 434.18 69.0194 431.824 65.6672L417.362 40.6914L429.575 33.1089Z" fill="#4D1C6B"/>
<path d="M474.147 59.9071V69.4253L470.79 69.567V59.8032L474.147 59.9071Z" fill="#4D1C6B"/>
<path d="M458.38 136.629L460.078 148.074L468.639 147.564L467.412 135.751L458.38 136.629Z" fill="#FCC9A7"/>
<path d="M458.164 146.912C458.351 146.374 459.018 146.157 459.499 146.488C460.442 147.13 462.101 147.894 464.487 147.602C466.97 147.3 467.844 146.025 468.149 145.128C468.306 144.656 468.836 144.401 469.317 144.58L484.75 150.397C485.693 150.746 486.439 151.445 486.841 152.333C487.214 153.164 486.596 154.098 485.643 154.117L459.509 154.486C458.478 154.504 457.653 153.683 457.693 152.691L457.879 147.838C457.879 147.753 457.899 147.677 457.928 147.602L458.164 146.912Z" fill="#2D0A42"/>
<path d="M432.373 30.8896L434.827 34.6762C434.984 35.035 435.053 35.9037 434.376 36.2248L433.423 36.8858L431.381 33.883L432.373 30.8896Z" fill="#FFEEE3"/>
<path d="M427.798 34.8937L427.022 34.5349C424.469 33.3357 423.409 30.3707 424.656 27.9156L432.942 11.5986L442.141 15.9234L432.569 34.195C431.548 36.2252 429.908 35.8852 427.798 34.8937Z" fill="#FCC9A7"/>
<path d="M449.003 19.143C446.304 24.4497 439.637 26.6593 434.12 24.0626C428.602 21.4659 426.305 15.0637 429.005 9.74749C431.705 4.4407 438.361 2.23112 443.888 4.82785C449.416 7.42459 451.703 13.8362 449.003 19.143Z" fill="#FCC9A7"/>
<path d="M435.574 29.7002C432.952 28.4726 431.863 25.4226 433.149 22.9014L437.822 13.6948L449.092 18.9922L445.283 26.4991C443.516 29.9551 439.167 31.3999 435.574 29.7002Z" fill="#FCC9A7"/>
<path d="M447.63 21.1548L448.238 25.2718C448.287 25.9233 447.571 26.3483 446.942 26.0555L444.174 25.3285L447.63 21.1548Z" fill="#FCC9A7"/>
<path d="M437.871 19.0962C437.871 19.0962 441.769 19.3417 442.407 13.5533C442.407 13.5533 450.417 17.2455 453.176 15.593C453.176 15.593 452.784 -0.317987 438.715 0.258016C424.647 0.83402 424.66 16.0556 424.66 16.0556L426.381 25.6226L437.871 19.0962Z" fill="#550B23"/>
<path d="M438.43 19.332C437.694 20.7957 435.858 21.4 434.336 20.6823C432.824 19.9647 432.186 18.2084 432.932 16.7448C433.668 15.2811 435.504 14.6768 437.026 15.3945C438.538 16.1121 439.166 17.8684 438.43 19.332Z" fill="#FCC9A7"/>
<path d="M429.839 17.1602L427.748 21.8532C427.748 21.8532 432.343 25.3942 434.66 20.8334L431.322 19.9269L429.839 17.1602Z" fill="#550B23"/>
<path d="M439.05 17.845C439.05 17.845 448.229 24.6627 451.852 18.9498C454.738 14.389 451.528 11.4335 446.894 12.17C444.891 12.491 443.9 11.1879 442.329 10.1587L439.05 17.845Z" fill="#550B23"/>
<path d="M434.16 39.1713C434.16 39.1713 433.953 35.0071 432.579 33.5624C431.205 32.1176 423.881 28.1328 423.881 28.1328C423.881 28.1328 413.346 31.0695 406.876 42.6462C401.84 51.664 397.098 74.4869 397.098 74.4869L427.493 78.7267C430.115 61.6732 435.024 53.9019 434.16 39.1713Z" fill="#4D1C6B"/>
<path d="M424.391 27.3296L423.125 27.8773C422.673 28.0755 422.575 28.661 422.948 28.982L430.979 35.8563C431.303 36.1396 431.813 36.0546 432.039 35.6958L432.942 34.1944C433.109 33.9111 433.041 33.5523 432.776 33.3446L425.098 27.4334C424.902 27.2635 424.627 27.2257 424.391 27.3296Z" fill="#FFEEE3"/>
<path d="M469.886 63.2031L480.725 62.4854C481.608 62.4288 482.452 62.8159 482.953 63.5053L488.51 71.1066L483.316 71.7487L480.95 68.2455C480.95 68.2455 472.576 70.2568 469.483 68.2455L469.886 63.2031Z" fill="#F2C09E"/>
<path d="M423.419 35.0352L439.775 61.5785L470.799 62.4V70.9834L437.321 72.3904C434.179 72.5226 431.185 71.0779 429.418 68.5661L411.206 42.6176L423.419 35.0352Z" fill="#4D1C6B"/>
<path d="M470.799 62.4004V70.9744L467.442 71.116V62.4004H470.799Z" fill="#4D1C6B"/>
<path d="M397.098 74.4863L456.887 82.8242C461.462 83.4663 464.997 87.0262 465.438 91.4548L469.896 140.434L456.544 141.265L450.123 98.8107L412.58 99.7455C402.39 99.7455 394.575 91.0393 396.057 81.3417L397.098 74.4863Z" fill="#AC224F"/>
<path d="M503.069 70.7759H471.535V72.74H503.069V70.7759Z" fill="#4D1C6B"/>
<path d="M503.08 72.7399L513.28 44.0814L511.14 43.5903L501.136 71.1158L503.08 72.7399Z" fill="#4D1C6B"/>
<path d="M435.072 29.4359C435.072 29.4359 432.235 27.8212 432.235 24.4219C432.235 24.4219 430.468 28.1045 434.071 31.3434L435.072 29.4359Z" fill="#F2C09E"/>
<path d="M388.526 155.921C388.998 155.921 389.43 155.609 389.557 155.146L405.167 95.9503C406.463 91.0495 411.028 87.6218 416.291 87.6218C421.396 87.6218 425.932 90.9173 427.326 95.6386C432.784 114.137 445.488 154.495 445.616 154.901C445.783 155.439 446.382 155.751 446.941 155.581C447.501 155.42 447.825 154.844 447.648 154.306C447.52 153.9 434.816 113.561 429.368 95.0815C427.718 89.482 422.338 85.5728 416.281 85.5728C410.047 85.5728 404.627 89.6331 403.096 95.4404L387.486 154.646C387.338 155.194 387.682 155.751 388.252 155.892C388.35 155.911 388.438 155.921 388.526 155.921Z" fill="#1F252A"/>
<path d="M548.229 72.7402H466.537V76.2812H548.229V72.7402Z" fill="#550B23"/>
<path d="M478.093 84.8833H537.902" stroke="#550B23" stroke-width="1.66305" stroke-miterlimit="10"/>
<path d="M597.908 74.5435V154.07" stroke="#550B23" stroke-width="1.66305" stroke-miterlimit="10"/>
<path d="M538.099 74.5435V154.07" stroke="#550B23" stroke-width="1.66305" stroke-miterlimit="10"/>
<path d="M633.271 99.1039C633.271 99.1039 621.794 96.6016 620.066 103.787C618.574 109.954 634.184 109.717 634.184 109.717L668.507 109.916C668.507 109.916 681.436 111.351 687.828 97.0076C694.219 82.6642 700.374 45.1012 700.374 45.1012C700.374 45.1012 701.297 39.9361 696.821 39.1807C691.558 38.293 690.527 49.2277 690.527 49.2277C690.527 49.2277 682.575 95.5912 671.03 97.8575C669.253 98.2069 667.839 99.5005 666.023 99.4816L633.271 99.1039Z" fill="#AC224F"/>
<path d="M602.766 61.6543L591.928 60.9366C591.044 60.88 590.2 61.2671 589.699 61.9564L583.642 70.7664L588.796 71.0025L591.702 66.7061C591.702 66.7061 600.076 68.7174 603.169 66.7061L602.766 61.6543Z" fill="#2C1204"/>
<path d="M646.426 33.1089L631.945 58.9913L601.854 59.9167V69.4349L633.633 70.7757C637.835 70.9551 641.821 69.0194 644.177 65.6672L658.639 40.6914L646.426 33.1089Z" fill="#AC224F"/>
<path d="M601.854 59.9071V69.4253L605.211 69.567V59.8032L601.854 59.9071Z" fill="#E1C8B7"/>
<path d="M617.621 136.629L615.923 148.074L607.362 147.564L608.589 135.751L617.621 136.629Z" fill="#57331F"/>
<path d="M617.837 146.912C617.65 146.374 616.983 146.157 616.502 146.488C615.559 147.13 613.9 147.894 611.514 147.602C609.031 147.3 608.157 146.025 607.852 145.128C607.695 144.656 607.165 144.401 606.684 144.58L591.251 150.397C590.308 150.746 589.562 151.445 589.16 152.333C588.787 153.164 589.405 154.098 590.357 154.117L616.492 154.486C617.523 154.504 618.347 153.683 618.308 152.691L618.122 147.838C618.122 147.753 618.102 147.677 618.073 147.602L617.837 146.912Z" fill="#AC224F"/>
<path d="M643.628 30.8901L641.174 34.6766C641.017 35.0355 640.948 35.9042 641.625 36.2252L642.578 36.8862L644.62 33.8835L643.628 30.8901Z" fill="#FFEEE3"/>
<path d="M648.203 34.8942L648.979 34.5354C651.531 33.3362 652.592 30.3712 651.345 27.9161L643.059 11.5991L633.86 15.9239L643.432 34.1955C644.453 36.2256 646.093 35.8857 648.203 34.8942Z" fill="#57331F"/>
<path d="M626.998 19.143C629.697 24.4497 636.364 26.6593 641.881 24.0626C647.399 21.4659 649.696 15.0637 646.996 9.74749C644.296 4.4407 637.64 2.23112 632.113 4.82785C626.585 7.42459 624.298 13.8362 626.998 19.143Z" fill="#57331F"/>
<path d="M640.427 29.7002C643.049 28.4726 644.138 25.4226 642.852 22.9014L638.179 13.6948L626.909 18.9922L630.718 26.4991C632.485 29.9551 636.834 31.3999 640.427 29.7002Z" fill="#57331F"/>
<path d="M628.371 21.1548L627.763 25.2718C627.714 25.9233 628.43 26.3483 629.059 26.0555L631.827 25.3285L628.371 21.1548Z" fill="#57331F"/>
<path d="M638.13 19.0962C638.13 19.0962 634.232 19.3417 633.594 13.5533C633.594 13.5533 626.82 17.7081 624.061 16.0556C624.061 16.0556 623.217 -0.317991 637.285 0.258013C651.354 0.834016 652.454 15.4418 652.454 15.4418L644.56 22.2972L638.13 19.0962Z" fill="#4D1C6B"/>
<path d="M637.571 19.332C638.307 20.7957 640.143 21.4 641.664 20.6823C643.176 19.9647 643.815 18.2084 643.068 16.7448C642.332 15.2811 640.496 14.6768 638.974 15.3945C637.463 16.1121 636.834 17.8684 637.571 19.332Z" fill="#57331F"/>
<path d="M646.161 17.1602L648.252 21.8532C648.252 21.8532 643.658 25.3942 641.341 20.8334L644.679 19.9269L646.161 17.1602Z" fill="#550B23"/>
<path d="M650.547 10.567C650.547 10.567 658.535 18.7478 653.361 23.1048C649.229 26.5775 645.869 23.7931 645.977 19.1023C646.026 17.0745 644.601 16.2669 643.371 14.8485L650.547 10.567Z" fill="#4D1C6B"/>
<path d="M641.841 39.1713C641.841 39.1713 642.048 35.0071 643.422 33.5624C644.796 32.1176 652.12 28.1328 652.12 28.1328C652.12 28.1328 662.655 31.0695 669.124 42.6462C674.161 51.664 678.903 74.4869 678.903 74.4869L648.508 78.7267C645.886 61.6732 640.977 53.9019 641.841 39.1713Z" fill="#AC224F"/>
<path d="M651.61 27.3296L652.876 27.8773C653.328 28.0755 653.426 28.661 653.053 28.982L645.022 35.8563C644.698 36.1396 644.188 36.0546 643.962 35.6958L643.058 34.1944C642.892 33.9111 642.96 33.5523 643.225 33.3446L650.903 27.4334C651.099 27.2635 651.374 27.2257 651.61 27.3296Z" fill="#FFEEE3"/>
<path d="M606.115 63.2031L595.276 62.4854C594.392 62.4288 593.548 62.8159 593.047 63.5053L587.491 71.1066L592.684 71.7487L595.05 68.2455C595.05 68.2455 603.425 70.2568 606.517 68.2455L606.115 63.2031Z" fill="#57331F"/>
<path d="M652.582 35.0352L636.226 61.5785L605.202 62.4V70.9834L638.68 72.3904C641.822 72.5226 644.816 71.0779 646.583 68.5661L664.795 42.6176L652.582 35.0352Z" fill="#AC224F"/>
<path d="M605.201 62.4004V70.9744L608.559 71.116V62.4004H605.201Z" fill="#FFEEE3"/>
<path d="M678.903 74.4868L619.114 82.8247C614.539 83.4668 611.004 87.0267 610.562 91.4553L606.105 140.435L619.457 141.265L625.878 98.8112L663.421 99.746C673.611 99.746 681.426 91.0398 679.944 81.3422L678.903 74.4868Z" fill="#4D1C6B"/>
<path d="M572.932 70.7764H604.466V72.7404H572.932V70.7764Z" fill="#AC224F"/>
<path d="M572.921 72.7404L562.721 44.0818L564.861 43.5908L574.865 71.1162L572.921 72.7404Z" fill="#AC224F"/>
<path d="M640.929 29.4359C640.929 29.4359 643.766 27.8212 643.766 24.4219C643.766 24.4219 645.533 28.1045 641.93 31.3434L640.929 29.4359Z" fill="#2C1204"/>
<path d="M687.475 155.921C687.003 155.921 686.571 155.609 686.444 155.146L670.834 95.9503C669.538 91.0495 664.973 87.6218 659.71 87.6218C654.605 87.6218 650.069 90.9173 648.675 95.6386C643.217 114.137 630.513 154.495 630.385 154.901C630.218 155.439 629.619 155.751 629.06 155.581C628.5 155.42 628.176 154.844 628.353 154.306C628.481 153.9 641.185 113.561 646.633 95.0815C648.283 89.482 653.663 85.5728 659.72 85.5728C665.954 85.5728 671.374 89.6331 672.905 95.4404L688.515 154.646C688.662 155.194 688.319 155.751 687.749 155.892C687.651 155.911 687.563 155.921 687.475 155.921Z" fill="#1F252A"/>
<path d="M527.772 72.7402H609.464V76.2812H527.772V72.7402Z" fill="#550B23"/>
<path d="M597.908 84.8833H538.099" stroke="#550B23" stroke-width="1.66305" stroke-miterlimit="10"/>
<ellipse cx="913.042" cy="153.105" rx="131.091" ry="18.5287" fill="#DE0048" fill-opacity="0.54"/>
<path d="M852.998 74.543V154.069" stroke="#550B23" stroke-width="1.66305" stroke-miterlimit="10"/>
<path d="M912.807 74.543V154.069" stroke="#550B23" stroke-width="1.66305" stroke-miterlimit="10"/>
<path d="M817.635 99.1034C817.635 99.1034 829.111 96.6011 830.839 103.787C832.332 109.953 816.722 109.717 816.722 109.717L782.399 109.915C782.399 109.915 769.469 111.351 763.078 97.0072C756.687 82.6637 750.531 45.1007 750.531 45.1007C750.531 45.1007 749.608 39.9356 754.085 39.1802C759.347 38.2925 760.378 49.2272 760.378 49.2272C760.378 49.2272 768.331 95.5907 779.876 97.857C781.653 98.2064 783.067 99.5 784.883 99.4811L817.635 99.1034Z" fill="#AC224F"/>
<path d="M848.139 61.6538L858.978 60.9361C859.862 60.8795 860.706 61.2666 861.207 61.9559L867.264 70.766L862.11 71.002L859.204 66.7056C859.204 66.7056 850.829 68.7169 847.737 66.7056L848.139 61.6538Z" fill="#F2C09E"/>
<path d="M804.48 33.1084L818.961 58.9908L849.052 59.9162V69.4344L817.273 70.7753C813.071 70.9547 809.085 69.0189 806.728 65.6668L792.267 40.6909L804.48 33.1084Z" fill="#4D1C6B"/>
<path d="M849.052 59.9066V69.4248L845.694 69.5665V59.8027L849.052 59.9066Z" fill="#4D1C6B"/>
<path d="M833.285 136.629L834.983 148.073L843.544 147.563L842.317 135.75L833.285 136.629Z" fill="#FCC9A7"/>
<path d="M833.069 146.912C833.255 146.374 833.923 146.157 834.404 146.487C835.346 147.129 837.006 147.894 839.391 147.601C841.875 147.299 842.749 146.024 843.053 145.127C843.21 144.655 843.741 144.4 844.222 144.58L859.655 150.396C860.597 150.746 861.343 151.444 861.746 152.332C862.119 153.163 861.501 154.098 860.548 154.117L834.414 154.485C833.383 154.504 832.558 153.682 832.598 152.691L832.784 147.837C832.784 147.752 832.804 147.677 832.833 147.601L833.069 146.912Z" fill="#2D0A42"/>
<path d="M807.278 30.8896L809.732 34.6762C809.889 35.035 809.958 35.9037 809.281 36.2248L808.328 36.8858L806.286 33.883L807.278 30.8896Z" fill="#FFEEE3"/>
<path d="M802.702 34.8937L801.927 34.5349C799.374 33.3357 798.314 30.3707 799.561 27.9156L807.847 11.5986L817.046 15.9234L807.474 34.195C806.453 36.2252 804.813 35.8852 802.702 34.8937Z" fill="#FCC9A7"/>
<path d="M823.908 19.1425C821.208 24.4493 814.542 26.6588 809.025 24.0621C803.507 21.4654 801.21 15.0632 803.91 9.747C806.609 4.44022 813.266 2.23063 818.793 4.82737C824.32 7.4241 826.608 13.8357 823.908 19.1425Z" fill="#FCC9A7"/>
<path d="M810.478 29.6997C807.857 28.4721 806.767 25.4221 808.053 22.901L812.727 13.6943L823.997 18.9917L820.188 26.4986C818.421 29.9546 814.072 31.3994 810.478 29.6997Z" fill="#FCC9A7"/>
<path d="M822.535 21.1543L823.144 25.2713C823.193 25.9229 822.476 26.3478 821.848 26.0551L819.079 25.328L822.535 21.1543Z" fill="#FCC9A7"/>
<path d="M812.776 19.0957C812.776 19.0957 816.674 19.3412 817.312 13.5528C817.312 13.5528 824.086 17.7076 826.845 16.0551C826.845 16.0551 827.689 -0.318479 813.621 0.257524C799.552 0.833528 792.594 25.2479 792.594 25.2479L806.889 31.7593L812.776 19.0957Z" fill="#C40D49"/>
<path d="M813.335 19.3316C812.599 20.7952 810.763 21.3995 809.241 20.6819C807.729 19.9642 807.091 18.2079 807.837 16.7443C808.574 15.2807 810.41 14.6763 811.931 15.394C813.443 16.1116 814.072 17.8679 813.335 19.3316Z" fill="#FCC9A7"/>
<path d="M809.064 39.1708C809.064 39.1708 808.858 35.0066 807.484 33.5619C806.109 32.1171 798.785 28.1323 798.785 28.1323C798.785 28.1323 788.251 31.069 781.781 42.6457C776.745 51.6635 772.003 74.4865 772.003 74.4865L802.398 78.7262C805.02 61.6727 809.928 53.9014 809.064 39.1708Z" fill="#4D1C6B"/>
<path d="M799.296 27.3291L798.03 27.8768C797.578 28.0751 797.48 28.6605 797.853 28.9816L805.884 35.8558C806.208 36.1391 806.718 36.0541 806.944 35.6953L807.847 34.1939C808.014 33.9106 807.945 33.5518 807.68 33.3441L800.003 27.433C799.807 27.263 799.532 27.2252 799.296 27.3291Z" fill="#FFEEE3"/>
<path d="M844.791 63.2026L855.629 62.485C856.513 62.4283 857.357 62.8155 857.858 63.5048L863.415 71.1061L858.221 71.7482L855.855 68.245C855.855 68.245 847.481 70.2563 844.388 68.245L844.791 63.2026Z" fill="#F2C09E"/>
<path d="M798.324 35.0347L814.68 61.5781L845.704 62.3996V70.983L812.226 72.3899C809.084 72.5221 806.09 71.0774 804.323 68.5656L786.111 42.6171L798.324 35.0347Z" fill="#4D1C6B"/>
<path d="M845.704 62.3999V70.9739L842.347 71.1155V62.3999H845.704Z" fill="#4D1C6B"/>
<path d="M772.003 74.4863L831.792 82.8242C836.367 83.4663 839.901 87.0262 840.343 91.4548L844.8 140.434L831.449 141.265L825.028 98.8107L787.485 99.7455C777.295 99.7455 769.48 91.0393 770.962 81.3417L772.003 74.4863Z" fill="#AC224F"/>
<path d="M877.974 70.7759H846.44V72.74H877.974V70.7759Z" fill="#AC224F"/>
<path d="M877.984 72.7399L888.185 44.0814L886.045 43.5903L876.041 71.1158L877.984 72.7399Z" fill="#AC224F"/>
<path d="M809.977 29.4355C809.977 29.4355 807.14 27.8208 807.14 24.4214C807.14 24.4214 805.373 28.104 808.976 31.3429L809.977 29.4355Z" fill="#F2C09E"/>
<path d="M763.431 155.92C763.902 155.92 764.334 155.609 764.462 155.146L780.072 95.9498C781.368 91.049 785.933 87.6213 791.195 87.6213C796.301 87.6213 800.836 90.9168 802.23 95.6382C807.689 114.136 820.393 154.494 820.521 154.9C820.688 155.439 821.286 155.75 821.846 155.58C822.406 155.42 822.73 154.844 822.553 154.306C822.425 153.9 809.721 113.56 804.272 95.081C802.623 89.4815 797.243 85.5723 791.186 85.5723C784.951 85.5723 779.532 89.6326 778.001 95.4399L762.391 154.645C762.243 155.193 762.587 155.75 763.156 155.892C763.254 155.911 763.343 155.92 763.431 155.92Z" fill="#1F252A"/>
<path d="M923.134 72.7397H841.442V76.2808H923.134V72.7397Z" fill="#550B23"/>
<path d="M852.998 84.8828H912.807" stroke="#550B23" stroke-width="1.66305" stroke-miterlimit="10"/>
<path d="M972.812 74.543V154.069" stroke="#550B23" stroke-width="1.66305" stroke-miterlimit="10"/>
<path d="M913.003 74.543V154.069" stroke="#550B23" stroke-width="1.66305" stroke-miterlimit="10"/>
<path d="M1008.18 99.1034C1008.18 99.1034 996.699 96.6011 994.971 103.787C993.478 109.953 1009.09 109.717 1009.09 109.717L1043.41 109.915C1043.41 109.915 1056.34 111.351 1062.73 97.0072C1069.12 82.6637 1075.28 45.1007 1075.28 45.1007C1075.28 45.1007 1076.2 39.9356 1071.72 39.1802C1066.46 38.2925 1065.43 49.2272 1065.43 49.2272C1065.43 49.2272 1057.48 95.5907 1045.93 97.857C1044.16 98.2064 1042.74 99.5 1040.93 99.4811L1008.18 99.1034Z" fill="#AC224F"/>
<path d="M977.671 61.6538L966.832 60.9361C965.948 60.8795 965.104 61.2666 964.603 61.9559L958.546 70.766L963.7 71.002L966.606 66.7056C966.606 66.7056 974.981 68.7169 978.073 66.7056L977.671 61.6538Z" fill="#2C1204"/>
<path d="M1021.33 33.1084L1006.85 58.9908L976.758 59.9162V69.4344L1008.54 70.7752C1012.74 70.9547 1016.73 69.0189 1019.08 65.6668L1033.54 40.6909L1021.33 33.1084Z" fill="#AC224F"/>
<path d="M976.758 59.9066V69.4248L980.116 69.5665V59.8027L976.758 59.9066Z" fill="#E1C8B7"/>
<path d="M992.525 136.629L990.827 148.073L982.266 147.563L983.493 135.75L992.525 136.629Z" fill="#57331F"/>
<path d="M992.741 146.912C992.555 146.374 991.887 146.157 991.406 146.487C990.464 147.129 988.804 147.894 986.419 147.601C983.935 147.299 983.061 146.024 982.757 145.127C982.6 144.655 982.07 144.4 981.588 144.58L966.155 150.396C965.213 150.746 964.467 151.444 964.064 152.332C963.691 153.163 964.309 154.098 965.262 154.117L991.396 154.485C992.427 154.504 993.252 153.682 993.213 152.691L993.026 147.837C993.026 147.752 993.006 147.677 992.977 147.601L992.741 146.912Z" fill="#AC224F"/>
<path d="M1018.53 30.8896L1016.08 34.6762C1015.92 35.035 1015.85 35.9037 1016.53 36.2248L1017.48 36.8858L1019.52 33.883L1018.53 30.8896Z" fill="#FFEEE3"/>
<path d="M1023.11 34.8937L1023.88 34.5349C1026.44 33.3357 1027.5 30.3707 1026.25 27.9156L1017.96 11.5986L1008.76 15.9234L1018.34 34.195C1019.36 36.2252 1021 35.8852 1023.11 34.8937Z" fill="#57331F"/>
<path d="M1001.9 19.1425C1004.6 24.4493 1011.27 26.6588 1016.79 24.0621C1022.3 21.4654 1024.6 15.0632 1021.9 9.747C1019.2 4.44022 1012.54 2.23063 1007.02 4.82737C1001.49 7.4241 999.202 13.8357 1001.9 19.1425Z" fill="#57331F"/>
<path d="M1015.33 29.6997C1017.95 28.4721 1019.04 25.4221 1017.76 22.901L1013.08 13.6943L1001.81 18.9917L1005.62 26.4986C1007.39 29.9546 1011.74 31.3994 1015.33 29.6997Z" fill="#57331F"/>
<path d="M1003.28 21.1543L1002.67 25.2713C1002.62 25.9229 1003.33 26.3478 1003.96 26.0551L1006.73 25.328L1003.28 21.1543Z" fill="#57331F"/>
<path d="M1013.03 19.0957C1013.03 19.0957 1009.14 19.3412 1008.5 13.5528C1008.5 13.5528 1001.72 17.7076 998.966 16.0551C998.966 16.0551 998.121 -0.318479 1012.19 0.257524C1026.26 0.833528 1026.33 20.0836 1026.33 20.0836L1014.36 26.9693L1013.03 19.0957Z" fill="#4D1C6B"/>
<path d="M1012.47 19.3316C1013.21 20.7952 1015.05 21.3995 1016.57 20.6819C1018.08 19.9642 1018.72 18.2079 1017.97 16.7443C1017.24 15.2807 1015.4 14.6763 1013.88 15.394C1012.37 16.1116 1011.74 17.8679 1012.47 19.3316Z" fill="#57331F"/>
<path d="M1021.07 17.1597L1023.16 21.8527C1023.16 21.8527 1018.56 25.3937 1016.25 20.8329L1019.58 19.9264L1021.07 17.1597Z" fill="#4D1C6B"/>
<path d="M1008.5 13.5526C1008.5 13.5526 1000.65 19.4849 995.696 14.6573C1001.13 16.5238 996.02 7.14097 1000.65 7.8775C1002.66 8.19855 1003.65 6.89546 1005.22 5.86621L1008.5 13.5526Z" fill="#4D1C6B"/>
<path d="M1016.75 39.1708C1016.75 39.1708 1016.95 35.0066 1018.33 33.5619C1019.7 32.1171 1027.02 28.1323 1027.02 28.1323C1027.02 28.1323 1037.56 31.069 1044.03 42.6457C1049.07 51.6635 1053.81 74.4865 1053.81 74.4865L1023.41 78.7262C1020.79 61.6727 1015.88 53.9014 1016.75 39.1708Z" fill="#AC224F"/>
<path d="M1026.51 27.3291L1027.78 27.8768C1028.23 28.0751 1028.33 28.6605 1027.96 28.9816L1019.93 35.8558C1019.6 36.1391 1019.09 36.0541 1018.87 35.6953L1017.96 34.1939C1017.8 33.9106 1017.86 33.5518 1018.13 33.3441L1025.81 27.433C1026 27.263 1026.28 27.2252 1026.51 27.3291Z" fill="#FFEEE3"/>
<path d="M981.019 63.2026L970.18 62.485C969.297 62.4283 968.452 62.8155 967.952 63.5048L962.395 71.1061L967.588 71.7482L969.954 68.245C969.954 68.245 978.329 70.2563 981.421 68.245L981.019 63.2026Z" fill="#57331F"/>
<path d="M1027.49 35.0347L1011.13 61.5781L980.106 62.3996V70.983L1013.58 72.3899C1016.73 72.5221 1019.72 71.0774 1021.49 68.5656L1039.7 42.6171L1027.49 35.0347Z" fill="#AC224F"/>
<path d="M980.106 62.3999V70.9739L983.463 71.1155V62.3999H980.106Z" fill="#FFEEE3"/>
<path d="M1053.81 74.4863L994.018 82.8242C989.443 83.4663 985.909 87.0262 985.467 91.4548L981.01 140.434L994.362 141.265L1000.78 98.8107L1038.32 99.7455C1048.52 99.7455 1056.33 91.0393 1054.85 81.3417L1053.81 74.4863Z" fill="#4D1C6B"/>
<path d="M947.836 70.7759H979.37V72.74H947.836V70.7759Z" fill="#4D1C6B"/>
<path d="M947.826 72.7399L937.625 44.0814L939.765 43.5903L949.77 71.1158L947.826 72.7399Z" fill="#4D1C6B"/>
<path d="M1015.83 29.4355C1015.83 29.4355 1018.67 27.8208 1018.67 24.4214C1018.67 24.4214 1020.44 28.104 1016.83 31.3429L1015.83 29.4355Z" fill="#2C1204"/>
<path d="M1062.38 155.92C1061.91 155.92 1061.48 155.609 1061.35 155.146L1045.74 95.9498C1044.44 91.049 1039.88 87.6213 1034.61 87.6213C1029.51 87.6213 1024.97 90.9168 1023.58 95.6382C1018.12 114.136 1005.42 154.494 1005.29 154.9C1005.12 155.439 1004.52 155.75 1003.96 155.58C1003.4 155.42 1003.08 154.844 1003.26 154.306C1003.38 153.9 1016.09 113.56 1021.54 95.081C1023.19 89.4815 1028.57 85.5723 1034.62 85.5723C1040.86 85.5723 1046.28 89.6326 1047.81 95.4399L1063.42 154.645C1063.57 155.193 1063.22 155.75 1062.65 155.892C1062.56 155.911 1062.47 155.92 1062.38 155.92Z" fill="#1F252A"/>
<path d="M902.676 72.7397H984.368V76.2808H902.676V72.7397Z" fill="#550B23"/>
<path d="M972.812 84.8828H913.003" stroke="#550B23" stroke-width="1.66305" stroke-miterlimit="10"/>
</svg>
