<svg width="354" height="80" viewBox="0 0 354 80" fill="none" xmlns="http://www.w3.org/2000/svg">
<path d="M43.2123 28.9463C43.2452 32.9891 42.3372 36.6295 40.4885 39.8672C38.6397 43.105 36.1726 45.9669 33.0873 48.453C34.0361 49.8516 35.0162 51.4843 36.0275 53.3512C37.0388 55.218 37.9339 57.203 38.7127 59.3061C39.5496 61.3502 40.2111 63.4249 40.6969 65.5304C41.2409 67.5769 41.52 69.479 41.5343 71.2367C41.5495 73.1117 41.0944 74.7853 40.1688 76.2577C39.3023 77.7883 37.7851 78.5623 35.6172 78.58C33.8009 78.5947 32.2117 77.7287 30.8499 75.9819C29.5466 74.2346 28.3578 72.1641 27.2837 69.7704C26.2676 67.3176 25.3099 64.8351 24.4106 62.3228C23.5698 59.81 22.7624 57.795 21.9883 56.2778C20.9365 56.6379 19.9145 57.0564 18.9223 57.5332C17.9295 57.9515 16.9075 58.3699 15.8562 58.7886C15.8081 60.0781 15.7054 61.8661 15.5482 64.1526C15.4491 66.3801 15.1449 68.6092 14.6357 70.84C14.185 73.0703 13.4683 75.0097 12.4856 76.6584C11.5029 78.3071 10.1326 79.1385 8.37487 79.1528C6.44134 79.1685 4.94082 78.3897 3.87332 76.8163C2.80582 75.2428 2.02889 73.3741 1.54255 71.21C1.1148 69.0454 0.86258 66.8501 0.785903 64.6241C0.708749 62.3395 0.664937 60.5527 0.654467 59.2637C0.632098 56.5099 0.668796 53.8142 0.764562 51.1766C0.859853 48.4804 0.896313 45.7554 0.873944 43.0016C0.853479 40.4822 0.774422 37.9632 0.636773 35.4447C0.557715 32.9257 0.507716 30.3772 0.486775 27.7992C0.482015 27.2133 0.476066 26.4809 0.468927 25.602C0.461312 24.6645 0.482993 23.7268 0.53397 22.7889C0.643062 21.7919 0.752631 20.8534 0.862675 19.9736C0.97272 19.0938 1.17208 18.389 1.46076 17.8593C2.03668 16.6241 3.34548 15.4416 5.38715 14.3117C7.48741 13.1813 9.76464 12.196 12.2188 11.3557C14.7311 10.4563 17.1572 9.76278 19.4971 9.27501C21.8951 8.72817 23.68 8.44999 24.8518 8.44047C27.84 8.4162 30.4812 8.95141 32.7753 10.0461C35.0694 11.1408 36.986 12.6487 38.5251 14.5698C40.0637 16.4324 41.2241 18.6203 42.0063 21.1336C42.7879 23.5883 43.19 26.1925 43.2123 28.9463ZM26.9631 30.3088C26.9507 28.7854 26.5899 27.6457 25.8806 26.8898C25.1709 26.0752 24.025 25.6743 22.443 25.6872C21.2712 25.6967 20.0717 25.9115 18.8446 26.3317C17.6761 26.7513 16.596 27.2289 15.6042 27.7643C15.8761 32.3911 16.0014 36.9899 15.9799 41.5605C17.207 41.1404 18.4625 40.6028 19.7462 39.9478C21.03 39.2928 22.1954 38.4923 23.2425 37.5463C24.3481 36.5998 25.2477 35.5378 25.9413 34.3602C26.6349 33.1827 26.9755 31.8322 26.9631 30.3088ZM83.3618 59.2071C83.378 61.1992 82.7494 63.1673 81.4761 65.1113C80.2609 66.9962 78.6927 68.7083 76.7716 70.2473C74.9085 71.7274 72.8969 72.9449 70.7366 73.9C68.5758 74.7965 66.5873 75.2521 64.7709 75.2669C61.6656 75.2921 58.8763 74.553 56.403 73.0496C53.9879 71.4871 51.9503 69.5114 50.2902 67.1225C48.6302 64.7336 47.349 62.1072 46.4468 59.2433C45.6027 56.3204 45.1695 53.482 45.1471 50.7282C45.1234 47.7986 45.508 44.6606 46.3012 41.3142C47.0943 37.9678 48.2998 34.8817 49.9175 32.056C51.5938 29.2298 53.6841 26.869 56.1883 24.9736C58.7511 23.0777 61.7903 22.1155 65.3058 22.0869C67.2979 22.0708 69.205 22.4068 71.0271 23.0952C72.8486 23.7249 74.4382 24.6496 75.7958 25.869C77.1535 27.0885 78.2493 28.5445 79.0834 30.237C79.9175 31.9295 80.3431 33.8304 80.3602 35.9397C80.3826 38.6935 79.8176 41.2763 78.6653 43.6881C77.513 46.0999 75.9772 48.1925 74.0579 49.966C72.1387 51.7394 69.9238 53.193 67.4134 54.3267C64.9026 55.4019 62.3293 56.0087 59.6936 56.1473C59.9418 57.8446 60.6256 59.0695 61.745 59.8222C62.923 60.5744 64.303 60.944 65.885 60.9312C67.0568 60.9217 68.197 60.6194 69.3055 60.0244C70.414 59.4295 71.4927 58.7762 72.5416 58.0645C73.5901 57.2942 74.61 56.6121 75.6013 56.0181C76.6512 55.4236 77.7034 55.1221 78.7581 55.1135C79.9299 55.104 80.9877 55.4763 81.9313 56.2304C82.875 56.9844 83.3518 57.9767 83.3618 59.2071ZM68.9491 37.7903C68.9429 37.0286 68.7314 36.2393 68.3146 35.4223C67.8978 34.6054 67.25 34.2005 66.3711 34.2076C65.0821 34.2181 64.001 34.5784 63.1278 35.2887C62.2542 35.9403 61.5287 36.7958 60.9513 37.8552C60.3735 38.8561 59.9136 39.9438 59.5715 41.1185C59.2881 42.2927 59.1211 43.3781 59.0706 44.3746C59.8895 44.1922 60.8543 43.95 61.9652 43.648C63.1346 43.3455 64.2155 42.9559 65.2078 42.479C66.2581 41.9431 67.1318 41.2915 67.8287 40.5241C68.5842 39.7562 68.9577 38.8449 68.9491 37.7903ZM73.6174 6.55016C73.6226 7.19467 73.4521 7.84061 73.1057 8.48798C72.759 9.07675 72.324 9.63694 71.801 10.1686C71.3365 10.6997 70.8133 11.202 70.2312 11.6755C69.6486 12.0904 69.1243 12.4755 68.6585 12.8309C68.2507 13.1272 67.7848 13.4825 67.2608 13.897C66.7949 14.2523 66.2705 14.6082 65.6874 14.9645C65.1625 15.2617 64.608 15.5299 64.024 15.769C63.4985 16.0077 62.9722 16.1291 62.4448 16.1334C61.9761 16.1372 61.565 16.0234 61.2116 15.7919C60.8576 15.5018 60.6785 15.093 60.6742 14.5657C60.6671 13.6868 60.9808 12.6296 61.6153 11.3939C62.3079 10.0992 63.1475 8.86185 64.1341 7.68192C65.1201 6.4434 66.1664 5.40948 67.273 4.58015C68.3791 3.69223 69.4009 3.24446 70.3384 3.23684C71.1587 3.23018 71.8939 3.57578 72.5442 4.27365C73.2525 4.91245 73.6102 5.67129 73.6174 6.55016ZM125.295 49.374C125.321 52.5965 125.025 55.7924 124.406 58.9616C123.787 62.1308 122.726 64.9813 121.223 67.5131C119.72 69.9864 117.686 71.9951 115.12 73.5395C112.613 75.0833 109.455 75.8707 105.647 75.9017C101.897 75.9321 98.7561 75.2252 96.2248 73.7809C93.6929 72.2779 91.6553 70.3022 90.112 67.8537C88.6272 65.4048 87.5499 62.6302 86.8802 59.5301C86.269 56.4295 85.9504 53.2679 85.9242 50.0454C85.8956 46.5299 86.2775 43.0403 87.0697 39.5767C87.2378 38.6379 87.5496 37.3462 88.005 35.7018C88.5185 33.9984 89.1497 32.3526 89.8986 30.7644C90.7055 29.1172 91.6023 27.7036 92.5888 26.5237C93.634 25.3433 94.7717 24.7481 96.0022 24.7381C97.174 24.7286 98.1141 25.0432 98.8224 25.682C99.5308 26.3208 100.094 27.1366 100.512 28.1293C100.93 29.0634 101.202 30.0866 101.328 31.1989C101.454 32.2526 101.52 33.2189 101.528 34.0978C101.539 35.4454 101.432 36.7647 101.208 38.0556C101.043 39.3461 100.848 40.6367 100.624 41.9277C100.404 43.6873 100.184 45.447 99.9641 47.2066C99.8026 48.9658 99.729 50.7243 99.7433 52.482C99.7504 53.3609 99.7878 54.3567 99.8554 55.4695C99.9812 56.5232 100.224 57.5467 100.584 58.5399C100.943 59.5331 101.448 60.3786 102.098 61.0765C102.748 61.7158 103.659 62.0306 104.831 62.0211C106.354 62.0087 107.552 61.5888 108.424 60.7614C109.355 59.9335 110.02 58.9027 110.421 57.6689C110.879 56.4347 111.162 55.114 111.267 53.7068C111.373 52.2997 111.421 51.0102 111.412 49.8383C111.391 47.2603 111.194 44.7423 110.823 42.2843C110.451 39.7677 110.108 37.2216 109.794 34.6459C109.733 34.3534 109.7 33.9435 109.696 33.4162C109.689 32.5373 109.828 31.6573 110.114 30.776C110.4 29.8947 110.804 29.1004 111.325 28.393C111.847 27.6856 112.487 27.1238 113.245 26.7075C114.003 26.2325 114.851 25.9913 115.788 25.9837C117.077 25.9732 118.224 26.4326 119.227 27.362C120.231 28.2328 121.06 29.398 121.717 30.8575C122.431 32.258 123.001 33.8648 123.426 35.6778C123.909 37.4317 124.275 39.1866 124.523 40.9425C124.83 42.6393 125.019 44.2491 125.09 45.772C125.22 47.2945 125.288 48.4951 125.295 49.374ZM155.84 76.7244C154.844 76.7325 154.05 76.2702 153.456 75.3375C152.863 74.4634 152.415 73.4416 152.113 72.2722C151.81 71.1027 151.596 69.9325 151.469 68.7616C151.4 67.5317 151.364 66.5945 151.358 65.95C151.344 64.1922 151.418 62.4337 151.579 60.6745C151.799 58.9149 152.019 57.1552 152.239 55.3956C152.518 53.6354 152.738 51.8758 152.9 50.1166C153.12 48.3569 153.223 46.5982 153.208 44.8405C153.203 44.1374 153.167 43.3759 153.102 42.5561C153.037 41.7363 152.884 40.9758 152.644 40.2746C152.462 39.5143 152.135 38.9017 151.662 38.4368C151.19 37.9719 150.572 37.7425 149.811 37.7487C149.283 37.753 148.701 38.1972 148.064 39.0813C147.426 39.9068 146.819 40.8786 146.242 41.9966C145.723 43.0555 145.263 44.1433 144.862 45.2599C144.519 46.3174 144.35 47.1098 144.354 47.6371C144.364 48.9261 144.375 50.2444 144.386 51.592C144.455 52.8806 144.495 54.1987 144.506 55.5463L144.547 60.6438C144.497 61.6989 144.418 62.7836 144.31 63.8978C144.202 65.012 144.035 66.0973 143.809 67.1539C143.642 68.21 143.387 69.2375 143.043 70.2364C142.699 71.1767 142.237 72.0301 141.658 72.7965C141.136 73.5039 140.496 74.0951 139.738 74.57C138.981 75.0449 138.074 75.2867 137.02 75.2952C135.848 75.3048 134.878 74.9318 134.11 74.1763C133.342 73.4208 132.719 72.459 132.241 71.291C131.762 70.0643 131.4 68.7196 131.153 67.2567C130.965 65.7347 130.807 64.2711 130.678 62.8659C130.608 61.4016 130.568 60.0835 130.558 58.9116C130.607 57.6807 130.628 56.7137 130.623 56.0106L130.589 51.8799C130.571 49.6534 130.494 47.4567 130.36 45.2898C130.283 43.1223 130.237 40.9547 130.219 38.7868C130.209 37.6149 130.197 36.1209 130.183 34.3045C130.226 32.4877 130.446 30.728 130.843 29.0255C131.239 27.2644 131.9 25.7649 132.828 24.5268C133.755 23.2888 135.127 22.6624 136.944 22.6476C137.764 22.641 138.498 22.8987 139.147 23.4208C139.796 23.9429 140.358 24.5829 140.833 25.3407C141.366 26.0982 141.783 26.9151 142.083 27.7916C142.442 28.6676 142.712 29.4272 142.893 30.0703C143.472 29.2452 144.139 28.4488 144.895 27.6809C145.709 26.9125 146.612 26.2313 147.603 25.6373C148.594 25.0433 149.704 24.5655 150.931 24.204C152.159 23.8425 153.564 23.6553 155.146 23.6424C158.134 23.6181 160.454 24.3317 162.107 25.7832C163.817 27.1756 165.062 28.9527 165.841 31.1144C166.679 33.217 167.195 35.498 167.391 37.9575C167.587 40.4169 167.693 42.6427 167.709 44.6348C167.717 45.6309 167.641 47.1257 167.482 49.1192C167.322 51.0542 167.046 53.2244 166.656 55.63C166.323 57.9766 165.845 60.4122 165.221 62.9369C164.596 65.403 163.853 67.6649 162.991 69.7228C162.129 71.7806 161.088 73.4591 159.868 74.7581C158.706 76.0566 157.364 76.7121 155.84 76.7244ZM186.874 12.6617C186.881 13.482 186.652 14.2163 186.189 14.8646C185.784 15.5124 185.232 16.1029 184.533 16.6359C183.834 17.1103 183.075 17.4974 182.257 17.797C181.439 18.038 180.678 18.1614 179.975 18.1671C178.803 18.1766 177.775 17.892 176.892 17.3132C176.008 16.7344 175.561 15.8298 175.551 14.5994C175.544 13.7205 175.743 12.9572 176.148 12.3093C176.611 11.6024 177.163 11.0413 177.804 10.6259C178.445 10.1519 179.175 9.79442 179.993 9.55339C180.811 9.31236 181.601 9.18875 182.363 9.18257C183.476 9.17352 184.504 9.42886 185.446 9.94857C186.387 10.4683 186.863 11.3726 186.874 12.6617ZM187.82 42.5378C187.826 43.3581 187.833 44.2369 187.841 45.1744C187.848 46.0533 187.826 46.9031 187.774 47.7239C187.723 48.7204 187.705 50.0683 187.719 51.7674C187.732 53.408 187.688 55.1955 187.587 57.13C187.485 59.0645 187.296 61.029 187.019 63.0235C186.801 65.0175 186.406 66.8372 185.833 68.4825C185.261 70.1278 184.48 71.4819 183.493 72.5446C182.564 73.5483 181.367 74.0854 179.902 74.1559C178.79 74.2235 177.849 73.7917 177.079 72.8604C176.31 71.9291 175.656 70.7332 175.117 69.2727C174.635 67.7531 174.27 66.0861 174.021 64.2717C173.772 62.3986 173.581 60.613 173.45 58.9148C173.319 57.158 173.247 55.5472 173.235 54.0824C173.223 52.6176 173.215 51.5337 173.209 50.8306C173.201 49.8931 173.191 48.5748 173.177 46.8756C173.162 45.1179 173.206 43.2424 173.307 41.2494C173.408 39.2563 173.596 37.2332 173.873 35.1801C174.208 33.1266 174.661 31.2478 175.233 29.5439C175.864 27.8395 176.673 26.4559 177.661 25.3932C178.648 24.3304 179.904 23.7929 181.427 23.7805C183.009 23.7676 184.216 24.5489 185.05 26.1242C185.883 27.6995 186.513 29.5402 186.94 31.6461C187.367 33.7521 187.619 35.8595 187.695 37.9683C187.77 40.0186 187.812 41.5417 187.82 42.5378ZM211.035 76.364C208.046 76.3883 205.433 75.6185 203.193 74.0546C200.954 72.4907 199.063 70.4845 197.519 68.036C195.976 65.5875 194.811 62.8723 194.025 59.8903C193.239 56.8497 192.834 53.8646 192.81 50.935C192.785 47.8297 193.14 44.6333 193.875 41.346C194.609 38.0001 195.757 34.9731 197.317 32.265C198.876 29.4983 200.88 27.2554 203.327 25.5363C205.773 23.7585 208.696 22.8558 212.094 22.8282C215.375 22.8016 218.166 23.6872 220.465 25.4849C222.823 27.2237 224.716 29.4349 226.145 32.1187C227.572 34.7439 228.592 37.6361 229.203 40.7953C229.815 43.9545 230.044 46.941 229.891 49.7549C229.741 52.8617 229.268 56.0004 228.474 59.171C227.738 62.3411 226.618 65.1921 225.115 67.7239C223.612 70.2558 221.696 72.3222 219.365 73.9232C217.034 75.5242 214.257 76.3378 211.035 76.364ZM211.591 36.6316C210.712 36.6387 209.925 37.1139 209.229 38.0571C208.592 38.9998 208.045 40.1469 207.587 41.4983C207.188 42.8492 206.878 44.2873 206.656 45.8126C206.433 47.2793 206.326 48.5693 206.335 49.6825C206.347 51.0887 206.476 52.6112 206.724 54.2498C207.03 55.888 207.424 57.4083 207.904 58.8107C208.383 60.1545 208.949 61.2925 209.601 62.2248C210.312 63.0979 211.106 63.531 211.985 63.5238C212.923 63.5162 213.71 63.0703 214.347 62.1862C215.043 61.3016 215.591 60.1839 215.99 58.8329C216.389 57.482 216.67 56.0148 216.833 54.4314C216.996 52.7894 217.071 51.2653 217.06 49.8591C217.049 48.5701 216.921 47.1648 216.674 45.6434C216.427 44.0633 216.063 42.6013 215.584 41.2575C215.163 39.9133 214.597 38.8045 213.887 37.9314C213.235 37.0577 212.47 36.6245 211.591 36.6316ZM246.746 14.7242C246.754 15.6617 246.5 16.8943 245.985 18.4219C245.528 19.8905 244.925 21.331 244.174 22.7434C243.483 24.1554 242.672 25.3631 241.743 26.3668C240.813 27.3705 239.909 27.8759 239.03 27.883C237.859 27.8926 237.268 27.2821 237.258 26.0517C237.252 25.3486 237.393 24.6736 237.681 24.0267C237.968 23.3798 238.286 22.762 238.633 22.1732C238.979 21.5258 239.296 20.908 239.584 20.3197C239.872 19.7314 240.014 19.115 240.009 18.4705C239.601 18.7668 239.134 19.005 238.608 19.185C238.141 19.3646 237.673 19.4563 237.204 19.4601C235.857 19.471 234.71 18.953 233.764 17.906C232.818 16.8589 232.339 15.6616 232.328 14.314C232.313 12.4391 232.916 10.94 234.137 9.81673C235.359 8.69349 236.907 8.12425 238.782 8.10902C240.891 8.09189 242.741 8.63352 244.332 9.73391C245.923 10.7757 246.728 12.4392 246.746 14.7242ZM296.673 69.2521C296.686 70.8927 296.287 72.2144 295.475 73.2171C294.663 74.2784 293.408 74.816 291.708 74.8298C290.361 74.8407 289.098 74.4408 287.919 73.63C286.799 72.8188 285.737 71.8313 284.731 70.6675C283.784 69.4447 282.924 68.1626 282.151 66.8212C281.437 65.4793 280.841 64.3122 280.365 63.32C279.114 60.8691 277.864 58.4182 276.613 55.9674C275.422 53.516 274.229 51.0354 273.037 48.5255L267.79 51.8201C267.863 53.5188 267.789 55.2187 267.568 56.9198C267.347 58.6208 267.186 60.3214 267.082 62.0216C266.974 63.1943 266.78 64.485 266.498 65.8936C266.275 67.2431 265.875 68.5355 265.299 69.7707C264.723 70.9473 263.94 71.9497 262.951 72.7781C261.961 73.6065 260.734 74.0266 259.269 74.0385C257.922 74.0495 256.806 73.7949 255.923 73.2747C255.04 72.6959 254.301 71.9694 253.708 71.0953C253.174 70.2207 252.785 69.2278 252.541 68.1164C252.298 67.0051 252.171 65.8635 252.162 64.6917L252.156 63.9886C252.128 60.5316 252.276 57.0733 252.599 53.6135C252.981 50.0947 253.216 46.577 253.305 43.0606C253.384 38.4309 253.493 33.8009 253.631 29.1707C253.769 24.5406 253.966 19.9099 254.222 15.2788C254.272 14.2236 254.439 13.1969 254.724 12.1984C255.009 11.2 255.441 10.3175 256.021 9.55107C256.6 8.72603 257.298 8.07581 258.114 7.60041C258.989 7.12454 260.013 6.88184 261.185 6.87232C263.001 6.85757 264.354 7.49113 265.243 8.77301C266.191 10.0544 266.848 11.6019 267.215 13.4154C267.581 15.2288 267.743 17.1026 267.7 19.0366C267.716 20.9701 267.729 22.5814 267.739 23.8704C267.769 27.5617 267.711 31.2537 267.565 34.9464C269.253 33.5264 270.881 31.9018 272.448 30.0726C274.074 28.2429 275.494 26.3856 276.709 24.5007C277.462 23.3813 278.328 21.8508 279.309 19.9091C280.289 17.9089 281.357 15.9959 282.514 14.17C283.671 12.2856 284.947 10.6638 286.342 9.30478C287.737 7.88715 289.225 7.17191 290.807 7.15906C292.506 7.14526 293.741 7.63329 294.511 8.62317C295.339 9.55397 295.759 10.8104 295.772 12.3923C295.791 14.736 295.429 17.1414 294.688 19.6084C294.005 22.075 293.058 24.5144 291.847 26.9267C290.635 29.2803 289.247 31.5475 287.683 33.7283C286.177 35.85 284.639 37.7082 283.07 39.303C284.733 42.0435 286.308 44.814 287.796 47.6145C289.283 50.3565 290.77 53.1277 292.258 55.9282C292.793 56.8614 293.299 57.8827 293.777 58.9921C294.314 60.1011 294.792 61.2398 295.211 62.4083C295.631 63.5768 295.963 64.746 296.207 65.916C296.509 67.0854 296.665 68.1975 296.673 69.2521ZM313.872 11.6301C313.878 12.4504 313.65 13.1847 313.186 13.833C312.781 14.4808 312.23 15.0713 311.531 15.6043C310.831 16.0787 310.073 16.4658 309.255 16.7654C308.437 17.0064 307.676 17.1298 306.973 17.1355C305.801 17.145 304.773 16.8604 303.89 16.2816C303.006 15.7028 302.559 14.7982 302.549 13.5678C302.542 12.6889 302.741 11.9256 303.146 11.2777C303.609 10.5708 304.161 10.0097 304.802 9.59429C305.443 9.12032 306.172 8.76282 306.991 8.52179C307.809 8.28076 308.599 8.15715 309.361 8.15097C310.474 8.14192 311.502 8.39726 312.443 8.91697C313.385 9.43668 313.861 10.341 313.872 11.6301ZM314.817 41.5062C314.824 42.3265 314.831 43.2053 314.839 44.1428C314.846 45.0217 314.824 45.8715 314.772 46.6923C314.721 47.6888 314.703 49.0367 314.717 50.7358C314.73 52.3764 314.686 54.1639 314.584 56.0984C314.483 58.0329 314.294 59.9974 314.017 61.9919C313.799 63.9859 313.403 65.8056 312.831 67.4509C312.258 69.0962 311.478 70.4503 310.491 71.513C309.561 72.5167 308.365 73.0538 306.9 73.1243C305.787 73.1919 304.846 72.7601 304.077 71.8288C303.308 70.8975 302.654 69.7016 302.114 68.2411C301.633 66.7215 301.268 65.0545 301.019 63.2401C300.769 61.367 300.579 59.5814 300.448 57.8832C300.317 56.1264 300.245 54.5156 300.233 53.0508C300.221 51.586 300.212 50.5021 300.207 49.799C300.199 48.8615 300.188 47.5432 300.174 45.844C300.16 44.0863 300.204 42.2108 300.305 40.2178C300.406 38.2247 300.594 36.2016 300.871 34.1485C301.205 32.095 301.659 30.2162 302.231 28.5123C302.862 26.8079 303.671 25.4243 304.658 24.3616C305.646 23.2988 306.901 22.7613 308.425 22.7489C310.007 22.736 311.214 23.5173 312.047 25.0926C312.88 26.6679 313.511 28.5086 313.938 30.6145C314.365 32.7205 314.617 34.8279 314.692 36.9367C314.768 38.987 314.809 40.5101 314.817 41.5062ZM341.817 75.9169C337.657 75.9507 334.4 75.4205 332.048 74.3263C329.754 73.2902 328.013 71.7809 326.825 69.7983C325.696 67.8152 325.002 65.4184 324.745 62.6079C324.488 59.7974 324.345 56.6637 324.317 53.2067C324.295 50.4529 324.36 47.6984 324.514 44.9432C324.667 42.1293 324.906 39.139 325.232 35.9722C324.412 35.9788 323.767 36.0134 323.299 36.0758C322.83 36.0796 322.449 36.0827 322.156 36.0851C320.282 36.1003 318.667 35.7032 317.313 34.8939C315.9 34.085 315.186 32.831 315.173 31.1319C315.164 30.0772 315.567 29.1364 316.38 28.3095C317.135 27.483 318.126 26.7718 319.351 26.1759C320.577 25.58 321.891 25.1005 323.295 24.7376C324.757 24.3741 326.132 24.1285 327.42 24.0009C327.406 22.3603 327.509 20.543 327.727 18.549C327.945 16.555 328.34 14.706 328.913 13.0021C329.543 11.2391 330.38 9.76739 331.426 8.58699C332.471 7.40659 333.814 6.80972 335.454 6.7964C336.392 6.78878 337.214 7.07508 337.922 7.65528C338.688 8.17642 339.309 8.87453 339.785 9.7496C340.26 10.5661 340.62 11.5007 340.862 12.5534C341.105 13.6062 341.231 14.6306 341.239 15.6267C341.248 16.7985 341.17 18.0003 341.005 19.2322C340.839 20.464 340.529 21.9901 340.075 23.8102C341.07 23.6849 341.743 23.6209 342.095 23.618C342.446 23.5566 342.768 23.5246 343.061 23.5223C344.057 23.5142 345.083 23.5937 346.139 23.7609C347.254 23.9277 348.252 24.2125 349.135 24.6155C350.075 25.0181 350.842 25.5685 351.433 26.2669C352.024 26.9066 352.324 27.6952 352.331 28.6327C352.34 29.6873 351.908 30.6284 351.036 31.4558C350.222 32.2827 349.173 32.9944 347.889 33.5908C346.605 34.1872 345.232 34.6671 343.77 35.0306C342.307 35.3354 340.932 35.5517 339.644 35.6793C339.312 38.0845 339.066 40.3131 338.907 42.3652C338.806 44.3583 338.676 46.3809 338.517 48.433C338.408 49.4301 338.299 50.4564 338.191 51.512C338.14 52.5085 338.119 53.5341 338.128 54.5888C338.134 55.3504 338.17 56.2584 338.238 57.3126C338.304 58.3081 338.517 59.2732 338.876 60.2079C339.236 61.1425 339.799 61.9582 340.566 62.6551C341.333 63.2935 342.39 63.6072 343.738 63.5962C344.558 63.5896 345.407 63.5241 346.285 63.3997C347.163 63.2168 348.041 63.1218 348.92 63.1147C350.443 63.1023 351.532 63.6208 352.185 64.6702C352.896 65.7192 353.259 67.0639 353.272 68.7045C353.282 69.9349 352.91 71.022 352.156 71.9656C351.46 72.8502 350.558 73.5607 349.449 74.0971C348.34 74.692 347.084 75.1417 345.68 75.4461C344.335 75.75 343.047 75.9069 341.817 75.9169Z" fill="#4D1C6B"/>
</svg>
